<svg width="351" height="455" viewBox="0 0 351 455" fill="none" xmlns="http://www.w3.org/2000/svg">
<rect x="32" y="34.9999" width="287" height="420" rx="29" fill="#141212"/>
<rect width="351" height="344" fill="url(#paint0_radial_14_228)" fill-opacity="0.25"/>
<path d="M73.9375 352.783V352.441C74.7578 352.448 75.2949 352.454 75.5488 352.461C75.8027 352.467 76.0143 352.474 76.1836 352.48C77.2773 352.48 77.9967 352.467 78.3418 352.441L78.3223 352.822C77.873 352.861 77.5378 352.917 77.3164 352.988C77.0951 353.053 76.9355 353.197 76.8379 353.418C76.7793 353.561 76.737 353.919 76.7109 354.492C76.6849 355.065 76.6621 355.801 76.6426 356.699C76.6165 357.708 76.597 358.623 76.584 359.443C76.571 360.264 76.5645 361.077 76.5645 361.885C76.5645 362.62 76.584 363.164 76.623 363.516C76.6621 363.867 76.7272 364.089 76.8184 364.18C76.929 364.264 77.1113 364.326 77.3652 364.365C77.6257 364.404 78.1758 364.424 79.0156 364.424C79.9401 364.424 80.7116 364.349 81.3301 364.199C81.9551 364.049 82.4238 363.89 82.7363 363.721C83.153 363.467 83.4395 363.034 83.5957 362.422L83.918 362.461C83.8789 362.728 83.791 363.128 83.6543 363.662C83.5176 364.196 83.3581 364.681 83.1758 365.117C82.6159 365.052 82.1699 365.02 81.8379 365.02C81.6361 365.013 81.4473 365.007 81.2715 365C81.1022 365 80.9036 365 80.6758 365H73.8203L73.8008 364.697C74.1849 364.619 74.4648 364.535 74.6406 364.443C74.8164 364.352 74.9466 364.196 75.0312 363.975C75.1224 363.747 75.1777 363.408 75.1973 362.959C75.2233 362.51 75.2363 361.862 75.2363 361.016L75.2559 356.719C75.2689 355.749 75.2689 355.013 75.2559 354.512C75.2428 354.01 75.1973 353.639 75.1191 353.398C75.041 353.151 74.9173 352.992 74.748 352.92C74.5788 352.842 74.3086 352.796 73.9375 352.783ZM91.1738 359.922L86.291 360.977C86.3236 361.589 86.3822 362.064 86.4668 362.402C86.5579 362.734 86.7337 363.073 86.9941 363.418C87.4954 364.076 88.1009 364.404 88.8105 364.404C89.1035 364.404 89.416 364.349 89.748 364.238C90.0801 364.128 90.4479 363.929 90.8516 363.643L91.0273 363.877C89.8945 364.691 88.8887 365.098 88.0098 365.098C87.0788 365.098 86.3529 364.746 85.832 364.043C85.3112 363.34 85.0508 362.533 85.0508 361.621C85.0508 360.69 85.2493 359.919 85.6465 359.307C86.0436 358.688 86.4896 358.239 86.9844 357.959C87.4792 357.679 87.8535 357.539 88.1074 357.539C88.4004 357.539 88.7031 357.588 89.0156 357.686C89.3346 357.777 89.6439 357.956 89.9434 358.223C90.2493 358.49 90.5033 358.854 90.7051 359.316C90.7637 359.414 90.819 359.479 90.8711 359.512C90.9232 359.544 91.0176 359.561 91.1543 359.561L91.1738 359.922ZM86.3105 360.596L87.5898 360.322C87.6419 360.296 87.8372 360.244 88.1758 360.166C88.5208 360.088 88.752 360.039 88.8691 360.02C89.2077 359.941 89.4225 359.886 89.5137 359.854C89.6048 359.821 89.6504 359.769 89.6504 359.697C89.6504 359.593 89.5723 359.417 89.416 359.17C89.2598 358.916 89.0352 358.685 88.7422 358.477C88.4557 358.268 88.1172 358.164 87.7266 358.164C87.2383 358.164 86.89 358.421 86.6816 358.936C86.4798 359.45 86.3561 360.003 86.3105 360.596ZM92.9902 362.197L93.0391 358.398C92.7396 358.359 92.3913 358.34 91.9941 358.34C92.0072 358.288 92.0137 358.206 92.0137 358.096C92.5801 357.751 93.0228 357.422 93.3418 357.109C93.6608 356.797 94.0384 356.354 94.4746 355.781L94.377 357.539C94.9368 357.591 95.5488 357.617 96.2129 357.617C96.5319 357.617 96.8802 357.611 97.2578 357.598L97.2383 358.203C96.8997 358.242 96.5514 358.262 96.1934 358.262C96.1608 358.262 96.0339 358.258 95.8125 358.252C95.5911 358.239 95.2461 358.223 94.7773 358.203C94.6536 358.203 94.5592 358.216 94.4941 358.242C94.4355 358.262 94.3932 358.304 94.3672 358.369C94.3477 358.434 94.3314 358.558 94.3184 358.74C94.3118 358.923 94.3053 359.115 94.2988 359.316L94.25 362.363C94.237 362.949 94.3021 363.434 94.4453 363.818C94.5951 364.196 94.9499 364.385 95.5098 364.385C95.7246 364.385 95.9883 364.339 96.3008 364.248C96.6198 364.15 96.9844 364.007 97.3945 363.818C97.4076 363.87 97.4141 363.91 97.4141 363.936C97.4206 363.962 97.4271 363.991 97.4336 364.023C97.2057 364.271 96.7858 364.515 96.1738 364.756C95.5684 364.997 95.0215 365.117 94.5332 365.117C94.11 365.117 93.7454 364.974 93.4395 364.688C93.14 364.395 92.9902 363.893 92.9902 363.184V362.197ZM103.732 362.197L103.781 358.398C103.482 358.359 103.133 358.34 102.736 358.34C102.749 358.288 102.756 358.206 102.756 358.096C103.322 357.751 103.765 357.422 104.084 357.109C104.403 356.797 104.781 356.354 105.217 355.781L105.119 357.539C105.679 357.591 106.291 357.617 106.955 357.617C107.274 357.617 107.622 357.611 108 357.598L107.98 358.203C107.642 358.242 107.294 358.262 106.936 358.262C106.903 358.262 106.776 358.258 106.555 358.252C106.333 358.239 105.988 358.223 105.52 358.203C105.396 358.203 105.301 358.216 105.236 358.242C105.178 358.262 105.135 358.304 105.109 358.369C105.09 358.434 105.074 358.558 105.061 358.74C105.054 358.923 105.048 359.115 105.041 359.316L104.992 362.363C104.979 362.949 105.044 363.434 105.188 363.818C105.337 364.196 105.692 364.385 106.252 364.385C106.467 364.385 106.73 364.339 107.043 364.248C107.362 364.15 107.727 364.007 108.137 363.818C108.15 363.87 108.156 363.91 108.156 363.936C108.163 363.962 108.169 363.991 108.176 364.023C107.948 364.271 107.528 364.515 106.916 364.756C106.311 364.997 105.764 365.117 105.275 365.117C104.852 365.117 104.488 364.974 104.182 364.688C103.882 364.395 103.732 363.893 103.732 363.184V362.197ZM108.518 353.115V352.744C108.661 352.673 108.755 352.624 108.801 352.598L110.695 351.68L111.018 351.504L111.34 351.66C111.216 352.246 111.128 352.923 111.076 353.691C111.024 354.453 110.985 355.423 110.959 356.602L110.9 358.584C111.669 358.252 112.29 358.008 112.766 357.852C113.247 357.695 113.71 357.617 114.152 357.617C114.777 357.617 115.233 357.809 115.52 358.193C115.806 358.571 115.982 359.036 116.047 359.59C116.118 360.137 116.154 360.859 116.154 361.758C116.154 361.934 116.151 362.096 116.145 362.246C116.145 362.396 116.141 362.607 116.135 362.881C116.128 363.148 116.118 363.395 116.105 363.623C116.099 363.844 116.096 363.971 116.096 364.004C116.096 364.284 116.164 364.469 116.301 364.561C116.438 364.652 116.815 364.697 117.434 364.697L117.414 365H116.779C116.682 365 116.278 365.003 115.568 365.01C114.865 365.016 114.504 365.02 114.484 365.02C114.465 365.02 114.322 365.052 114.055 365.117C113.99 365.117 113.957 365.072 113.957 364.98C113.957 364.915 114.009 364.87 114.113 364.844C114.361 364.785 114.543 364.681 114.66 364.531C114.784 364.382 114.865 364.128 114.904 363.77C114.95 363.411 114.973 362.822 114.973 362.002C114.973 360.706 114.868 359.782 114.66 359.229C114.452 358.675 113.977 358.398 113.234 358.398C112.85 358.398 112.427 358.47 111.965 358.613C111.503 358.757 111.161 358.887 110.939 359.004C110.939 359.186 110.926 359.492 110.9 359.922L110.812 362.275C110.812 362.425 110.809 362.562 110.803 362.686C110.803 362.809 110.799 362.946 110.793 363.096C110.793 363.727 110.835 364.134 110.92 364.316C110.952 364.427 111.031 364.505 111.154 364.551C111.278 364.59 111.607 364.632 112.141 364.678V365.02C111.926 364.993 111.47 364.98 110.773 364.98C110.051 364.98 109.273 365.013 108.439 365.078L108.459 364.756C108.876 364.671 109.149 364.59 109.279 364.512C109.416 364.427 109.507 364.271 109.553 364.043C109.605 363.815 109.641 363.389 109.66 362.764C109.68 361.742 109.706 360.866 109.738 360.137L109.777 357.402C109.79 357.122 109.797 356.501 109.797 355.537C109.797 354.658 109.758 354.01 109.68 353.594C109.608 353.171 109.426 352.959 109.133 352.959C109.087 352.959 108.882 353.011 108.518 353.115ZM124.455 359.922L119.572 360.977C119.605 361.589 119.663 362.064 119.748 362.402C119.839 362.734 120.015 363.073 120.275 363.418C120.777 364.076 121.382 364.404 122.092 364.404C122.385 364.404 122.697 364.349 123.029 364.238C123.361 364.128 123.729 363.929 124.133 363.643L124.309 363.877C123.176 364.691 122.17 365.098 121.291 365.098C120.36 365.098 119.634 364.746 119.113 364.043C118.592 363.34 118.332 362.533 118.332 361.621C118.332 360.69 118.531 359.919 118.928 359.307C119.325 358.688 119.771 358.239 120.266 357.959C120.76 357.679 121.135 357.539 121.389 357.539C121.682 357.539 121.984 357.588 122.297 357.686C122.616 357.777 122.925 357.956 123.225 358.223C123.531 358.49 123.785 358.854 123.986 359.316C124.045 359.414 124.1 359.479 124.152 359.512C124.204 359.544 124.299 359.561 124.436 359.561L124.455 359.922ZM119.592 360.596L120.871 360.322C120.923 360.296 121.118 360.244 121.457 360.166C121.802 360.088 122.033 360.039 122.15 360.02C122.489 359.941 122.704 359.886 122.795 359.854C122.886 359.821 122.932 359.769 122.932 359.697C122.932 359.593 122.854 359.417 122.697 359.17C122.541 358.916 122.316 358.685 122.023 358.477C121.737 358.268 121.398 358.164 121.008 358.164C120.52 358.164 120.171 358.421 119.963 358.936C119.761 359.45 119.637 360.003 119.592 360.596ZM136.76 363.779L136.896 364.062C136.031 364.779 135.139 365.137 134.221 365.137C133.693 365.137 133.146 365.029 132.58 364.814C132.02 364.593 131.581 364.31 131.262 363.965C131.06 363.724 130.9 363.389 130.783 362.959C130.673 362.523 130.617 362.103 130.617 361.699C130.617 360.885 130.835 360.146 131.271 359.482C131.708 358.812 132.242 358.291 132.873 357.92C133.511 357.549 134.107 357.363 134.66 357.363C134.992 357.363 135.454 357.458 136.047 357.646C136.639 357.829 136.936 358.001 136.936 358.164C136.936 358.229 136.844 358.398 136.662 358.672C136.48 358.945 136.333 359.082 136.223 359.082C136.171 359.082 136.096 359.056 135.998 359.004C135.907 358.952 135.747 358.864 135.52 358.74C134.81 358.447 134.224 358.301 133.762 358.301C133.104 358.301 132.609 358.516 132.277 358.945C131.945 359.375 131.779 360.02 131.779 360.879C131.779 361.667 131.952 362.331 132.297 362.871C132.642 363.411 133.055 363.805 133.537 364.053C134.025 364.3 134.471 364.424 134.875 364.424C135.214 364.424 135.526 364.365 135.812 364.248C136.105 364.131 136.421 363.975 136.76 363.779ZM139.66 359.238L138.459 359.775C138.407 359.567 138.381 359.414 138.381 359.316C138.381 358.984 138.583 358.678 138.986 358.398C139.396 358.112 139.855 357.881 140.363 357.705C140.878 357.529 141.236 357.441 141.438 357.441C141.613 357.441 141.831 357.52 142.092 357.676C142.352 357.832 142.561 357.988 142.717 358.145C142.854 358.275 142.958 358.405 143.029 358.535C143.107 358.659 143.176 358.857 143.234 359.131C143.293 359.404 143.322 359.753 143.322 360.176C143.322 360.299 143.306 360.736 143.273 361.484L143.234 362.217C143.208 362.568 143.195 362.848 143.195 363.057C143.195 363.324 143.231 363.61 143.303 363.916C143.368 364.229 143.514 364.385 143.742 364.385C143.996 364.385 144.335 364.29 144.758 364.102V364.502L143.322 365.078C143.036 365.176 142.873 365.225 142.834 365.225C142.684 365.225 142.535 365.127 142.385 364.932C142.242 364.73 142.124 364.492 142.033 364.219C140.829 364.889 139.904 365.225 139.26 365.225C138.863 365.225 138.563 365.111 138.361 364.883C138.16 364.648 138.059 364.3 138.059 363.838C138.059 363.395 138.111 363.066 138.215 362.852C138.326 362.637 138.501 362.467 138.742 362.344C139.23 362.096 139.748 361.914 140.295 361.797C140.842 361.673 141.415 361.569 142.014 361.484L142.062 360.283V359.961C142.062 359.408 141.903 358.971 141.584 358.652C141.271 358.327 140.904 358.164 140.48 358.164C140.279 358.164 140.074 358.223 139.865 358.34C139.663 358.451 139.562 358.61 139.562 358.818C139.562 358.923 139.595 359.062 139.66 359.238ZM141.975 363.857C141.955 363.643 141.975 363.031 142.033 362.021C141.174 361.963 140.484 362.067 139.963 362.334C139.442 362.601 139.182 362.936 139.182 363.34C139.182 363.633 139.26 363.91 139.416 364.17C139.579 364.43 139.8 364.561 140.08 364.561C140.393 364.561 141.024 364.326 141.975 363.857ZM145.236 365.02L145.256 364.736C145.581 364.671 145.806 364.606 145.93 364.541C146.053 364.476 146.161 364.323 146.252 364.082C146.343 363.841 146.402 363.48 146.428 362.998C146.46 362.516 146.477 361.777 146.477 360.781C146.477 359.993 146.434 359.469 146.35 359.209C146.265 358.949 146.053 358.818 145.715 358.818C145.513 358.818 145.308 358.844 145.1 358.896L145.139 358.584L147.658 357.119C147.684 357.523 147.697 358.076 147.697 358.779L148.742 358.184C148.794 358.151 148.84 358.122 148.879 358.096C148.951 358.057 149.032 358.011 149.123 357.959C149.214 357.9 149.37 357.806 149.592 357.676C149.813 357.539 149.989 357.428 150.119 357.344L150.197 357.383C150.236 357.422 150.282 357.454 150.334 357.48C150.529 357.572 150.682 357.676 150.793 357.793C150.904 357.91 150.959 358.079 150.959 358.301C150.959 358.555 150.855 358.763 150.646 358.926C150.438 359.089 150.188 359.186 149.895 359.219C149.895 358.997 149.842 358.828 149.738 358.711C149.634 358.594 149.488 358.535 149.299 358.535C149.104 358.535 148.872 358.607 148.605 358.75C148.339 358.887 148.137 359.017 148 359.141C147.837 359.284 147.74 359.404 147.707 359.502C147.681 359.593 147.665 359.824 147.658 360.195C147.619 361.296 147.6 361.878 147.6 361.943C147.6 363.213 147.665 363.997 147.795 364.297C147.854 364.401 147.919 364.466 147.99 364.492C148.062 364.512 148.186 364.521 148.361 364.521L148.615 364.502L149.777 364.482L149.758 364.883C149.725 364.883 149.52 364.889 149.143 364.902C148.765 364.915 148.511 364.922 148.381 364.922L145.236 365.02ZM157.404 355.703V354.336C157.359 353.9 157.316 353.6 157.277 353.438C157.245 353.268 157.189 353.158 157.111 353.105C157.04 353.047 156.923 353.018 156.76 353.018C156.584 353.018 156.366 353.05 156.105 353.115L156.086 352.822C157.284 352.327 158.143 351.895 158.664 351.523L158.898 351.621C158.827 351.934 158.765 352.477 158.713 353.252C158.661 354.027 158.609 354.954 158.557 356.035L158.518 357.002L158.439 360.938V361.885C158.439 362.816 158.469 363.516 158.527 363.984C158.592 364.447 158.684 364.678 158.801 364.678C158.872 364.678 159.022 364.645 159.25 364.58C159.484 364.515 159.729 364.44 159.982 364.355V364.717C158.452 365.251 157.626 365.518 157.502 365.518C157.404 365.518 157.329 365.384 157.277 365.117C157.225 364.857 157.199 364.463 157.199 363.936C156.496 364.307 155.936 364.57 155.52 364.727C155.103 364.883 154.663 364.961 154.201 364.961C153.719 364.961 153.247 364.837 152.785 364.59C152.323 364.336 151.942 363.968 151.643 363.486C151.35 363.005 151.203 362.448 151.203 361.816C151.203 360.951 151.395 360.228 151.779 359.648C152.17 359.062 152.616 358.623 153.117 358.33C153.625 358.031 154.107 357.819 154.562 357.695C155.025 357.565 155.324 357.5 155.461 357.5C155.663 357.5 155.92 357.526 156.232 357.578C156.545 357.63 156.916 357.712 157.346 357.822C157.385 357.1 157.404 356.393 157.404 355.703ZM157.199 362.48L157.258 359.141C157.258 358.991 157.144 358.857 156.916 358.74C156.695 358.617 156.447 358.522 156.174 358.457C155.907 358.392 155.611 358.337 155.285 358.291C154.96 358.245 154.771 358.223 154.719 358.223C154.302 358.223 153.905 358.333 153.527 358.555C153.156 358.77 152.857 359.066 152.629 359.443C152.408 359.821 152.297 360.241 152.297 360.703C152.297 361.419 152.427 362.038 152.688 362.559C152.948 363.079 153.299 363.477 153.742 363.75C154.191 364.023 154.683 364.16 155.217 364.16C155.594 364.16 155.936 364.095 156.242 363.965C156.555 363.828 156.874 363.659 157.199 363.457C157.193 363.411 157.189 363.285 157.189 363.076C157.196 362.868 157.199 362.669 157.199 362.48ZM171.896 355.703V354.336C171.851 353.9 171.809 353.6 171.77 353.438C171.737 353.268 171.682 353.158 171.604 353.105C171.532 353.047 171.415 353.018 171.252 353.018C171.076 353.018 170.858 353.05 170.598 353.115L170.578 352.822C171.776 352.327 172.635 351.895 173.156 351.523L173.391 351.621C173.319 351.934 173.257 352.477 173.205 353.252C173.153 354.027 173.101 354.954 173.049 356.035L173.01 357.002L172.932 360.938V361.885C172.932 362.816 172.961 363.516 173.02 363.984C173.085 364.447 173.176 364.678 173.293 364.678C173.365 364.678 173.514 364.645 173.742 364.58C173.977 364.515 174.221 364.44 174.475 364.355V364.717C172.945 365.251 172.118 365.518 171.994 365.518C171.896 365.518 171.822 365.384 171.77 365.117C171.717 364.857 171.691 364.463 171.691 363.936C170.988 364.307 170.428 364.57 170.012 364.727C169.595 364.883 169.156 364.961 168.693 364.961C168.212 364.961 167.74 364.837 167.277 364.59C166.815 364.336 166.434 363.968 166.135 363.486C165.842 363.005 165.695 362.448 165.695 361.816C165.695 360.951 165.887 360.228 166.271 359.648C166.662 359.062 167.108 358.623 167.609 358.33C168.117 358.031 168.599 357.819 169.055 357.695C169.517 357.565 169.816 357.5 169.953 357.5C170.155 357.5 170.412 357.526 170.725 357.578C171.037 357.63 171.408 357.712 171.838 357.822C171.877 357.1 171.896 356.393 171.896 355.703ZM171.691 362.48L171.75 359.141C171.75 358.991 171.636 358.857 171.408 358.74C171.187 358.617 170.939 358.522 170.666 358.457C170.399 358.392 170.103 358.337 169.777 358.291C169.452 358.245 169.263 358.223 169.211 358.223C168.794 358.223 168.397 358.333 168.02 358.555C167.648 358.77 167.349 359.066 167.121 359.443C166.9 359.821 166.789 360.241 166.789 360.703C166.789 361.419 166.919 362.038 167.18 362.559C167.44 363.079 167.792 363.477 168.234 363.75C168.684 364.023 169.175 364.16 169.709 364.16C170.087 364.16 170.428 364.095 170.734 363.965C171.047 363.828 171.366 363.659 171.691 363.457C171.685 363.411 171.682 363.285 171.682 363.076C171.688 362.868 171.691 362.669 171.691 362.48ZM175.285 361.338C175.285 360.765 175.389 360.247 175.598 359.785C175.812 359.316 176.105 358.913 176.477 358.574C176.848 358.236 177.281 357.975 177.775 357.793C178.27 357.611 178.801 357.52 179.367 357.52C179.882 357.52 180.367 357.614 180.822 357.803C181.285 357.992 181.688 358.252 182.033 358.584C182.378 358.916 182.648 359.31 182.844 359.766C183.046 360.215 183.146 360.7 183.146 361.221C183.146 361.898 182.984 362.533 182.658 363.125C182.339 363.717 181.883 364.196 181.291 364.561C180.705 364.919 180.028 365.098 179.26 365.098C178.68 365.098 178.081 364.971 177.463 364.717C176.851 364.463 176.333 364.056 175.91 363.496C175.493 362.93 175.285 362.21 175.285 361.338ZM176.564 360.801C176.564 361.406 176.685 362.008 176.926 362.607C177.167 363.206 177.502 363.698 177.932 364.082C178.368 364.466 178.846 364.658 179.367 364.658C179.823 364.658 180.236 364.535 180.607 364.287C180.979 364.033 181.275 363.675 181.496 363.213C181.717 362.751 181.828 362.227 181.828 361.641C181.828 361.048 181.698 360.472 181.438 359.912C181.184 359.346 180.829 358.887 180.373 358.535C179.924 358.177 179.426 357.998 178.879 357.998C178.436 357.998 178.039 358.118 177.688 358.359C177.336 358.6 177.059 358.936 176.857 359.365C176.662 359.795 176.564 360.273 176.564 360.801ZM191.223 359.238L190.021 359.775C189.969 359.567 189.943 359.414 189.943 359.316C189.943 358.984 190.145 358.678 190.549 358.398C190.959 358.112 191.418 357.881 191.926 357.705C192.44 357.529 192.798 357.441 193 357.441C193.176 357.441 193.394 357.52 193.654 357.676C193.915 357.832 194.123 357.988 194.279 358.145C194.416 358.275 194.52 358.405 194.592 358.535C194.67 358.659 194.738 358.857 194.797 359.131C194.855 359.404 194.885 359.753 194.885 360.176C194.885 360.299 194.868 360.736 194.836 361.484L194.797 362.217C194.771 362.568 194.758 362.848 194.758 363.057C194.758 363.324 194.794 363.61 194.865 363.916C194.93 364.229 195.077 364.385 195.305 364.385C195.559 364.385 195.897 364.29 196.32 364.102V364.502L194.885 365.078C194.598 365.176 194.436 365.225 194.396 365.225C194.247 365.225 194.097 365.127 193.947 364.932C193.804 364.73 193.687 364.492 193.596 364.219C192.391 364.889 191.467 365.225 190.822 365.225C190.425 365.225 190.126 365.111 189.924 364.883C189.722 364.648 189.621 364.3 189.621 363.838C189.621 363.395 189.673 363.066 189.777 362.852C189.888 362.637 190.064 362.467 190.305 362.344C190.793 362.096 191.311 361.914 191.857 361.797C192.404 361.673 192.977 361.569 193.576 361.484L193.625 360.283V359.961C193.625 359.408 193.465 358.971 193.146 358.652C192.834 358.327 192.466 358.164 192.043 358.164C191.841 358.164 191.636 358.223 191.428 358.34C191.226 358.451 191.125 358.61 191.125 358.818C191.125 358.923 191.158 359.062 191.223 359.238ZM193.537 363.857C193.518 363.643 193.537 363.031 193.596 362.021C192.736 361.963 192.046 362.067 191.525 362.334C191.005 362.601 190.744 362.936 190.744 363.34C190.744 363.633 190.822 363.91 190.979 364.17C191.141 364.43 191.363 364.561 191.643 364.561C191.955 364.561 192.587 364.326 193.537 363.857ZM196.584 365.039V364.736C197.072 364.652 197.417 364.505 197.619 364.297C197.821 364.089 197.948 363.77 198 363.34C198.033 363.118 198.068 362.611 198.107 361.816C198.146 361.016 198.182 360.101 198.215 359.072C198.247 358.044 198.264 357.119 198.264 356.299C198.264 354.58 198.176 353.6 198 353.359C197.889 353.197 197.668 353.115 197.336 353.115C197.258 353.115 197.196 353.118 197.15 353.125C197.105 353.132 197.062 353.138 197.023 353.145C196.984 353.151 196.942 353.158 196.896 353.164V352.861C198.14 352.34 199.016 351.901 199.523 351.543H199.816C199.615 352.311 199.488 353.704 199.436 355.723L199.357 360.42C199.357 362.62 199.406 363.867 199.504 364.16C199.562 364.329 199.758 364.46 200.09 364.551C200.422 364.635 200.718 364.691 200.979 364.717V365.078C199.702 364.987 198.843 364.941 198.4 364.941C197.808 364.941 197.202 364.974 196.584 365.039ZM201.389 365.039V364.736C201.877 364.652 202.222 364.505 202.424 364.297C202.626 364.089 202.753 363.77 202.805 363.34C202.837 363.118 202.873 362.611 202.912 361.816C202.951 361.016 202.987 360.101 203.02 359.072C203.052 358.044 203.068 357.119 203.068 356.299C203.068 354.58 202.98 353.6 202.805 353.359C202.694 353.197 202.473 353.115 202.141 353.115C202.062 353.115 202.001 353.118 201.955 353.125C201.91 353.132 201.867 353.138 201.828 353.145C201.789 353.151 201.747 353.158 201.701 353.164V352.861C202.945 352.34 203.82 351.901 204.328 351.543H204.621C204.419 352.311 204.292 353.704 204.24 355.723L204.162 360.42C204.162 362.62 204.211 363.867 204.309 364.16C204.367 364.329 204.562 364.46 204.895 364.551C205.227 364.635 205.523 364.691 205.783 364.717V365.078C204.507 364.987 203.648 364.941 203.205 364.941C202.613 364.941 202.007 364.974 201.389 365.039ZM211.311 365.02L211.33 364.736C211.656 364.671 211.88 364.606 212.004 364.541C212.128 364.476 212.235 364.323 212.326 364.082C212.417 363.841 212.476 363.48 212.502 362.998C212.535 362.516 212.551 361.777 212.551 360.781C212.551 359.993 212.508 359.469 212.424 359.209C212.339 358.949 212.128 358.818 211.789 358.818C211.587 358.818 211.382 358.844 211.174 358.896L211.213 358.584L213.732 357.119C213.758 357.523 213.771 358.076 213.771 358.779L214.816 358.184C214.868 358.151 214.914 358.122 214.953 358.096C215.025 358.057 215.106 358.011 215.197 357.959C215.288 357.9 215.445 357.806 215.666 357.676C215.887 357.539 216.063 357.428 216.193 357.344L216.271 357.383C216.311 357.422 216.356 357.454 216.408 357.48C216.604 357.572 216.757 357.676 216.867 357.793C216.978 357.91 217.033 358.079 217.033 358.301C217.033 358.555 216.929 358.763 216.721 358.926C216.512 359.089 216.262 359.186 215.969 359.219C215.969 358.997 215.917 358.828 215.812 358.711C215.708 358.594 215.562 358.535 215.373 358.535C215.178 358.535 214.947 358.607 214.68 358.75C214.413 358.887 214.211 359.017 214.074 359.141C213.911 359.284 213.814 359.404 213.781 359.502C213.755 359.593 213.739 359.824 213.732 360.195C213.693 361.296 213.674 361.878 213.674 361.943C213.674 363.213 213.739 363.997 213.869 364.297C213.928 364.401 213.993 364.466 214.064 364.492C214.136 364.512 214.26 364.521 214.436 364.521L214.689 364.502L215.852 364.482L215.832 364.883C215.799 364.883 215.594 364.889 215.217 364.902C214.839 364.915 214.585 364.922 214.455 364.922L211.311 365.02ZM223.713 359.922L218.83 360.977C218.863 361.589 218.921 362.064 219.006 362.402C219.097 362.734 219.273 363.073 219.533 363.418C220.035 364.076 220.64 364.404 221.35 364.404C221.643 364.404 221.955 364.349 222.287 364.238C222.619 364.128 222.987 363.929 223.391 363.643L223.566 363.877C222.434 364.691 221.428 365.098 220.549 365.098C219.618 365.098 218.892 364.746 218.371 364.043C217.85 363.34 217.59 362.533 217.59 361.621C217.59 360.69 217.788 359.919 218.186 359.307C218.583 358.688 219.029 358.239 219.523 357.959C220.018 357.679 220.393 357.539 220.646 357.539C220.939 357.539 221.242 357.588 221.555 357.686C221.874 357.777 222.183 357.956 222.482 358.223C222.788 358.49 223.042 358.854 223.244 359.316C223.303 359.414 223.358 359.479 223.41 359.512C223.462 359.544 223.557 359.561 223.693 359.561L223.713 359.922ZM218.85 360.596L220.129 360.322C220.181 360.296 220.376 360.244 220.715 360.166C221.06 360.088 221.291 360.039 221.408 360.02C221.747 359.941 221.962 359.886 222.053 359.854C222.144 359.821 222.189 359.769 222.189 359.697C222.189 359.593 222.111 359.417 221.955 359.17C221.799 358.916 221.574 358.685 221.281 358.477C220.995 358.268 220.656 358.164 220.266 358.164C219.777 358.164 219.429 358.421 219.221 358.936C219.019 359.45 218.895 360.003 218.85 360.596ZM224.65 362.803L224.992 362.822C224.992 362.946 225.096 363.148 225.305 363.428C225.52 363.708 225.806 363.962 226.164 364.189C226.522 364.411 226.913 364.521 227.336 364.521C227.642 364.521 227.948 364.456 228.254 364.326C228.56 364.196 228.713 363.913 228.713 363.477C228.713 363.021 228.553 362.653 228.234 362.373C227.915 362.1 227.554 361.862 227.15 361.66L226.418 361.318C225.988 361.097 225.646 360.863 225.393 360.615C225.139 360.374 225.012 360.062 225.012 359.678C225.012 359.378 225.119 359.066 225.334 358.74C225.549 358.408 225.858 358.135 226.262 357.92C226.672 357.705 227.134 357.598 227.648 357.598C227.961 357.598 228.482 357.646 229.211 357.744L229.533 359.404H229.191C229.133 359.176 228.996 358.962 228.781 358.76C228.573 358.551 228.326 358.376 228.039 358.232C227.759 358.089 227.518 358.018 227.316 358.018C226.971 358.018 226.691 358.125 226.477 358.34C226.262 358.555 226.154 358.828 226.154 359.16C226.154 359.427 226.232 359.639 226.389 359.795C226.545 359.958 226.841 360.146 227.277 360.361L227.873 360.645C228.413 360.898 228.876 361.195 229.26 361.533C229.644 361.878 229.836 362.354 229.836 362.959C229.836 363.187 229.787 363.431 229.689 363.691C229.598 363.945 229.458 364.128 229.27 364.238C228.729 364.583 228.283 364.808 227.932 364.912C227.58 365.01 227.222 365.059 226.857 365.059C226.727 365.059 226.542 365.042 226.301 365.01C226.06 364.977 225.891 364.951 225.793 364.932C225.695 364.912 225.526 364.867 225.285 364.795C225.044 364.723 224.888 364.678 224.816 364.658C224.868 364.398 224.895 364.212 224.895 364.102C224.895 363.939 224.865 363.717 224.807 363.438C224.755 363.151 224.702 362.939 224.65 362.803ZM231.994 362.197L232.043 358.398C231.743 358.359 231.395 358.34 230.998 358.34C231.011 358.288 231.018 358.206 231.018 358.096C231.584 357.751 232.027 357.422 232.346 357.109C232.665 356.797 233.042 356.354 233.479 355.781L233.381 357.539C233.941 357.591 234.553 357.617 235.217 357.617C235.536 357.617 235.884 357.611 236.262 357.598L236.242 358.203C235.904 358.242 235.555 358.262 235.197 358.262C235.165 358.262 235.038 358.258 234.816 358.252C234.595 358.239 234.25 358.223 233.781 358.203C233.658 358.203 233.563 358.216 233.498 358.242C233.439 358.262 233.397 358.304 233.371 358.369C233.352 358.434 233.335 358.558 233.322 358.74C233.316 358.923 233.309 359.115 233.303 359.316L233.254 362.363C233.241 362.949 233.306 363.434 233.449 363.818C233.599 364.196 233.954 364.385 234.514 364.385C234.729 364.385 234.992 364.339 235.305 364.248C235.624 364.15 235.988 364.007 236.398 363.818C236.411 363.87 236.418 363.91 236.418 363.936C236.424 363.962 236.431 363.991 236.438 364.023C236.21 364.271 235.79 364.515 235.178 364.756C234.572 364.997 234.025 365.117 233.537 365.117C233.114 365.117 232.749 364.974 232.443 364.688C232.144 364.395 231.994 363.893 231.994 363.184V362.197ZM242.082 361.338C242.082 360.765 242.186 360.247 242.395 359.785C242.609 359.316 242.902 358.913 243.273 358.574C243.645 358.236 244.077 357.975 244.572 357.793C245.067 357.611 245.598 357.52 246.164 357.52C246.678 357.52 247.163 357.614 247.619 357.803C248.081 357.992 248.485 358.252 248.83 358.584C249.175 358.916 249.445 359.31 249.641 359.766C249.842 360.215 249.943 360.7 249.943 361.221C249.943 361.898 249.781 362.533 249.455 363.125C249.136 363.717 248.68 364.196 248.088 364.561C247.502 364.919 246.825 365.098 246.057 365.098C245.477 365.098 244.878 364.971 244.26 364.717C243.648 364.463 243.13 364.056 242.707 363.496C242.29 362.93 242.082 362.21 242.082 361.338ZM243.361 360.801C243.361 361.406 243.482 362.008 243.723 362.607C243.964 363.206 244.299 363.698 244.729 364.082C245.165 364.466 245.643 364.658 246.164 364.658C246.62 364.658 247.033 364.535 247.404 364.287C247.775 364.033 248.072 363.675 248.293 363.213C248.514 362.751 248.625 362.227 248.625 361.641C248.625 361.048 248.495 360.472 248.234 359.912C247.98 359.346 247.626 358.887 247.17 358.535C246.721 358.177 246.223 357.998 245.676 357.998C245.233 357.998 244.836 358.118 244.484 358.359C244.133 358.6 243.856 358.936 243.654 359.365C243.459 359.795 243.361 360.273 243.361 360.801ZM251.398 358.242V357.656L252.697 357.637C252.704 356.504 252.801 355.605 252.99 354.941C253.179 354.277 253.452 353.737 253.811 353.32C254.097 352.988 254.455 352.686 254.885 352.412C255.314 352.132 255.741 351.917 256.164 351.768C256.587 351.618 256.939 351.543 257.219 351.543C257.596 351.543 257.971 351.611 258.342 351.748C258.713 351.878 258.898 352.035 258.898 352.217C258.898 352.321 258.827 352.477 258.684 352.686C258.54 352.894 258.404 352.998 258.273 352.998L257.492 352.725C256.945 352.523 256.512 352.422 256.193 352.422C255.679 352.422 255.266 352.572 254.953 352.871C254.641 353.171 254.403 353.701 254.24 354.463C254.077 355.225 253.983 356.283 253.957 357.637H256.613V358.262L253.957 358.281L253.918 361.064C253.918 362.184 253.928 363.008 253.947 363.535C253.967 364.062 254.022 364.372 254.113 364.463C254.172 364.508 254.27 364.538 254.406 364.551C254.543 364.564 254.94 364.58 255.598 364.6V364.98C255.214 364.967 254.559 364.958 253.635 364.951C252.717 364.945 251.949 364.941 251.33 364.941V364.619C251.675 364.6 251.932 364.557 252.102 364.492C252.277 364.421 252.404 364.3 252.482 364.131C252.567 363.955 252.619 363.708 252.639 363.389C252.665 363.063 252.678 362.607 252.678 362.021L252.697 358.76C252.697 358.525 252.671 358.392 252.619 358.359C252.495 358.281 252.089 358.242 251.398 358.242ZM74.416 385.197L74.4648 381.398C74.1654 381.359 73.8171 381.34 73.4199 381.34C73.4329 381.288 73.4395 381.206 73.4395 381.096C74.0059 380.751 74.4486 380.422 74.7676 380.109C75.0866 379.797 75.4642 379.354 75.9004 378.781L75.8027 380.539C76.3626 380.591 76.9746 380.617 77.6387 380.617C77.9577 380.617 78.306 380.611 78.6836 380.598L78.6641 381.203C78.3255 381.242 77.9772 381.262 77.6191 381.262C77.5866 381.262 77.4596 381.258 77.2383 381.252C77.0169 381.239 76.6719 381.223 76.2031 381.203C76.0794 381.203 75.985 381.216 75.9199 381.242C75.8613 381.262 75.819 381.304 75.793 381.369C75.7734 381.434 75.7572 381.558 75.7441 381.74C75.7376 381.923 75.7311 382.115 75.7246 382.316L75.6758 385.363C75.6628 385.949 75.7279 386.434 75.8711 386.818C76.0208 387.196 76.3757 387.385 76.9355 387.385C77.1504 387.385 77.4141 387.339 77.7266 387.248C78.0456 387.15 78.4102 387.007 78.8203 386.818C78.8333 386.87 78.8398 386.91 78.8398 386.936C78.8464 386.962 78.8529 386.991 78.8594 387.023C78.6315 387.271 78.2116 387.515 77.5996 387.756C76.9941 387.997 76.4473 388.117 75.959 388.117C75.5358 388.117 75.1712 387.974 74.8652 387.688C74.5658 387.395 74.416 386.893 74.416 386.184V385.197ZM79.2012 376.115V375.744C79.3444 375.673 79.4388 375.624 79.4844 375.598L81.3789 374.68L81.7012 374.504L82.0234 374.66C81.8997 375.246 81.8118 375.923 81.7598 376.691C81.7077 377.453 81.6686 378.423 81.6426 379.602L81.584 381.584C82.3522 381.252 82.974 381.008 83.4492 380.852C83.931 380.695 84.3932 380.617 84.8359 380.617C85.4609 380.617 85.9167 380.809 86.2031 381.193C86.4896 381.571 86.6654 382.036 86.7305 382.59C86.8021 383.137 86.8379 383.859 86.8379 384.758C86.8379 384.934 86.8346 385.096 86.8281 385.246C86.8281 385.396 86.8249 385.607 86.8184 385.881C86.8118 386.148 86.8021 386.395 86.7891 386.623C86.7826 386.844 86.7793 386.971 86.7793 387.004C86.7793 387.284 86.8477 387.469 86.9844 387.561C87.1211 387.652 87.4987 387.697 88.1172 387.697L88.0977 388H87.4629C87.3652 388 86.9616 388.003 86.252 388.01C85.5488 388.016 85.1875 388.02 85.168 388.02C85.1484 388.02 85.0052 388.052 84.7383 388.117C84.6732 388.117 84.6406 388.072 84.6406 387.98C84.6406 387.915 84.6927 387.87 84.7969 387.844C85.0443 387.785 85.2266 387.681 85.3438 387.531C85.4674 387.382 85.5488 387.128 85.5879 386.77C85.6335 386.411 85.6562 385.822 85.6562 385.002C85.6562 383.706 85.5521 382.782 85.3438 382.229C85.1354 381.675 84.6602 381.398 83.918 381.398C83.5339 381.398 83.1107 381.47 82.6484 381.613C82.1862 381.757 81.8444 381.887 81.623 382.004C81.623 382.186 81.61 382.492 81.584 382.922L81.4961 385.275C81.4961 385.425 81.4928 385.562 81.4863 385.686C81.4863 385.809 81.4831 385.946 81.4766 386.096C81.4766 386.727 81.5189 387.134 81.6035 387.316C81.6361 387.427 81.7142 387.505 81.8379 387.551C81.9616 387.59 82.2904 387.632 82.8242 387.678V388.02C82.6094 387.993 82.1536 387.98 81.457 387.98C80.7344 387.98 79.9564 388.013 79.123 388.078L79.1426 387.756C79.5592 387.671 79.8327 387.59 79.9629 387.512C80.0996 387.427 80.1908 387.271 80.2363 387.043C80.2884 386.815 80.3242 386.389 80.3438 385.764C80.3633 384.742 80.3893 383.866 80.4219 383.137L80.4609 380.402C80.474 380.122 80.4805 379.501 80.4805 378.537C80.4805 377.658 80.4414 377.01 80.3633 376.594C80.2917 376.171 80.1094 375.959 79.8164 375.959C79.7708 375.959 79.5658 376.011 79.2012 376.115ZM95.1387 382.922L90.2559 383.977C90.2884 384.589 90.347 385.064 90.4316 385.402C90.5228 385.734 90.6986 386.073 90.959 386.418C91.4603 387.076 92.0658 387.404 92.7754 387.404C93.0684 387.404 93.3809 387.349 93.7129 387.238C94.0449 387.128 94.4128 386.929 94.8164 386.643L94.9922 386.877C93.8594 387.691 92.8535 388.098 91.9746 388.098C91.0436 388.098 90.3177 387.746 89.7969 387.043C89.276 386.34 89.0156 385.533 89.0156 384.621C89.0156 383.69 89.2142 382.919 89.6113 382.307C90.0085 381.688 90.4544 381.239 90.9492 380.959C91.444 380.679 91.8184 380.539 92.0723 380.539C92.3652 380.539 92.668 380.588 92.9805 380.686C93.2995 380.777 93.6087 380.956 93.9082 381.223C94.2142 381.49 94.4681 381.854 94.6699 382.316C94.7285 382.414 94.7839 382.479 94.8359 382.512C94.888 382.544 94.9824 382.561 95.1191 382.561L95.1387 382.922ZM90.2754 383.596L91.5547 383.322C91.6068 383.296 91.8021 383.244 92.1406 383.166C92.4857 383.088 92.7168 383.039 92.834 383.02C93.1725 382.941 93.3874 382.886 93.4785 382.854C93.5697 382.821 93.6152 382.769 93.6152 382.697C93.6152 382.593 93.5371 382.417 93.3809 382.17C93.2246 381.916 93 381.685 92.707 381.477C92.4206 381.268 92.082 381.164 91.6914 381.164C91.2031 381.164 90.8548 381.421 90.6465 381.936C90.4447 382.45 90.321 383.003 90.2754 383.596ZM100.725 388.02L100.744 387.717C101.135 387.626 101.418 387.512 101.594 387.375C101.77 387.238 101.896 386.949 101.975 386.506C102.059 386.063 102.102 385.389 102.102 384.484C102.102 383.605 102.056 382.98 101.965 382.609C101.88 382.238 101.75 382.007 101.574 381.916C101.405 381.825 101.122 381.773 100.725 381.76V381.438C101.421 381.275 102.134 380.975 102.863 380.539C102.941 380.487 103.007 380.461 103.059 380.461C103.189 380.461 103.267 380.63 103.293 380.969C103.326 381.307 103.329 381.604 103.303 381.857C103.439 381.779 103.68 381.649 104.025 381.467C104.377 381.278 104.65 381.138 104.846 381.047C105.048 380.949 105.305 380.852 105.617 380.754C105.93 380.65 106.203 380.598 106.438 380.598C106.776 380.598 107.108 380.695 107.434 380.891C107.766 381.079 107.993 381.395 108.117 381.838C109.322 381.2 110.363 380.881 111.242 380.881C111.867 380.881 112.323 381.021 112.609 381.301C112.896 381.581 113.068 381.942 113.127 382.385C113.192 382.821 113.225 383.452 113.225 384.279V386.018C113.205 386.519 113.199 386.864 113.205 387.053C113.212 387.235 113.241 387.355 113.293 387.414C113.352 387.466 113.456 387.502 113.605 387.521C113.658 387.528 113.837 387.564 114.143 387.629C114.455 387.694 114.634 387.73 114.68 387.736L114.543 388H110.842L110.783 387.736C111.187 387.632 111.464 387.518 111.613 387.395C111.763 387.271 111.867 387.007 111.926 386.604C111.991 386.2 112.023 385.493 112.023 384.484C112.023 383.885 111.971 383.378 111.867 382.961C111.77 382.544 111.59 382.225 111.33 382.004C111.07 381.776 110.708 381.662 110.246 381.662C109.66 381.662 108.98 381.841 108.205 382.199C108.238 382.473 108.26 382.945 108.273 383.615C108.286 384.279 108.299 384.966 108.312 385.676C108.326 386.379 108.335 386.835 108.342 387.043C108.355 387.219 108.384 387.342 108.43 387.414C108.475 387.479 108.56 387.528 108.684 387.561C108.814 387.593 109.087 387.639 109.504 387.697V388H108.283C108.173 388 107.762 388.013 107.053 388.039C106.343 388.065 105.92 388.078 105.783 388.078L105.725 387.775C106.154 387.691 106.464 387.58 106.652 387.443C106.841 387.3 106.965 387.053 107.023 386.701C107.089 386.343 107.115 385.738 107.102 384.885L107.082 383.938C107.069 383.137 106.945 382.528 106.711 382.111C106.483 381.688 106.105 381.477 105.578 381.477C105.324 381.477 105.057 381.522 104.777 381.613C104.497 381.704 104.23 381.815 103.977 381.945C103.723 382.069 103.505 382.18 103.322 382.277C103.316 382.388 103.309 382.671 103.303 383.127C103.296 383.576 103.29 383.947 103.283 384.24V385.236C103.296 386.402 103.316 387.036 103.342 387.141C103.368 387.258 103.462 387.365 103.625 387.463C103.788 387.554 104.139 387.639 104.68 387.717V388.059C104.602 388.059 104.322 388.046 103.84 388.02C103.358 387.993 103.072 387.98 102.98 387.98L100.725 388.02ZM117.004 382.238L115.803 382.775C115.751 382.567 115.725 382.414 115.725 382.316C115.725 381.984 115.926 381.678 116.33 381.398C116.74 381.112 117.199 380.881 117.707 380.705C118.221 380.529 118.579 380.441 118.781 380.441C118.957 380.441 119.175 380.52 119.436 380.676C119.696 380.832 119.904 380.988 120.061 381.145C120.197 381.275 120.301 381.405 120.373 381.535C120.451 381.659 120.52 381.857 120.578 382.131C120.637 382.404 120.666 382.753 120.666 383.176C120.666 383.299 120.65 383.736 120.617 384.484L120.578 385.217C120.552 385.568 120.539 385.848 120.539 386.057C120.539 386.324 120.575 386.61 120.646 386.916C120.712 387.229 120.858 387.385 121.086 387.385C121.34 387.385 121.678 387.29 122.102 387.102V387.502L120.666 388.078C120.38 388.176 120.217 388.225 120.178 388.225C120.028 388.225 119.878 388.127 119.729 387.932C119.585 387.73 119.468 387.492 119.377 387.219C118.173 387.889 117.248 388.225 116.604 388.225C116.206 388.225 115.907 388.111 115.705 387.883C115.503 387.648 115.402 387.3 115.402 386.838C115.402 386.395 115.454 386.066 115.559 385.852C115.669 385.637 115.845 385.467 116.086 385.344C116.574 385.096 117.092 384.914 117.639 384.797C118.186 384.673 118.758 384.569 119.357 384.484L119.406 383.283V382.961C119.406 382.408 119.247 381.971 118.928 381.652C118.615 381.327 118.247 381.164 117.824 381.164C117.622 381.164 117.417 381.223 117.209 381.34C117.007 381.451 116.906 381.61 116.906 381.818C116.906 381.923 116.939 382.062 117.004 382.238ZM119.318 386.857C119.299 386.643 119.318 386.031 119.377 385.021C118.518 384.963 117.827 385.067 117.307 385.334C116.786 385.601 116.525 385.936 116.525 386.34C116.525 386.633 116.604 386.91 116.76 387.17C116.923 387.43 117.144 387.561 117.424 387.561C117.736 387.561 118.368 387.326 119.318 386.857ZM125.441 386.721C125.07 386.63 124.693 386.493 124.309 386.311C123.931 386.128 123.589 385.835 123.283 385.432C122.977 385.021 122.824 384.471 122.824 383.781C122.824 383.156 122.99 382.583 123.322 382.062C123.661 381.535 124.097 381.125 124.631 380.832C125.171 380.533 125.721 380.383 126.281 380.383C126.626 380.383 126.949 380.432 127.248 380.529C127.548 380.62 127.824 380.764 128.078 380.959C128.547 380.868 129.042 380.822 129.562 380.822C129.908 380.822 130.142 380.835 130.266 380.861C130.246 381.213 130.158 381.564 130.002 381.916C129.559 381.734 129.094 381.643 128.605 381.643C128.69 381.76 128.775 381.919 128.859 382.121C128.944 382.316 129.012 382.528 129.064 382.756C129.117 382.984 129.143 383.205 129.143 383.42C129.143 384.019 129.009 384.527 128.742 384.943C128.475 385.36 128.143 385.695 127.746 385.949C127.355 386.197 126.854 386.467 126.242 386.76C125.096 387.268 124.523 387.635 124.523 387.863C124.523 388.26 125.002 388.459 125.959 388.459C126.753 388.459 127.372 388.472 127.814 388.498C128.257 388.524 128.648 388.592 128.986 388.703C129.325 388.814 129.589 388.999 129.777 389.26C129.966 389.527 130.061 389.895 130.061 390.363C130.061 390.995 129.813 391.551 129.318 392.033C128.83 392.521 128.202 392.896 127.434 393.156C126.672 393.423 125.907 393.557 125.139 393.557C124.149 393.557 123.462 393.339 123.078 392.902C122.694 392.473 122.502 392.017 122.502 391.535C122.502 390.988 122.668 390.549 123 390.217C123.339 389.885 123.765 389.566 124.279 389.26C123.589 388.882 123.251 388.381 123.264 387.756C123.57 387.521 124.081 387.271 124.797 387.004L125.441 386.721ZM126.486 386.203C126.955 385.956 127.32 385.682 127.58 385.383C127.847 385.083 127.98 384.595 127.98 383.918C127.98 383.534 127.925 383.166 127.814 382.814C127.704 382.456 127.551 382.141 127.355 381.867C127.16 381.594 126.919 381.376 126.633 381.213C126.353 381.044 126.037 380.959 125.686 380.959C125.152 380.959 124.702 381.164 124.338 381.574C123.98 381.978 123.801 382.492 123.801 383.117C123.801 383.996 124.064 384.657 124.592 385.1C125.119 385.542 125.751 385.91 126.486 386.203ZM124.826 389.484C124.423 389.608 124.058 389.813 123.732 390.1C123.407 390.393 123.244 390.725 123.244 391.096C123.244 391.525 123.495 391.913 123.996 392.258C124.497 392.603 125.145 392.775 125.939 392.775C126.389 392.775 126.877 392.707 127.404 392.57C127.932 392.44 128.381 392.229 128.752 391.936C129.13 391.643 129.318 391.285 129.318 390.861C129.318 390.568 129.217 390.292 129.016 390.031C128.807 389.777 128.495 389.634 128.078 389.602C127.987 389.589 127.655 389.585 127.082 389.592C126.516 389.598 126.177 389.602 126.066 389.602C125.487 389.602 125.074 389.562 124.826 389.484ZM131.086 388.039L131.125 387.736C131.678 387.684 131.991 387.587 132.062 387.443C132.095 387.385 132.124 387.154 132.15 386.75C132.176 386.34 132.196 385.855 132.209 385.295C132.229 384.729 132.238 384.41 132.238 384.338C132.238 383.413 132.222 382.821 132.189 382.561C132.163 382.3 132.108 382.121 132.023 382.023C131.997 381.991 131.835 381.958 131.535 381.926C131.236 381.893 131.086 381.851 131.086 381.799C131.086 381.695 131.145 381.63 131.262 381.604C132.036 381.363 132.795 380.936 133.537 380.324C133.583 380.324 133.645 380.337 133.723 380.363C133.658 380.63 133.602 381.021 133.557 381.535C133.511 382.049 133.472 382.59 133.439 383.156C133.413 383.723 133.4 384.224 133.4 384.66C133.4 384.986 133.41 385.454 133.43 386.066C133.456 386.672 133.498 387.082 133.557 387.297C133.609 387.414 133.674 387.489 133.752 387.521C133.83 387.554 133.986 387.58 134.221 387.6C134.449 387.606 134.676 387.626 134.904 387.658L135.021 387.941L131.086 388.039ZM132.561 376.359C132.561 376.138 132.635 375.956 132.785 375.812C132.935 375.669 133.114 375.598 133.322 375.598C133.531 375.598 133.706 375.673 133.85 375.822C133.993 375.972 134.064 376.151 134.064 376.359C134.064 376.568 133.993 376.747 133.85 376.896C133.713 377.046 133.537 377.121 133.322 377.121C133.114 377.121 132.935 377.046 132.785 376.896C132.635 376.747 132.561 376.568 132.561 376.359ZM142.248 386.779L142.385 387.062C141.519 387.779 140.627 388.137 139.709 388.137C139.182 388.137 138.635 388.029 138.068 387.814C137.508 387.593 137.069 387.31 136.75 386.965C136.548 386.724 136.389 386.389 136.271 385.959C136.161 385.523 136.105 385.103 136.105 384.699C136.105 383.885 136.324 383.146 136.76 382.482C137.196 381.812 137.73 381.291 138.361 380.92C138.999 380.549 139.595 380.363 140.148 380.363C140.48 380.363 140.943 380.458 141.535 380.646C142.128 380.829 142.424 381.001 142.424 381.164C142.424 381.229 142.333 381.398 142.15 381.672C141.968 381.945 141.822 382.082 141.711 382.082C141.659 382.082 141.584 382.056 141.486 382.004C141.395 381.952 141.236 381.864 141.008 381.74C140.298 381.447 139.712 381.301 139.25 381.301C138.592 381.301 138.098 381.516 137.766 381.945C137.434 382.375 137.268 383.02 137.268 383.879C137.268 384.667 137.44 385.331 137.785 385.871C138.13 386.411 138.544 386.805 139.025 387.053C139.514 387.3 139.96 387.424 140.363 387.424C140.702 387.424 141.014 387.365 141.301 387.248C141.594 387.131 141.91 386.975 142.248 386.779Z" fill="white"/>
<path d="M68.5215 334.743C68.484 334.84 68.3231 335.394 68.0386 336.405C67.23 336.644 66.4963 336.832 65.8374 336.966C65.1785 337.094 64.4635 337.157 63.6924 337.157C62.764 337.157 61.8356 336.993 60.9072 336.663C59.9788 336.334 59.144 335.847 58.4028 335.203C57.6616 334.552 57.0739 333.762 56.6396 332.833C56.2054 331.898 55.9883 330.834 55.9883 329.644C55.9883 328.012 56.3888 326.634 57.1899 325.511C57.9985 324.388 59.0243 323.561 60.2671 323.029C61.5174 322.498 62.8052 322.232 64.1304 322.232C65.1711 322.232 66.1743 322.415 67.1401 322.782C67.5894 322.924 67.9263 322.996 68.1509 322.996C68.2557 322.973 68.3306 322.958 68.3755 322.951C68.4279 322.943 68.4915 322.936 68.5664 322.928C68.6113 322.928 68.66 322.958 68.7124 323.018L68.5439 323.658C68.3867 324.22 68.2482 324.935 68.1284 325.803C67.9937 325.781 67.9038 325.736 67.8589 325.668C67.814 325.594 67.7915 325.478 67.7915 325.32C67.7765 324.849 67.7129 324.527 67.6006 324.354C67.3984 324.025 66.8931 323.688 66.0845 323.344C65.2759 322.999 64.4635 322.827 63.6475 322.827C62.5693 322.827 61.5923 323.097 60.7163 323.636C59.8478 324.167 59.159 324.95 58.6499 325.983C58.1483 327.016 57.8975 328.229 57.8975 329.622C57.8975 330.902 58.1183 332.006 58.5601 332.935C59.0093 333.855 59.5671 334.585 60.2334 335.125C60.9072 335.664 61.5885 336.053 62.2773 336.292C62.9736 336.532 63.5763 336.652 64.0854 336.652C64.894 336.652 65.5641 336.521 66.0957 336.259C66.6273 335.989 67.0428 335.671 67.3423 335.304C67.6493 334.93 67.945 334.484 68.2295 333.968C68.3418 333.751 68.4391 333.642 68.5215 333.642C68.6637 333.642 68.7349 333.709 68.7349 333.844C68.7349 333.942 68.6637 334.241 68.5215 334.743ZM70.251 332.789C70.251 332.13 70.3708 331.535 70.6104 331.003C70.8574 330.464 71.1943 330 71.6211 329.61C72.0479 329.221 72.5457 328.922 73.1147 328.712C73.6838 328.502 74.2939 328.397 74.9453 328.397C75.5368 328.397 76.0946 328.506 76.6187 328.723C77.1502 328.94 77.6144 329.24 78.0112 329.622C78.408 330.003 78.7188 330.456 78.9434 330.98C79.1755 331.497 79.2915 332.055 79.2915 332.654C79.2915 333.432 79.1043 334.162 78.73 334.844C78.3631 335.525 77.839 336.075 77.1577 336.495C76.4839 336.906 75.7052 337.112 74.8218 337.112C74.1554 337.112 73.4666 336.966 72.7554 336.674C72.0516 336.382 71.4564 335.914 70.9697 335.271C70.4906 334.619 70.251 333.792 70.251 332.789ZM71.7222 332.171C71.7222 332.867 71.8607 333.56 72.1377 334.249C72.4147 334.937 72.8003 335.503 73.2944 335.944C73.7961 336.386 74.3464 336.607 74.9453 336.607C75.4694 336.607 75.9448 336.465 76.3716 336.18C76.7983 335.888 77.139 335.476 77.3936 334.945C77.6481 334.413 77.7754 333.811 77.7754 333.137C77.7754 332.455 77.6257 331.793 77.3262 331.149C77.0342 330.498 76.6261 329.97 76.1021 329.565C75.5854 329.154 75.0127 328.948 74.3838 328.948C73.8747 328.948 73.418 329.086 73.0137 329.363C72.6094 329.64 72.2912 330.026 72.0591 330.52C71.8345 331.014 71.7222 331.564 71.7222 332.171ZM80.9648 329.229V328.555L82.4585 328.532C82.466 327.229 82.5783 326.196 82.7954 325.433C83.0125 324.669 83.327 324.048 83.7388 323.568C84.0682 323.187 84.48 322.838 84.9741 322.524C85.4683 322.202 85.9587 321.955 86.4453 321.783C86.932 321.611 87.3363 321.524 87.6582 321.524C88.0924 321.524 88.5229 321.603 88.9497 321.76C89.3765 321.91 89.5898 322.09 89.5898 322.299C89.5898 322.419 89.5075 322.599 89.3428 322.838C89.1781 323.078 89.0208 323.198 88.8711 323.198L87.9727 322.883C87.3438 322.651 86.8459 322.535 86.479 322.535C85.8875 322.535 85.4121 322.707 85.0527 323.052C84.6934 323.396 84.4201 324.006 84.2329 324.882C84.0457 325.758 83.9372 326.975 83.9072 328.532H86.9619V329.251L83.9072 329.273L83.8623 332.474C83.8623 333.762 83.8735 334.709 83.896 335.315C83.9185 335.922 83.9821 336.278 84.0869 336.382C84.1543 336.435 84.2666 336.468 84.4238 336.483C84.5811 336.498 85.0378 336.517 85.7939 336.54V336.978C85.3522 336.963 84.5998 336.951 83.5366 336.944C82.481 336.936 81.5975 336.933 80.8862 336.933V336.562C81.283 336.54 81.5788 336.491 81.7734 336.416C81.9756 336.334 82.1216 336.195 82.2114 336C82.3088 335.798 82.3687 335.514 82.3911 335.147C82.4211 334.773 82.436 334.249 82.436 333.575L82.4585 329.824C82.4585 329.554 82.4285 329.401 82.3687 329.363C82.2264 329.273 81.7585 329.229 80.9648 329.229ZM88.2422 329.229V328.555L89.7358 328.532C89.7433 327.229 89.8556 326.196 90.0728 325.433C90.2899 324.669 90.6043 324.048 91.0161 323.568C91.3455 323.187 91.7573 322.838 92.2515 322.524C92.7456 322.202 93.236 321.955 93.7227 321.783C94.2093 321.611 94.6136 321.524 94.9355 321.524C95.3698 321.524 95.8003 321.603 96.2271 321.76C96.6538 321.91 96.8672 322.09 96.8672 322.299C96.8672 322.419 96.7848 322.599 96.6201 322.838C96.4554 323.078 96.2982 323.198 96.1484 323.198L95.25 322.883C94.6211 322.651 94.1232 322.535 93.7563 322.535C93.1649 322.535 92.6895 322.707 92.3301 323.052C91.9707 323.396 91.6974 324.006 91.5103 324.882C91.3231 325.758 91.2145 326.975 91.1846 328.532H94.2393V329.251L91.1846 329.273L91.1396 332.474C91.1396 333.762 91.1509 334.709 91.1733 335.315C91.1958 335.922 91.2594 336.278 91.3643 336.382C91.4316 336.435 91.5439 336.468 91.7012 336.483C91.8584 336.498 92.3151 336.517 93.0713 336.54V336.978C92.6296 336.963 91.8771 336.951 90.814 336.944C89.7583 336.936 88.8748 336.933 88.1636 336.933V336.562C88.5604 336.54 88.8561 336.491 89.0508 336.416C89.2529 336.334 89.3989 336.195 89.4888 336C89.5861 335.798 89.646 335.514 89.6685 335.147C89.6984 334.773 89.7134 334.249 89.7134 333.575L89.7358 329.824C89.7358 329.554 89.7059 329.401 89.646 329.363C89.5037 329.273 89.0358 329.229 88.2422 329.229ZM101.842 331.16L96.2271 332.373C96.2645 333.077 96.3319 333.623 96.4292 334.013C96.534 334.395 96.7362 334.784 97.0356 335.181C97.6121 335.937 98.3084 336.315 99.1245 336.315C99.4614 336.315 99.8208 336.251 100.203 336.124C100.584 335.997 101.007 335.768 101.472 335.439L101.674 335.708C100.371 336.644 99.2144 337.112 98.2036 337.112C97.133 337.112 96.2982 336.708 95.6992 335.899C95.1003 335.091 94.8008 334.162 94.8008 333.114C94.8008 332.044 95.0291 331.156 95.4858 330.453C95.9425 329.741 96.4554 329.225 97.0244 328.903C97.5934 328.581 98.0239 328.42 98.3159 328.42C98.6528 328.42 99.001 328.476 99.3604 328.588C99.7272 328.693 100.083 328.899 100.427 329.206C100.779 329.513 101.071 329.932 101.303 330.464C101.371 330.576 101.434 330.651 101.494 330.688C101.554 330.726 101.663 330.745 101.82 330.745L101.842 331.16ZM96.2495 331.935L97.7207 331.621C97.7806 331.591 98.0052 331.531 98.3945 331.441C98.7913 331.351 99.0571 331.295 99.1919 331.272C99.5812 331.183 99.8283 331.119 99.9331 331.082C100.038 331.044 100.09 330.984 100.09 330.902C100.09 330.782 100 330.58 99.8208 330.295C99.6411 330.003 99.3828 329.738 99.0459 329.498C98.7165 329.258 98.3271 329.139 97.8779 329.139C97.3164 329.139 96.9159 329.434 96.6763 330.026C96.4442 330.617 96.3019 331.254 96.2495 331.935ZM110.243 331.16L104.627 332.373C104.665 333.077 104.732 333.623 104.83 334.013C104.934 334.395 105.137 334.784 105.436 335.181C106.013 335.937 106.709 336.315 107.525 336.315C107.862 336.315 108.221 336.251 108.603 336.124C108.985 335.997 109.408 335.768 109.872 335.439L110.074 335.708C108.771 336.644 107.615 337.112 106.604 337.112C105.533 337.112 104.699 336.708 104.1 335.899C103.501 335.091 103.201 334.162 103.201 333.114C103.201 332.044 103.43 331.156 103.886 330.453C104.343 329.741 104.856 329.225 105.425 328.903C105.994 328.581 106.424 328.42 106.716 328.42C107.053 328.42 107.401 328.476 107.761 328.588C108.128 328.693 108.483 328.899 108.828 329.206C109.18 329.513 109.472 329.932 109.704 330.464C109.771 330.576 109.835 330.651 109.895 330.688C109.954 330.726 110.063 330.745 110.22 330.745L110.243 331.16ZM104.65 331.935L106.121 331.621C106.181 331.591 106.406 331.531 106.795 331.441C107.192 331.351 107.458 331.295 107.592 331.272C107.982 331.183 108.229 331.119 108.333 331.082C108.438 331.044 108.491 330.984 108.491 330.902C108.491 330.782 108.401 330.58 108.221 330.295C108.042 330.003 107.783 329.738 107.446 329.498C107.117 329.258 106.728 329.139 106.278 329.139C105.717 329.139 105.316 329.434 105.077 330.026C104.845 330.617 104.702 331.254 104.65 331.935ZM116.622 322.85V322.513L118.07 322.49C118.205 322.49 118.886 322.505 120.114 322.535C120.728 322.55 121.226 322.565 121.608 322.58C121.99 322.595 122.211 322.603 122.271 322.603C124.367 322.603 126.07 322.55 127.38 322.445C127.343 322.865 127.32 323.355 127.313 323.917C127.306 324.471 127.306 324.924 127.313 325.275H126.853C126.815 324.684 126.722 324.25 126.572 323.973C126.422 323.696 126.063 323.482 125.494 323.333C124.925 323.183 124.004 323.108 122.731 323.108C121.443 323.108 120.593 323.16 120.182 323.265C120.122 324.081 120.092 325.455 120.092 327.387V329.161C120.99 329.236 121.84 329.273 122.641 329.273C123.682 329.273 124.423 329.236 124.865 329.161C125.306 329.086 125.576 328.959 125.673 328.779C125.771 328.6 125.819 328.289 125.819 327.847C125.984 327.847 126.13 327.832 126.257 327.802C126.287 328.296 126.302 328.749 126.302 329.161C126.302 329.94 126.287 330.722 126.257 331.508H125.797C125.797 330.752 125.733 330.337 125.606 330.262C125.441 330.142 125.033 330.033 124.382 329.936C123.738 329.831 122.982 329.779 122.113 329.779C121.222 329.779 120.556 329.801 120.114 329.846C120.084 331.254 120.069 332.519 120.069 333.642C120.069 334.361 120.084 334.874 120.114 335.181C120.152 335.48 120.242 335.723 120.384 335.911C120.534 336.098 120.751 336.233 121.035 336.315C121.32 336.39 121.803 336.472 122.484 336.562V337C121.518 336.955 120.706 336.933 120.047 336.933H118.935C118.336 336.933 117.647 336.963 116.869 337.022L116.891 336.652C117.378 336.569 117.707 336.453 117.879 336.304C118.059 336.154 118.175 335.941 118.228 335.664C118.392 334.773 118.475 332.725 118.475 329.521C118.475 329.094 118.471 328.674 118.463 328.263C118.463 327.843 118.456 327.282 118.441 326.578C118.433 325.874 118.407 325.245 118.362 324.691C118.317 324.137 118.257 323.763 118.183 323.568C118.093 323.314 117.928 323.145 117.688 323.063C117.449 322.973 117.093 322.902 116.622 322.85ZM128.29 332.789C128.29 332.13 128.41 331.535 128.649 331.003C128.896 330.464 129.233 330 129.66 329.61C130.087 329.221 130.585 328.922 131.154 328.712C131.723 328.502 132.333 328.397 132.984 328.397C133.576 328.397 134.134 328.506 134.658 328.723C135.189 328.94 135.653 329.24 136.05 329.622C136.447 330.003 136.758 330.456 136.982 330.98C137.215 331.497 137.331 332.055 137.331 332.654C137.331 333.432 137.143 334.162 136.769 334.844C136.402 335.525 135.878 336.075 135.197 336.495C134.523 336.906 133.744 337.112 132.861 337.112C132.194 337.112 131.506 336.966 130.794 336.674C130.091 336.382 129.495 335.914 129.009 335.271C128.53 334.619 128.29 333.792 128.29 332.789ZM129.761 332.171C129.761 332.867 129.9 333.56 130.177 334.249C130.454 334.937 130.839 335.503 131.333 335.944C131.835 336.386 132.385 336.607 132.984 336.607C133.508 336.607 133.984 336.465 134.411 336.18C134.837 335.888 135.178 335.476 135.433 334.945C135.687 334.413 135.814 333.811 135.814 333.137C135.814 332.455 135.665 331.793 135.365 331.149C135.073 330.498 134.665 329.97 134.141 329.565C133.625 329.154 133.052 328.948 132.423 328.948C131.914 328.948 131.457 329.086 131.053 329.363C130.648 329.64 130.33 330.026 130.098 330.52C129.874 331.014 129.761 331.564 129.761 332.171ZM138.768 337.022L138.791 336.697C139.165 336.622 139.423 336.547 139.565 336.472C139.708 336.397 139.831 336.221 139.936 335.944C140.041 335.667 140.108 335.252 140.138 334.698C140.176 334.144 140.194 333.294 140.194 332.148C140.194 331.243 140.146 330.64 140.048 330.34C139.951 330.041 139.708 329.891 139.318 329.891C139.086 329.891 138.85 329.921 138.611 329.981L138.656 329.622L141.553 327.937C141.583 328.401 141.598 329.038 141.598 329.846L142.8 329.161C142.86 329.124 142.912 329.09 142.957 329.06C143.039 329.015 143.133 328.963 143.238 328.903C143.343 328.835 143.522 328.727 143.777 328.577C144.031 328.42 144.234 328.293 144.383 328.195L144.473 328.24C144.518 328.285 144.57 328.323 144.63 328.353C144.855 328.457 145.031 328.577 145.158 328.712C145.285 328.847 145.349 329.041 145.349 329.296C145.349 329.588 145.229 329.827 144.99 330.015C144.75 330.202 144.462 330.314 144.125 330.352C144.125 330.097 144.065 329.902 143.945 329.768C143.826 329.633 143.657 329.565 143.44 329.565C143.215 329.565 142.95 329.648 142.643 329.812C142.336 329.97 142.104 330.119 141.946 330.262C141.759 330.426 141.647 330.565 141.609 330.677C141.579 330.782 141.561 331.048 141.553 331.475C141.508 332.74 141.486 333.41 141.486 333.485C141.486 334.945 141.561 335.847 141.71 336.191C141.778 336.311 141.853 336.386 141.935 336.416C142.017 336.438 142.16 336.45 142.362 336.45L142.654 336.427L143.99 336.405L143.968 336.865C143.93 336.865 143.694 336.873 143.26 336.888C142.826 336.903 142.534 336.91 142.384 336.91L138.768 337.022ZM147.865 333.777L147.921 329.408C147.576 329.363 147.176 329.341 146.719 329.341C146.734 329.281 146.742 329.187 146.742 329.06C147.393 328.663 147.902 328.285 148.269 327.926C148.636 327.566 149.07 327.057 149.572 326.398L149.459 328.42C150.103 328.48 150.807 328.51 151.571 328.51C151.938 328.51 152.338 328.502 152.772 328.487L152.75 329.184C152.361 329.229 151.96 329.251 151.548 329.251C151.511 329.251 151.365 329.247 151.11 329.24C150.856 329.225 150.459 329.206 149.92 329.184C149.778 329.184 149.669 329.199 149.594 329.229C149.527 329.251 149.478 329.3 149.448 329.375C149.426 329.449 149.407 329.592 149.392 329.801C149.385 330.011 149.377 330.232 149.37 330.464L149.313 333.968C149.299 334.642 149.373 335.199 149.538 335.641C149.71 336.075 150.118 336.292 150.762 336.292C151.009 336.292 151.312 336.24 151.672 336.135C152.039 336.023 152.458 335.858 152.93 335.641C152.945 335.701 152.952 335.746 152.952 335.776C152.96 335.806 152.967 335.84 152.975 335.877C152.713 336.161 152.23 336.442 151.526 336.719C150.83 336.996 150.201 337.135 149.639 337.135C149.153 337.135 148.733 336.97 148.381 336.641C148.037 336.304 147.865 335.727 147.865 334.911V333.777ZM153.177 330.194V329.734L155.67 328.353L155.895 328.263C155.999 328.263 156.052 328.33 156.052 328.465L155.917 330.396C155.827 331.924 155.782 332.867 155.782 333.227C155.782 334.073 155.895 334.776 156.119 335.338C156.344 335.892 156.868 336.169 157.691 336.169C157.953 336.169 158.223 336.128 158.5 336.045C158.785 335.956 159.11 335.825 159.477 335.652C159.851 335.473 160.143 335.33 160.353 335.226C160.353 334.664 160.364 334.297 160.387 334.125L160.454 331.823C160.477 331.126 160.454 330.636 160.387 330.352C160.319 330.06 160.188 329.872 159.994 329.79C159.806 329.708 159.492 329.659 159.05 329.644L159.028 329.229L162.015 328.532C161.978 329.206 161.937 329.85 161.892 330.464C161.854 331.07 161.817 331.722 161.779 332.418C161.749 333.114 161.734 333.631 161.734 333.968C161.734 335.061 161.806 335.825 161.948 336.259C162.337 336.244 162.756 336.154 163.206 335.989V336.495C162.36 336.727 161.502 337.004 160.634 337.326C160.507 336.906 160.405 336.375 160.331 335.731C158.496 336.667 157.223 337.135 156.512 337.135C156.033 337.135 155.554 336.906 155.075 336.45C154.596 335.993 154.378 335.11 154.423 333.799L154.513 331.272C154.528 330.823 154.509 330.483 154.457 330.25C154.412 330.011 154.27 329.891 154.03 329.891C153.896 329.891 153.611 329.992 153.177 330.194ZM163.902 336.843L163.879 336.517C164.284 336.442 164.579 336.364 164.767 336.281C164.954 336.199 165.077 336.105 165.137 336C165.197 335.896 165.238 335.753 165.261 335.574C165.321 335.162 165.362 334.657 165.384 334.058C165.407 333.459 165.418 332.852 165.418 332.238C165.418 331.385 165.388 330.805 165.328 330.498C165.276 330.183 165.156 329.985 164.969 329.902C164.789 329.812 164.448 329.741 163.947 329.689C163.947 329.592 163.939 329.521 163.924 329.476C164.246 329.393 164.673 329.236 165.205 329.004C165.744 328.764 166.028 328.63 166.058 328.6C166.343 328.45 166.511 328.375 166.563 328.375C166.676 328.375 166.747 328.484 166.777 328.701C166.807 328.918 166.822 329.277 166.822 329.779C167.645 329.315 168.323 328.985 168.854 328.791C169.386 328.588 169.895 328.487 170.382 328.487C171.108 328.487 171.636 328.648 171.965 328.97C172.302 329.285 172.508 329.67 172.583 330.127C172.665 330.576 172.707 331.171 172.707 331.913V334.585C172.707 335.641 172.755 336.218 172.853 336.315C172.905 336.367 173.096 336.431 173.425 336.506C173.755 336.581 173.946 336.629 173.998 336.652L174.021 337C173.459 336.91 172.808 336.865 172.066 336.865C171.438 336.865 170.685 336.91 169.809 337V336.674C170.49 336.54 170.913 336.326 171.078 336.034C171.19 335.787 171.265 335.267 171.303 334.473C171.348 333.672 171.37 333.051 171.37 332.609C171.37 331.95 171.34 331.411 171.28 330.992C171.228 330.565 171.074 330.202 170.82 329.902C170.565 329.603 170.168 329.453 169.629 329.453C169.39 329.453 169.027 329.502 168.54 329.599C168.053 329.696 167.481 329.917 166.822 330.262L166.754 333.249C166.739 334.522 166.754 335.364 166.799 335.776C166.814 335.956 166.848 336.09 166.9 336.18C166.96 336.27 167.088 336.352 167.282 336.427C167.477 336.495 167.806 336.555 168.271 336.607L168.248 336.955C168.083 336.94 167.847 336.921 167.541 336.899C167.234 336.876 166.84 336.858 166.361 336.843H163.902ZM182.23 331.16L176.615 332.373C176.652 333.077 176.72 333.623 176.817 334.013C176.922 334.395 177.124 334.784 177.423 335.181C178 335.937 178.696 336.315 179.512 336.315C179.849 336.315 180.208 336.251 180.59 336.124C180.972 335.997 181.395 335.768 181.859 335.439L182.062 335.708C180.759 336.644 179.602 337.112 178.591 337.112C177.521 337.112 176.686 336.708 176.087 335.899C175.488 335.091 175.188 334.162 175.188 333.114C175.188 332.044 175.417 331.156 175.874 330.453C176.33 329.741 176.843 329.225 177.412 328.903C177.981 328.581 178.412 328.42 178.704 328.42C179.041 328.42 179.389 328.476 179.748 328.588C180.115 328.693 180.471 328.899 180.815 329.206C181.167 329.513 181.459 329.932 181.691 330.464C181.758 330.576 181.822 330.651 181.882 330.688C181.942 330.726 182.05 330.745 182.208 330.745L182.23 331.16ZM176.637 331.935L178.108 331.621C178.168 331.591 178.393 331.531 178.782 331.441C179.179 331.351 179.445 331.295 179.58 331.272C179.969 331.183 180.216 331.119 180.321 331.082C180.426 331.044 180.478 330.984 180.478 330.902C180.478 330.782 180.388 330.58 180.208 330.295C180.029 330.003 179.771 329.738 179.434 329.498C179.104 329.258 178.715 329.139 178.266 329.139C177.704 329.139 177.304 329.434 177.064 330.026C176.832 330.617 176.69 331.254 176.637 331.935Z" fill="white"/>
<line x1="48.5" y1="37.3807" x2="48.5" y2="429.993" stroke="#524747"/>
<line x1="70.0089" y1="429.993" x2="70.0089" y2="37.3785" stroke="#524747"/>
<line x1="94.5" y1="35.0013" x2="94.5" y2="429.993" stroke="#524747"/>
<line x1="118.5" y1="35.0013" x2="118.5" y2="429.993" stroke="#524747"/>
<line x1="143.5" y1="35.0013" x2="143.5" y2="429.993" stroke="#524747"/>
<line x1="166.5" y1="429.992" x2="166.5" y2="34.9998" stroke="#524747"/>
<line x1="187.994" y1="429.993" x2="187.994" y2="34.9989" stroke="#524747"/>
<line x1="210.982" y1="430" x2="210.982" y2="34.9919" stroke="#524747"/>
<line x1="232.5" y1="429.992" x2="232.5" y2="34.9998" stroke="#524747"/>
<line x1="255.5" y1="429.992" x2="255.5" y2="34.9998" stroke="#524747"/>
<line x1="278.754" y1="428.802" x2="278.754" y2="34.9987" stroke="#524747"/>
<line x1="302.5" y1="429.992" x2="302.5" y2="34.9998" stroke="#524747"/>
<line x1="32" y1="77.3316" x2="319" y2="77.3316" stroke="#524747"/>
<line x1="32" y1="107.075" x2="319" y2="107.075" stroke="#524747"/>
<line x1="32" y1="140.387" x2="319" y2="140.387" stroke="#524747"/>
<line x1="32" y1="140.387" x2="319" y2="140.387" stroke="#524747"/>
<line x1="32" y1="171.32" x2="319" y2="171.32" stroke="#524747"/>
<line x1="32" y1="202.253" x2="319" y2="202.253" stroke="#524747"/>
<line x1="32" y1="230.807" x2="319" y2="230.807" stroke="#524747"/>
<line x1="32" y1="259.36" x2="319" y2="259.36" stroke="#524747"/>
<line x1="32" y1="289.104" x2="319" y2="289.104" stroke="#524747"/>
<line x1="32" y1="317.657" x2="319" y2="317.657" stroke="#524747"/>
<line x1="32" y1="345.021" x2="319" y2="345.021" stroke="#524747"/>
<line x1="32" y1="373.574" x2="319" y2="373.574" stroke="#524747"/>
<line x1="32" y1="399.749" x2="319" y2="399.749" stroke="#524747"/>
<line x1="32" y1="429.492" x2="319" y2="429.492" stroke="#524747"/>
<path d="M120 160V160C140.167 167.604 161.543 171.5 183.096 171.5H190H195.996C218.496 171.5 240.826 167.609 262 160V160V212.556C262 240.022 242.34 263.55 215.311 268.43V268.43C198.576 271.451 181.432 271.409 164.712 268.304L120 260V160Z" fill="#B26B42"/>
<mask id="path-32-inside-1_14_228" fill="white">
<path d="M122 260.086C115.434 260.075 108.934 258.771 102.872 256.247C96.8105 253.724 91.3049 250.032 86.6701 245.381C82.0352 240.73 78.3618 235.211 75.8596 229.141C73.3573 223.07 72.0753 216.566 72.0867 210C72.0981 203.434 73.4026 196.934 75.9259 190.872C78.4491 184.81 82.1417 179.305 86.7926 174.67C91.4436 170.035 96.9619 166.362 103.033 163.859C109.103 161.357 115.607 160.075 122.173 160.087L122.087 210.087L122 260.086Z"/>
</mask>
<path d="M122 260.086C115.434 260.075 108.934 258.771 102.872 256.247C96.8105 253.724 91.3049 250.032 86.6701 245.381C82.0352 240.73 78.3618 235.211 75.8596 229.141C73.3573 223.07 72.0753 216.566 72.0867 210C72.0981 203.434 73.4026 196.934 75.9259 190.872C78.4491 184.81 82.1417 179.305 86.7926 174.67C91.4436 170.035 96.9619 166.362 103.033 163.859C109.103 161.357 115.607 160.075 122.173 160.087L122.087 210.087L122 260.086Z" stroke="#B26B42" stroke-width="14" mask="url(#path-32-inside-1_14_228)"/>
<path d="M259 160.5C259 160.501 259 160.502 259 160.505C258.999 160.508 258.998 160.514 258.996 160.523C258.991 160.542 258.979 160.583 258.947 160.647C258.881 160.78 258.736 161.001 258.438 161.299C257.822 161.913 256.756 162.65 255.116 163.442C251.849 165.02 246.928 166.522 240.604 167.814C228.007 170.386 210.467 172 191 172C171.533 172 153.993 170.386 141.396 167.814C135.072 166.522 130.151 165.02 126.884 163.442C125.244 162.65 124.178 161.913 123.562 161.299C123.264 161.001 123.119 160.78 123.053 160.647C123.021 160.583 123.009 160.542 123.004 160.523C123.002 160.514 123.001 160.508 123 160.505C123 160.502 123 160.501 123 160.5C123 160.499 123 160.498 123 160.495C123.001 160.492 123.002 160.486 123.004 160.476C123.009 160.458 123.021 160.417 123.053 160.353C123.119 160.22 123.264 159.999 123.562 159.701C124.178 159.086 125.244 158.35 126.884 157.557C130.151 155.98 135.072 154.478 141.396 153.186C153.993 150.613 171.533 149 191 149C210.467 149 228.007 150.613 240.604 153.186C246.928 154.478 251.849 155.98 255.116 157.557C256.756 158.35 257.822 159.086 258.438 159.701C258.736 159.999 258.881 160.22 258.947 160.353C258.979 160.417 258.991 160.458 258.996 160.476C258.998 160.486 258.999 160.492 259 160.495C259 160.498 259 160.499 259 160.5Z" stroke="#B26B42" stroke-width="6"/>
<g filter="url(#filter0_dd_14_228)">
<circle cx="201.249" cy="218.76" r="17.2708" transform="rotate(-25.8726 201.249 218.76)" stroke="#141212" stroke-width="2" shape-rendering="crispEdges"/>
</g>
<g filter="url(#filter1_dd_14_228)">
<circle cx="202.534" cy="219.206" r="7.11619" transform="rotate(-25.8726 202.534 219.206)" stroke="#141212" stroke-width="5" shape-rendering="crispEdges"/>
</g>
<g filter="url(#filter2_dd_14_228)">
<circle cx="199.125" cy="216.584" r="37.4648" transform="rotate(-25.8726 199.125 216.584)" stroke="#141212" stroke-width="2" shape-rendering="crispEdges"/>
</g>
<g filter="url(#filter3_dd_14_228)">
<path d="M195.083 197.839C205.378 196.007 217.303 199.417 233.861 207.785C224.575 226.93 214.676 237.711 203.721 239.988C192.796 242.259 180.288 236.162 165.526 220.097C175.91 206.761 184.812 199.666 195.083 197.839Z" stroke="#141212" stroke-width="2" shape-rendering="crispEdges"/>
</g>
<defs>
<filter id="filter0_dd_14_228" x="178.974" y="200.485" width="44.5498" height="44.5499" filterUnits="userSpaceOnUse" color-interpolation-filters="sRGB">
<feFlood flood-opacity="0" result="BackgroundImageFix"/>
<feColorMatrix in="SourceAlpha" type="matrix" values="0 0 0 0 0 0 0 0 0 0 0 0 0 0 0 0 0 0 127 0" result="hardAlpha"/>
<feOffset dy="4"/>
<feGaussianBlur stdDeviation="2"/>
<feComposite in2="hardAlpha" operator="out"/>
<feColorMatrix type="matrix" values="0 0 0 0 0 0 0 0 0 0 0 0 0 0 0 0 0 0 0.25 0"/>
<feBlend mode="normal" in2="BackgroundImageFix" result="effect1_dropShadow_14_228"/>
<feColorMatrix in="SourceAlpha" type="matrix" values="0 0 0 0 0 0 0 0 0 0 0 0 0 0 0 0 0 0 127 0" result="hardAlpha"/>
<feOffset dy="4"/>
<feGaussianBlur stdDeviation="2"/>
<feComposite in2="hardAlpha" operator="out"/>
<feColorMatrix type="matrix" values="0 0 0 0 0 0 0 0 0 0 0 0 0 0 0 0 0 0 0.25 0"/>
<feBlend mode="normal" in2="effect1_dropShadow_14_228" result="effect2_dropShadow_14_228"/>
<feBlend mode="normal" in="SourceGraphic" in2="effect2_dropShadow_14_228" result="shape"/>
</filter>
<filter id="filter1_dd_14_228" x="188.915" y="209.587" width="27.2367" height="27.2368" filterUnits="userSpaceOnUse" color-interpolation-filters="sRGB">
<feFlood flood-opacity="0" result="BackgroundImageFix"/>
<feColorMatrix in="SourceAlpha" type="matrix" values="0 0 0 0 0 0 0 0 0 0 0 0 0 0 0 0 0 0 127 0" result="hardAlpha"/>
<feOffset dy="4"/>
<feGaussianBlur stdDeviation="2"/>
<feComposite in2="hardAlpha" operator="out"/>
<feColorMatrix type="matrix" values="0 0 0 0 0 0 0 0 0 0 0 0 0 0 0 0 0 0 0.25 0"/>
<feBlend mode="normal" in2="BackgroundImageFix" result="effect1_dropShadow_14_228"/>
<feColorMatrix in="SourceAlpha" type="matrix" values="0 0 0 0 0 0 0 0 0 0 0 0 0 0 0 0 0 0 127 0" result="hardAlpha"/>
<feOffset dy="4"/>
<feGaussianBlur stdDeviation="2"/>
<feComposite in2="hardAlpha" operator="out"/>
<feColorMatrix type="matrix" values="0 0 0 0 0 0 0 0 0 0 0 0 0 0 0 0 0 0 0.25 0"/>
<feBlend mode="normal" in2="effect1_dropShadow_14_228" result="effect2_dropShadow_14_228"/>
<feBlend mode="normal" in="SourceGraphic" in2="effect2_dropShadow_14_228" result="shape"/>
</filter>
<filter id="filter2_dd_14_228" x="156.651" y="178.111" width="84.9471" height="84.9471" filterUnits="userSpaceOnUse" color-interpolation-filters="sRGB">
<feFlood flood-opacity="0" result="BackgroundImageFix"/>
<feColorMatrix in="SourceAlpha" type="matrix" values="0 0 0 0 0 0 0 0 0 0 0 0 0 0 0 0 0 0 127 0" result="hardAlpha"/>
<feOffset dy="4"/>
<feGaussianBlur stdDeviation="2"/>
<feComposite in2="hardAlpha" operator="out"/>
<feColorMatrix type="matrix" values="0 0 0 0 0 0 0 0 0 0 0 0 0 0 0 0 0 0 0.25 0"/>
<feBlend mode="normal" in2="BackgroundImageFix" result="effect1_dropShadow_14_228"/>
<feColorMatrix in="SourceAlpha" type="matrix" values="0 0 0 0 0 0 0 0 0 0 0 0 0 0 0 0 0 0 127 0" result="hardAlpha"/>
<feOffset dy="4"/>
<feGaussianBlur stdDeviation="2"/>
<feComposite in2="hardAlpha" operator="out"/>
<feColorMatrix type="matrix" values="0 0 0 0 0 0 0 0 0 0 0 0 0 0 0 0 0 0 0.25 0"/>
<feBlend mode="normal" in2="effect1_dropShadow_14_228" result="effect2_dropShadow_14_228"/>
<feBlend mode="normal" in="SourceGraphic" in2="effect2_dropShadow_14_228" result="shape"/>
</filter>
<filter id="filter3_dd_14_228" x="160.22" y="196.358" width="78.9659" height="53.0901" filterUnits="userSpaceOnUse" color-interpolation-filters="sRGB">
<feFlood flood-opacity="0" result="BackgroundImageFix"/>
<feColorMatrix in="SourceAlpha" type="matrix" values="0 0 0 0 0 0 0 0 0 0 0 0 0 0 0 0 0 0 127 0" result="hardAlpha"/>
<feOffset dy="4"/>
<feGaussianBlur stdDeviation="2"/>
<feComposite in2="hardAlpha" operator="out"/>
<feColorMatrix type="matrix" values="0 0 0 0 0 0 0 0 0 0 0 0 0 0 0 0 0 0 0.25 0"/>
<feBlend mode="normal" in2="BackgroundImageFix" result="effect1_dropShadow_14_228"/>
<feColorMatrix in="SourceAlpha" type="matrix" values="0 0 0 0 0 0 0 0 0 0 0 0 0 0 0 0 0 0 127 0" result="hardAlpha"/>
<feOffset dy="4"/>
<feGaussianBlur stdDeviation="2"/>
<feComposite in2="hardAlpha" operator="out"/>
<feColorMatrix type="matrix" values="0 0 0 0 0 0 0 0 0 0 0 0 0 0 0 0 0 0 0.25 0"/>
<feBlend mode="normal" in2="effect1_dropShadow_14_228" result="effect2_dropShadow_14_228"/>
<feBlend mode="normal" in="SourceGraphic" in2="effect2_dropShadow_14_228" result="shape"/>
</filter>
<radialGradient id="paint0_radial_14_228" cx="0" cy="0" r="1" gradientUnits="userSpaceOnUse" gradientTransform="translate(175.5 172) rotate(90) scale(172 175.5)">
<stop stop-color="#B26B42"/>
<stop offset="0.0001" stop-color="#B26B42" stop-opacity="0.395"/>
<stop offset="0.675" stop-color="#B26B42" stop-opacity="0.325"/>
<stop offset="1" stop-color="#B26B42" stop-opacity="0"/>
</radialGradient>
</defs>
</svg>
