<svg width="287" height="420" viewBox="0 0 287 420" fill="none" xmlns="http://www.w3.org/2000/svg">
<rect width="287" height="420" rx="29" fill="#141212"/>
<rect x="27" y="9" width="236" height="282" fill="url(#paint0_radial_9_200)"/>
<path d="M51.9375 335.783V335.441C52.7578 335.448 53.2949 335.454 53.5488 335.461C53.8027 335.467 54.0143 335.474 54.1836 335.48C55.2773 335.48 55.9967 335.467 56.3418 335.441L56.3223 335.822C55.873 335.861 55.5378 335.917 55.3164 335.988C55.0951 336.053 54.9355 336.197 54.8379 336.418C54.7793 336.561 54.737 336.919 54.7109 337.492C54.6849 338.065 54.6621 338.801 54.6426 339.699C54.6165 340.708 54.597 341.623 54.584 342.443C54.571 343.264 54.5645 344.077 54.5645 344.885C54.5645 345.62 54.584 346.164 54.623 346.516C54.6621 346.867 54.7272 347.089 54.8184 347.18C54.929 347.264 55.1113 347.326 55.3652 347.365C55.6257 347.404 56.1758 347.424 57.0156 347.424C57.9401 347.424 58.7116 347.349 59.3301 347.199C59.9551 347.049 60.4238 346.89 60.7363 346.721C61.153 346.467 61.4395 346.034 61.5957 345.422L61.918 345.461C61.8789 345.728 61.791 346.128 61.6543 346.662C61.5176 347.196 61.3581 347.681 61.1758 348.117C60.6159 348.052 60.1699 348.02 59.8379 348.02C59.6361 348.013 59.4473 348.007 59.2715 348C59.1022 348 58.9036 348 58.6758 348H51.8203L51.8008 347.697C52.1849 347.619 52.4648 347.535 52.6406 347.443C52.8164 347.352 52.9466 347.196 53.0312 346.975C53.1224 346.747 53.1777 346.408 53.1973 345.959C53.2233 345.51 53.2363 344.862 53.2363 344.016L53.2559 339.719C53.2689 338.749 53.2689 338.013 53.2559 337.512C53.2428 337.01 53.1973 336.639 53.1191 336.398C53.041 336.151 52.9173 335.992 52.748 335.92C52.5788 335.842 52.3086 335.796 51.9375 335.783ZM69.1738 342.922L64.291 343.977C64.3236 344.589 64.3822 345.064 64.4668 345.402C64.5579 345.734 64.7337 346.073 64.9941 346.418C65.4954 347.076 66.1009 347.404 66.8105 347.404C67.1035 347.404 67.416 347.349 67.748 347.238C68.0801 347.128 68.4479 346.929 68.8516 346.643L69.0273 346.877C67.8945 347.691 66.8887 348.098 66.0098 348.098C65.0788 348.098 64.3529 347.746 63.832 347.043C63.3112 346.34 63.0508 345.533 63.0508 344.621C63.0508 343.69 63.2493 342.919 63.6465 342.307C64.0436 341.688 64.4896 341.239 64.9844 340.959C65.4792 340.679 65.8535 340.539 66.1074 340.539C66.4004 340.539 66.7031 340.588 67.0156 340.686C67.3346 340.777 67.6439 340.956 67.9434 341.223C68.2493 341.49 68.5033 341.854 68.7051 342.316C68.7637 342.414 68.819 342.479 68.8711 342.512C68.9232 342.544 69.0176 342.561 69.1543 342.561L69.1738 342.922ZM64.3105 343.596L65.5898 343.322C65.6419 343.296 65.8372 343.244 66.1758 343.166C66.5208 343.088 66.752 343.039 66.8691 343.02C67.2077 342.941 67.4225 342.886 67.5137 342.854C67.6048 342.821 67.6504 342.769 67.6504 342.697C67.6504 342.593 67.5723 342.417 67.416 342.17C67.2598 341.916 67.0352 341.685 66.7422 341.477C66.4557 341.268 66.1172 341.164 65.7266 341.164C65.2383 341.164 64.89 341.421 64.6816 341.936C64.4798 342.45 64.3561 343.003 64.3105 343.596ZM70.9902 345.197L71.0391 341.398C70.7396 341.359 70.3913 341.34 69.9941 341.34C70.0072 341.288 70.0137 341.206 70.0137 341.096C70.5801 340.751 71.0228 340.422 71.3418 340.109C71.6608 339.797 72.0384 339.354 72.4746 338.781L72.377 340.539C72.9368 340.591 73.5488 340.617 74.2129 340.617C74.5319 340.617 74.8802 340.611 75.2578 340.598L75.2383 341.203C74.8997 341.242 74.5514 341.262 74.1934 341.262C74.1608 341.262 74.0339 341.258 73.8125 341.252C73.5911 341.239 73.2461 341.223 72.7773 341.203C72.6536 341.203 72.5592 341.216 72.4941 341.242C72.4355 341.262 72.3932 341.304 72.3672 341.369C72.3477 341.434 72.3314 341.558 72.3184 341.74C72.3118 341.923 72.3053 342.115 72.2988 342.316L72.25 345.363C72.237 345.949 72.3021 346.434 72.4453 346.818C72.5951 347.196 72.9499 347.385 73.5098 347.385C73.7246 347.385 73.9883 347.339 74.3008 347.248C74.6198 347.15 74.9844 347.007 75.3945 346.818C75.4076 346.87 75.4141 346.91 75.4141 346.936C75.4206 346.962 75.4271 346.991 75.4336 347.023C75.2057 347.271 74.7858 347.515 74.1738 347.756C73.5684 347.997 73.0215 348.117 72.5332 348.117C72.11 348.117 71.7454 347.974 71.4395 347.688C71.14 347.395 70.9902 346.893 70.9902 346.184V345.197ZM81.7324 345.197L81.7812 341.398C81.4818 341.359 81.1335 341.34 80.7363 341.34C80.7493 341.288 80.7559 341.206 80.7559 341.096C81.3223 340.751 81.765 340.422 82.084 340.109C82.403 339.797 82.7806 339.354 83.2168 338.781L83.1191 340.539C83.679 340.591 84.291 340.617 84.9551 340.617C85.2741 340.617 85.6224 340.611 86 340.598L85.9805 341.203C85.6419 341.242 85.2936 341.262 84.9355 341.262C84.903 341.262 84.776 341.258 84.5547 341.252C84.3333 341.239 83.9883 341.223 83.5195 341.203C83.3958 341.203 83.3014 341.216 83.2363 341.242C83.1777 341.262 83.1354 341.304 83.1094 341.369C83.0898 341.434 83.0736 341.558 83.0605 341.74C83.054 341.923 83.0475 342.115 83.041 342.316L82.9922 345.363C82.9792 345.949 83.0443 346.434 83.1875 346.818C83.3372 347.196 83.6921 347.385 84.252 347.385C84.4668 347.385 84.7305 347.339 85.043 347.248C85.362 347.15 85.7266 347.007 86.1367 346.818C86.1497 346.87 86.1562 346.91 86.1562 346.936C86.1628 346.962 86.1693 346.991 86.1758 347.023C85.9479 347.271 85.528 347.515 84.916 347.756C84.3105 347.997 83.7637 348.117 83.2754 348.117C82.8522 348.117 82.4876 347.974 82.1816 347.688C81.8822 347.395 81.7324 346.893 81.7324 346.184V345.197ZM86.5176 336.115V335.744C86.6608 335.673 86.7552 335.624 86.8008 335.598L88.6953 334.68L89.0176 334.504L89.3398 334.66C89.2161 335.246 89.1283 335.923 89.0762 336.691C89.0241 337.453 88.985 338.423 88.959 339.602L88.9004 341.584C89.6686 341.252 90.2904 341.008 90.7656 340.852C91.2474 340.695 91.7096 340.617 92.1523 340.617C92.7773 340.617 93.2331 340.809 93.5195 341.193C93.806 341.571 93.9818 342.036 94.0469 342.59C94.1185 343.137 94.1543 343.859 94.1543 344.758C94.1543 344.934 94.151 345.096 94.1445 345.246C94.1445 345.396 94.1413 345.607 94.1348 345.881C94.1283 346.148 94.1185 346.395 94.1055 346.623C94.099 346.844 94.0957 346.971 94.0957 347.004C94.0957 347.284 94.1641 347.469 94.3008 347.561C94.4375 347.652 94.8151 347.697 95.4336 347.697L95.4141 348H94.7793C94.6816 348 94.278 348.003 93.5684 348.01C92.8652 348.016 92.5039 348.02 92.4844 348.02C92.4648 348.02 92.3216 348.052 92.0547 348.117C91.9896 348.117 91.957 348.072 91.957 347.98C91.957 347.915 92.0091 347.87 92.1133 347.844C92.3607 347.785 92.543 347.681 92.6602 347.531C92.7839 347.382 92.8652 347.128 92.9043 346.77C92.9499 346.411 92.9727 345.822 92.9727 345.002C92.9727 343.706 92.8685 342.782 92.6602 342.229C92.4518 341.675 91.9766 341.398 91.2344 341.398C90.8503 341.398 90.4271 341.47 89.9648 341.613C89.5026 341.757 89.1608 341.887 88.9395 342.004C88.9395 342.186 88.9264 342.492 88.9004 342.922L88.8125 345.275C88.8125 345.425 88.8092 345.562 88.8027 345.686C88.8027 345.809 88.7995 345.946 88.793 346.096C88.793 346.727 88.8353 347.134 88.9199 347.316C88.9525 347.427 89.0306 347.505 89.1543 347.551C89.278 347.59 89.6068 347.632 90.1406 347.678V348.02C89.9258 347.993 89.4701 347.98 88.7734 347.98C88.0508 347.98 87.2728 348.013 86.4395 348.078L86.459 347.756C86.8757 347.671 87.1491 347.59 87.2793 347.512C87.416 347.427 87.5072 347.271 87.5527 347.043C87.6048 346.815 87.6406 346.389 87.6602 345.764C87.6797 344.742 87.7057 343.866 87.7383 343.137L87.7773 340.402C87.7904 340.122 87.7969 339.501 87.7969 338.537C87.7969 337.658 87.7578 337.01 87.6797 336.594C87.6081 336.171 87.4258 335.959 87.1328 335.959C87.0872 335.959 86.8822 336.011 86.5176 336.115ZM102.455 342.922L97.5723 343.977C97.6048 344.589 97.6634 345.064 97.748 345.402C97.8392 345.734 98.015 346.073 98.2754 346.418C98.7767 347.076 99.3822 347.404 100.092 347.404C100.385 347.404 100.697 347.349 101.029 347.238C101.361 347.128 101.729 346.929 102.133 346.643L102.309 346.877C101.176 347.691 100.17 348.098 99.291 348.098C98.36 348.098 97.6341 347.746 97.1133 347.043C96.5924 346.34 96.332 345.533 96.332 344.621C96.332 343.69 96.5306 342.919 96.9277 342.307C97.3249 341.688 97.7708 341.239 98.2656 340.959C98.7604 340.679 99.1348 340.539 99.3887 340.539C99.6816 340.539 99.9844 340.588 100.297 340.686C100.616 340.777 100.925 340.956 101.225 341.223C101.531 341.49 101.785 341.854 101.986 342.316C102.045 342.414 102.1 342.479 102.152 342.512C102.204 342.544 102.299 342.561 102.436 342.561L102.455 342.922ZM97.5918 343.596L98.8711 343.322C98.9232 343.296 99.1185 343.244 99.457 343.166C99.8021 343.088 100.033 343.039 100.15 343.02C100.489 342.941 100.704 342.886 100.795 342.854C100.886 342.821 100.932 342.769 100.932 342.697C100.932 342.593 100.854 342.417 100.697 342.17C100.541 341.916 100.316 341.685 100.023 341.477C99.737 341.268 99.3984 341.164 99.0078 341.164C98.5195 341.164 98.1712 341.421 97.9629 341.936C97.7611 342.45 97.6374 343.003 97.5918 343.596ZM114.76 346.779L114.896 347.062C114.031 347.779 113.139 348.137 112.221 348.137C111.693 348.137 111.146 348.029 110.58 347.814C110.02 347.593 109.581 347.31 109.262 346.965C109.06 346.724 108.9 346.389 108.783 345.959C108.673 345.523 108.617 345.103 108.617 344.699C108.617 343.885 108.835 343.146 109.271 342.482C109.708 341.812 110.242 341.291 110.873 340.92C111.511 340.549 112.107 340.363 112.66 340.363C112.992 340.363 113.454 340.458 114.047 340.646C114.639 340.829 114.936 341.001 114.936 341.164C114.936 341.229 114.844 341.398 114.662 341.672C114.48 341.945 114.333 342.082 114.223 342.082C114.171 342.082 114.096 342.056 113.998 342.004C113.907 341.952 113.747 341.864 113.52 341.74C112.81 341.447 112.224 341.301 111.762 341.301C111.104 341.301 110.609 341.516 110.277 341.945C109.945 342.375 109.779 343.02 109.779 343.879C109.779 344.667 109.952 345.331 110.297 345.871C110.642 346.411 111.055 346.805 111.537 347.053C112.025 347.3 112.471 347.424 112.875 347.424C113.214 347.424 113.526 347.365 113.812 347.248C114.105 347.131 114.421 346.975 114.76 346.779ZM117.66 342.238L116.459 342.775C116.407 342.567 116.381 342.414 116.381 342.316C116.381 341.984 116.583 341.678 116.986 341.398C117.396 341.112 117.855 340.881 118.363 340.705C118.878 340.529 119.236 340.441 119.438 340.441C119.613 340.441 119.831 340.52 120.092 340.676C120.352 340.832 120.561 340.988 120.717 341.145C120.854 341.275 120.958 341.405 121.029 341.535C121.107 341.659 121.176 341.857 121.234 342.131C121.293 342.404 121.322 342.753 121.322 343.176C121.322 343.299 121.306 343.736 121.273 344.484L121.234 345.217C121.208 345.568 121.195 345.848 121.195 346.057C121.195 346.324 121.231 346.61 121.303 346.916C121.368 347.229 121.514 347.385 121.742 347.385C121.996 347.385 122.335 347.29 122.758 347.102V347.502L121.322 348.078C121.036 348.176 120.873 348.225 120.834 348.225C120.684 348.225 120.535 348.127 120.385 347.932C120.242 347.73 120.124 347.492 120.033 347.219C118.829 347.889 117.904 348.225 117.26 348.225C116.863 348.225 116.563 348.111 116.361 347.883C116.16 347.648 116.059 347.3 116.059 346.838C116.059 346.395 116.111 346.066 116.215 345.852C116.326 345.637 116.501 345.467 116.742 345.344C117.23 345.096 117.748 344.914 118.295 344.797C118.842 344.673 119.415 344.569 120.014 344.484L120.062 343.283V342.961C120.062 342.408 119.903 341.971 119.584 341.652C119.271 341.327 118.904 341.164 118.48 341.164C118.279 341.164 118.074 341.223 117.865 341.34C117.663 341.451 117.562 341.61 117.562 341.818C117.562 341.923 117.595 342.062 117.66 342.238ZM119.975 346.857C119.955 346.643 119.975 346.031 120.033 345.021C119.174 344.963 118.484 345.067 117.963 345.334C117.442 345.601 117.182 345.936 117.182 346.34C117.182 346.633 117.26 346.91 117.416 347.17C117.579 347.43 117.8 347.561 118.08 347.561C118.393 347.561 119.024 347.326 119.975 346.857ZM123.236 348.02L123.256 347.736C123.581 347.671 123.806 347.606 123.93 347.541C124.053 347.476 124.161 347.323 124.252 347.082C124.343 346.841 124.402 346.48 124.428 345.998C124.46 345.516 124.477 344.777 124.477 343.781C124.477 342.993 124.434 342.469 124.35 342.209C124.265 341.949 124.053 341.818 123.715 341.818C123.513 341.818 123.308 341.844 123.1 341.896L123.139 341.584L125.658 340.119C125.684 340.523 125.697 341.076 125.697 341.779L126.742 341.184C126.794 341.151 126.84 341.122 126.879 341.096C126.951 341.057 127.032 341.011 127.123 340.959C127.214 340.9 127.37 340.806 127.592 340.676C127.813 340.539 127.989 340.428 128.119 340.344L128.197 340.383C128.236 340.422 128.282 340.454 128.334 340.48C128.529 340.572 128.682 340.676 128.793 340.793C128.904 340.91 128.959 341.079 128.959 341.301C128.959 341.555 128.855 341.763 128.646 341.926C128.438 342.089 128.188 342.186 127.895 342.219C127.895 341.997 127.842 341.828 127.738 341.711C127.634 341.594 127.488 341.535 127.299 341.535C127.104 341.535 126.872 341.607 126.605 341.75C126.339 341.887 126.137 342.017 126 342.141C125.837 342.284 125.74 342.404 125.707 342.502C125.681 342.593 125.665 342.824 125.658 343.195C125.619 344.296 125.6 344.878 125.6 344.943C125.6 346.213 125.665 346.997 125.795 347.297C125.854 347.401 125.919 347.466 125.99 347.492C126.062 347.512 126.186 347.521 126.361 347.521L126.615 347.502L127.777 347.482L127.758 347.883C127.725 347.883 127.52 347.889 127.143 347.902C126.765 347.915 126.511 347.922 126.381 347.922L123.236 348.02ZM135.404 338.703V337.336C135.359 336.9 135.316 336.6 135.277 336.438C135.245 336.268 135.189 336.158 135.111 336.105C135.04 336.047 134.923 336.018 134.76 336.018C134.584 336.018 134.366 336.05 134.105 336.115L134.086 335.822C135.284 335.327 136.143 334.895 136.664 334.523L136.898 334.621C136.827 334.934 136.765 335.477 136.713 336.252C136.661 337.027 136.609 337.954 136.557 339.035L136.518 340.002L136.439 343.938V344.885C136.439 345.816 136.469 346.516 136.527 346.984C136.592 347.447 136.684 347.678 136.801 347.678C136.872 347.678 137.022 347.645 137.25 347.58C137.484 347.515 137.729 347.44 137.982 347.355V347.717C136.452 348.251 135.626 348.518 135.502 348.518C135.404 348.518 135.329 348.384 135.277 348.117C135.225 347.857 135.199 347.463 135.199 346.936C134.496 347.307 133.936 347.57 133.52 347.727C133.103 347.883 132.663 347.961 132.201 347.961C131.719 347.961 131.247 347.837 130.785 347.59C130.323 347.336 129.942 346.968 129.643 346.486C129.35 346.005 129.203 345.448 129.203 344.816C129.203 343.951 129.395 343.228 129.779 342.648C130.17 342.062 130.616 341.623 131.117 341.33C131.625 341.031 132.107 340.819 132.562 340.695C133.025 340.565 133.324 340.5 133.461 340.5C133.663 340.5 133.92 340.526 134.232 340.578C134.545 340.63 134.916 340.712 135.346 340.822C135.385 340.1 135.404 339.393 135.404 338.703ZM135.199 345.48L135.258 342.141C135.258 341.991 135.144 341.857 134.916 341.74C134.695 341.617 134.447 341.522 134.174 341.457C133.907 341.392 133.611 341.337 133.285 341.291C132.96 341.245 132.771 341.223 132.719 341.223C132.302 341.223 131.905 341.333 131.527 341.555C131.156 341.77 130.857 342.066 130.629 342.443C130.408 342.821 130.297 343.241 130.297 343.703C130.297 344.419 130.427 345.038 130.688 345.559C130.948 346.079 131.299 346.477 131.742 346.75C132.191 347.023 132.683 347.16 133.217 347.16C133.594 347.16 133.936 347.095 134.242 346.965C134.555 346.828 134.874 346.659 135.199 346.457C135.193 346.411 135.189 346.285 135.189 346.076C135.196 345.868 135.199 345.669 135.199 345.48ZM149.896 338.703V337.336C149.851 336.9 149.809 336.6 149.77 336.438C149.737 336.268 149.682 336.158 149.604 336.105C149.532 336.047 149.415 336.018 149.252 336.018C149.076 336.018 148.858 336.05 148.598 336.115L148.578 335.822C149.776 335.327 150.635 334.895 151.156 334.523L151.391 334.621C151.319 334.934 151.257 335.477 151.205 336.252C151.153 337.027 151.101 337.954 151.049 339.035L151.01 340.002L150.932 343.938V344.885C150.932 345.816 150.961 346.516 151.02 346.984C151.085 347.447 151.176 347.678 151.293 347.678C151.365 347.678 151.514 347.645 151.742 347.58C151.977 347.515 152.221 347.44 152.475 347.355V347.717C150.945 348.251 150.118 348.518 149.994 348.518C149.896 348.518 149.822 348.384 149.77 348.117C149.717 347.857 149.691 347.463 149.691 346.936C148.988 347.307 148.428 347.57 148.012 347.727C147.595 347.883 147.156 347.961 146.693 347.961C146.212 347.961 145.74 347.837 145.277 347.59C144.815 347.336 144.434 346.968 144.135 346.486C143.842 346.005 143.695 345.448 143.695 344.816C143.695 343.951 143.887 343.228 144.271 342.648C144.662 342.062 145.108 341.623 145.609 341.33C146.117 341.031 146.599 340.819 147.055 340.695C147.517 340.565 147.816 340.5 147.953 340.5C148.155 340.5 148.412 340.526 148.725 340.578C149.037 340.63 149.408 340.712 149.838 340.822C149.877 340.1 149.896 339.393 149.896 338.703ZM149.691 345.48L149.75 342.141C149.75 341.991 149.636 341.857 149.408 341.74C149.187 341.617 148.939 341.522 148.666 341.457C148.399 341.392 148.103 341.337 147.777 341.291C147.452 341.245 147.263 341.223 147.211 341.223C146.794 341.223 146.397 341.333 146.02 341.555C145.648 341.77 145.349 342.066 145.121 342.443C144.9 342.821 144.789 343.241 144.789 343.703C144.789 344.419 144.919 345.038 145.18 345.559C145.44 346.079 145.792 346.477 146.234 346.75C146.684 347.023 147.175 347.16 147.709 347.16C148.087 347.16 148.428 347.095 148.734 346.965C149.047 346.828 149.366 346.659 149.691 346.457C149.685 346.411 149.682 346.285 149.682 346.076C149.688 345.868 149.691 345.669 149.691 345.48ZM153.285 344.338C153.285 343.765 153.389 343.247 153.598 342.785C153.812 342.316 154.105 341.913 154.477 341.574C154.848 341.236 155.281 340.975 155.775 340.793C156.27 340.611 156.801 340.52 157.367 340.52C157.882 340.52 158.367 340.614 158.822 340.803C159.285 340.992 159.688 341.252 160.033 341.584C160.378 341.916 160.648 342.31 160.844 342.766C161.046 343.215 161.146 343.7 161.146 344.221C161.146 344.898 160.984 345.533 160.658 346.125C160.339 346.717 159.883 347.196 159.291 347.561C158.705 347.919 158.028 348.098 157.26 348.098C156.68 348.098 156.081 347.971 155.463 347.717C154.851 347.463 154.333 347.056 153.91 346.496C153.493 345.93 153.285 345.21 153.285 344.338ZM154.564 343.801C154.564 344.406 154.685 345.008 154.926 345.607C155.167 346.206 155.502 346.698 155.932 347.082C156.368 347.466 156.846 347.658 157.367 347.658C157.823 347.658 158.236 347.535 158.607 347.287C158.979 347.033 159.275 346.675 159.496 346.213C159.717 345.751 159.828 345.227 159.828 344.641C159.828 344.048 159.698 343.472 159.438 342.912C159.184 342.346 158.829 341.887 158.373 341.535C157.924 341.177 157.426 340.998 156.879 340.998C156.436 340.998 156.039 341.118 155.688 341.359C155.336 341.6 155.059 341.936 154.857 342.365C154.662 342.795 154.564 343.273 154.564 343.801ZM169.223 342.238L168.021 342.775C167.969 342.567 167.943 342.414 167.943 342.316C167.943 341.984 168.145 341.678 168.549 341.398C168.959 341.112 169.418 340.881 169.926 340.705C170.44 340.529 170.798 340.441 171 340.441C171.176 340.441 171.394 340.52 171.654 340.676C171.915 340.832 172.123 340.988 172.279 341.145C172.416 341.275 172.52 341.405 172.592 341.535C172.67 341.659 172.738 341.857 172.797 342.131C172.855 342.404 172.885 342.753 172.885 343.176C172.885 343.299 172.868 343.736 172.836 344.484L172.797 345.217C172.771 345.568 172.758 345.848 172.758 346.057C172.758 346.324 172.794 346.61 172.865 346.916C172.93 347.229 173.077 347.385 173.305 347.385C173.559 347.385 173.897 347.29 174.32 347.102V347.502L172.885 348.078C172.598 348.176 172.436 348.225 172.396 348.225C172.247 348.225 172.097 348.127 171.947 347.932C171.804 347.73 171.687 347.492 171.596 347.219C170.391 347.889 169.467 348.225 168.822 348.225C168.425 348.225 168.126 348.111 167.924 347.883C167.722 347.648 167.621 347.3 167.621 346.838C167.621 346.395 167.673 346.066 167.777 345.852C167.888 345.637 168.064 345.467 168.305 345.344C168.793 345.096 169.311 344.914 169.857 344.797C170.404 344.673 170.977 344.569 171.576 344.484L171.625 343.283V342.961C171.625 342.408 171.465 341.971 171.146 341.652C170.834 341.327 170.466 341.164 170.043 341.164C169.841 341.164 169.636 341.223 169.428 341.34C169.226 341.451 169.125 341.61 169.125 341.818C169.125 341.923 169.158 342.062 169.223 342.238ZM171.537 346.857C171.518 346.643 171.537 346.031 171.596 345.021C170.736 344.963 170.046 345.067 169.525 345.334C169.005 345.601 168.744 345.936 168.744 346.34C168.744 346.633 168.822 346.91 168.979 347.17C169.141 347.43 169.363 347.561 169.643 347.561C169.955 347.561 170.587 347.326 171.537 346.857ZM174.584 348.039V347.736C175.072 347.652 175.417 347.505 175.619 347.297C175.821 347.089 175.948 346.77 176 346.34C176.033 346.118 176.068 345.611 176.107 344.816C176.146 344.016 176.182 343.101 176.215 342.072C176.247 341.044 176.264 340.119 176.264 339.299C176.264 337.58 176.176 336.6 176 336.359C175.889 336.197 175.668 336.115 175.336 336.115C175.258 336.115 175.196 336.118 175.15 336.125C175.105 336.132 175.062 336.138 175.023 336.145C174.984 336.151 174.942 336.158 174.896 336.164V335.861C176.14 335.34 177.016 334.901 177.523 334.543H177.816C177.615 335.311 177.488 336.704 177.436 338.723L177.357 343.42C177.357 345.62 177.406 346.867 177.504 347.16C177.562 347.329 177.758 347.46 178.09 347.551C178.422 347.635 178.718 347.691 178.979 347.717V348.078C177.702 347.987 176.843 347.941 176.4 347.941C175.808 347.941 175.202 347.974 174.584 348.039ZM179.389 348.039V347.736C179.877 347.652 180.222 347.505 180.424 347.297C180.626 347.089 180.753 346.77 180.805 346.34C180.837 346.118 180.873 345.611 180.912 344.816C180.951 344.016 180.987 343.101 181.02 342.072C181.052 341.044 181.068 340.119 181.068 339.299C181.068 337.58 180.98 336.6 180.805 336.359C180.694 336.197 180.473 336.115 180.141 336.115C180.062 336.115 180.001 336.118 179.955 336.125C179.91 336.132 179.867 336.138 179.828 336.145C179.789 336.151 179.747 336.158 179.701 336.164V335.861C180.945 335.34 181.82 334.901 182.328 334.543H182.621C182.419 335.311 182.292 336.704 182.24 338.723L182.162 343.42C182.162 345.62 182.211 346.867 182.309 347.16C182.367 347.329 182.562 347.46 182.895 347.551C183.227 347.635 183.523 347.691 183.783 347.717V348.078C182.507 347.987 181.648 347.941 181.205 347.941C180.613 347.941 180.007 347.974 179.389 348.039ZM189.311 348.02L189.33 347.736C189.656 347.671 189.88 347.606 190.004 347.541C190.128 347.476 190.235 347.323 190.326 347.082C190.417 346.841 190.476 346.48 190.502 345.998C190.535 345.516 190.551 344.777 190.551 343.781C190.551 342.993 190.508 342.469 190.424 342.209C190.339 341.949 190.128 341.818 189.789 341.818C189.587 341.818 189.382 341.844 189.174 341.896L189.213 341.584L191.732 340.119C191.758 340.523 191.771 341.076 191.771 341.779L192.816 341.184C192.868 341.151 192.914 341.122 192.953 341.096C193.025 341.057 193.106 341.011 193.197 340.959C193.288 340.9 193.445 340.806 193.666 340.676C193.887 340.539 194.063 340.428 194.193 340.344L194.271 340.383C194.311 340.422 194.356 340.454 194.408 340.48C194.604 340.572 194.757 340.676 194.867 340.793C194.978 340.91 195.033 341.079 195.033 341.301C195.033 341.555 194.929 341.763 194.721 341.926C194.512 342.089 194.262 342.186 193.969 342.219C193.969 341.997 193.917 341.828 193.812 341.711C193.708 341.594 193.562 341.535 193.373 341.535C193.178 341.535 192.947 341.607 192.68 341.75C192.413 341.887 192.211 342.017 192.074 342.141C191.911 342.284 191.814 342.404 191.781 342.502C191.755 342.593 191.739 342.824 191.732 343.195C191.693 344.296 191.674 344.878 191.674 344.943C191.674 346.213 191.739 346.997 191.869 347.297C191.928 347.401 191.993 347.466 192.064 347.492C192.136 347.512 192.26 347.521 192.436 347.521L192.689 347.502L193.852 347.482L193.832 347.883C193.799 347.883 193.594 347.889 193.217 347.902C192.839 347.915 192.585 347.922 192.455 347.922L189.311 348.02ZM201.713 342.922L196.83 343.977C196.863 344.589 196.921 345.064 197.006 345.402C197.097 345.734 197.273 346.073 197.533 346.418C198.035 347.076 198.64 347.404 199.35 347.404C199.643 347.404 199.955 347.349 200.287 347.238C200.619 347.128 200.987 346.929 201.391 346.643L201.566 346.877C200.434 347.691 199.428 348.098 198.549 348.098C197.618 348.098 196.892 347.746 196.371 347.043C195.85 346.34 195.59 345.533 195.59 344.621C195.59 343.69 195.788 342.919 196.186 342.307C196.583 341.688 197.029 341.239 197.523 340.959C198.018 340.679 198.393 340.539 198.646 340.539C198.939 340.539 199.242 340.588 199.555 340.686C199.874 340.777 200.183 340.956 200.482 341.223C200.788 341.49 201.042 341.854 201.244 342.316C201.303 342.414 201.358 342.479 201.41 342.512C201.462 342.544 201.557 342.561 201.693 342.561L201.713 342.922ZM196.85 343.596L198.129 343.322C198.181 343.296 198.376 343.244 198.715 343.166C199.06 343.088 199.291 343.039 199.408 343.02C199.747 342.941 199.962 342.886 200.053 342.854C200.144 342.821 200.189 342.769 200.189 342.697C200.189 342.593 200.111 342.417 199.955 342.17C199.799 341.916 199.574 341.685 199.281 341.477C198.995 341.268 198.656 341.164 198.266 341.164C197.777 341.164 197.429 341.421 197.221 341.936C197.019 342.45 196.895 343.003 196.85 343.596ZM202.65 345.803L202.992 345.822C202.992 345.946 203.096 346.148 203.305 346.428C203.52 346.708 203.806 346.962 204.164 347.189C204.522 347.411 204.913 347.521 205.336 347.521C205.642 347.521 205.948 347.456 206.254 347.326C206.56 347.196 206.713 346.913 206.713 346.477C206.713 346.021 206.553 345.653 206.234 345.373C205.915 345.1 205.554 344.862 205.15 344.66L204.418 344.318C203.988 344.097 203.646 343.863 203.393 343.615C203.139 343.374 203.012 343.062 203.012 342.678C203.012 342.378 203.119 342.066 203.334 341.74C203.549 341.408 203.858 341.135 204.262 340.92C204.672 340.705 205.134 340.598 205.648 340.598C205.961 340.598 206.482 340.646 207.211 340.744L207.533 342.404H207.191C207.133 342.176 206.996 341.962 206.781 341.76C206.573 341.551 206.326 341.376 206.039 341.232C205.759 341.089 205.518 341.018 205.316 341.018C204.971 341.018 204.691 341.125 204.477 341.34C204.262 341.555 204.154 341.828 204.154 342.16C204.154 342.427 204.232 342.639 204.389 342.795C204.545 342.958 204.841 343.146 205.277 343.361L205.873 343.645C206.413 343.898 206.876 344.195 207.26 344.533C207.644 344.878 207.836 345.354 207.836 345.959C207.836 346.187 207.787 346.431 207.689 346.691C207.598 346.945 207.458 347.128 207.27 347.238C206.729 347.583 206.283 347.808 205.932 347.912C205.58 348.01 205.222 348.059 204.857 348.059C204.727 348.059 204.542 348.042 204.301 348.01C204.06 347.977 203.891 347.951 203.793 347.932C203.695 347.912 203.526 347.867 203.285 347.795C203.044 347.723 202.888 347.678 202.816 347.658C202.868 347.398 202.895 347.212 202.895 347.102C202.895 346.939 202.865 346.717 202.807 346.438C202.755 346.151 202.702 345.939 202.65 345.803ZM209.994 345.197L210.043 341.398C209.743 341.359 209.395 341.34 208.998 341.34C209.011 341.288 209.018 341.206 209.018 341.096C209.584 340.751 210.027 340.422 210.346 340.109C210.665 339.797 211.042 339.354 211.479 338.781L211.381 340.539C211.941 340.591 212.553 340.617 213.217 340.617C213.536 340.617 213.884 340.611 214.262 340.598L214.242 341.203C213.904 341.242 213.555 341.262 213.197 341.262C213.165 341.262 213.038 341.258 212.816 341.252C212.595 341.239 212.25 341.223 211.781 341.203C211.658 341.203 211.563 341.216 211.498 341.242C211.439 341.262 211.397 341.304 211.371 341.369C211.352 341.434 211.335 341.558 211.322 341.74C211.316 341.923 211.309 342.115 211.303 342.316L211.254 345.363C211.241 345.949 211.306 346.434 211.449 346.818C211.599 347.196 211.954 347.385 212.514 347.385C212.729 347.385 212.992 347.339 213.305 347.248C213.624 347.15 213.988 347.007 214.398 346.818C214.411 346.87 214.418 346.91 214.418 346.936C214.424 346.962 214.431 346.991 214.438 347.023C214.21 347.271 213.79 347.515 213.178 347.756C212.572 347.997 212.025 348.117 211.537 348.117C211.114 348.117 210.749 347.974 210.443 347.688C210.144 347.395 209.994 346.893 209.994 346.184V345.197ZM220.082 344.338C220.082 343.765 220.186 343.247 220.395 342.785C220.609 342.316 220.902 341.913 221.273 341.574C221.645 341.236 222.077 340.975 222.572 340.793C223.067 340.611 223.598 340.52 224.164 340.52C224.678 340.52 225.163 340.614 225.619 340.803C226.081 340.992 226.485 341.252 226.83 341.584C227.175 341.916 227.445 342.31 227.641 342.766C227.842 343.215 227.943 343.7 227.943 344.221C227.943 344.898 227.781 345.533 227.455 346.125C227.136 346.717 226.68 347.196 226.088 347.561C225.502 347.919 224.825 348.098 224.057 348.098C223.477 348.098 222.878 347.971 222.26 347.717C221.648 347.463 221.13 347.056 220.707 346.496C220.29 345.93 220.082 345.21 220.082 344.338ZM221.361 343.801C221.361 344.406 221.482 345.008 221.723 345.607C221.964 346.206 222.299 346.698 222.729 347.082C223.165 347.466 223.643 347.658 224.164 347.658C224.62 347.658 225.033 347.535 225.404 347.287C225.775 347.033 226.072 346.675 226.293 346.213C226.514 345.751 226.625 345.227 226.625 344.641C226.625 344.048 226.495 343.472 226.234 342.912C225.98 342.346 225.626 341.887 225.17 341.535C224.721 341.177 224.223 340.998 223.676 340.998C223.233 340.998 222.836 341.118 222.484 341.359C222.133 341.6 221.856 341.936 221.654 342.365C221.459 342.795 221.361 343.273 221.361 343.801ZM229.398 341.242V340.656L230.697 340.637C230.704 339.504 230.801 338.605 230.99 337.941C231.179 337.277 231.452 336.737 231.811 336.32C232.097 335.988 232.455 335.686 232.885 335.412C233.314 335.132 233.741 334.917 234.164 334.768C234.587 334.618 234.939 334.543 235.219 334.543C235.596 334.543 235.971 334.611 236.342 334.748C236.713 334.878 236.898 335.035 236.898 335.217C236.898 335.321 236.827 335.477 236.684 335.686C236.54 335.894 236.404 335.998 236.273 335.998L235.492 335.725C234.945 335.523 234.512 335.422 234.193 335.422C233.679 335.422 233.266 335.572 232.953 335.871C232.641 336.171 232.403 336.701 232.24 337.463C232.077 338.225 231.983 339.283 231.957 340.637H234.613V341.262L231.957 341.281L231.918 344.064C231.918 345.184 231.928 346.008 231.947 346.535C231.967 347.062 232.022 347.372 232.113 347.463C232.172 347.508 232.27 347.538 232.406 347.551C232.543 347.564 232.94 347.58 233.598 347.6V347.98C233.214 347.967 232.559 347.958 231.635 347.951C230.717 347.945 229.949 347.941 229.33 347.941V347.619C229.675 347.6 229.932 347.557 230.102 347.492C230.277 347.421 230.404 347.3 230.482 347.131C230.567 346.955 230.619 346.708 230.639 346.389C230.665 346.063 230.678 345.607 230.678 345.021L230.697 341.76C230.697 341.525 230.671 341.392 230.619 341.359C230.495 341.281 230.089 341.242 229.398 341.242ZM52.416 368.197L52.4648 364.398C52.1654 364.359 51.8171 364.34 51.4199 364.34C51.4329 364.288 51.4395 364.206 51.4395 364.096C52.0059 363.751 52.4486 363.422 52.7676 363.109C53.0866 362.797 53.4642 362.354 53.9004 361.781L53.8027 363.539C54.3626 363.591 54.9746 363.617 55.6387 363.617C55.9577 363.617 56.306 363.611 56.6836 363.598L56.6641 364.203C56.3255 364.242 55.9772 364.262 55.6191 364.262C55.5866 364.262 55.4596 364.258 55.2383 364.252C55.0169 364.239 54.6719 364.223 54.2031 364.203C54.0794 364.203 53.985 364.216 53.9199 364.242C53.8613 364.262 53.819 364.304 53.793 364.369C53.7734 364.434 53.7572 364.558 53.7441 364.74C53.7376 364.923 53.7311 365.115 53.7246 365.316L53.6758 368.363C53.6628 368.949 53.7279 369.434 53.8711 369.818C54.0208 370.196 54.3757 370.385 54.9355 370.385C55.1504 370.385 55.4141 370.339 55.7266 370.248C56.0456 370.15 56.4102 370.007 56.8203 369.818C56.8333 369.87 56.8398 369.91 56.8398 369.936C56.8464 369.962 56.8529 369.991 56.8594 370.023C56.6315 370.271 56.2116 370.515 55.5996 370.756C54.9941 370.997 54.4473 371.117 53.959 371.117C53.5358 371.117 53.1712 370.974 52.8652 370.688C52.5658 370.395 52.416 369.893 52.416 369.184V368.197ZM57.2012 359.115V358.744C57.3444 358.673 57.4388 358.624 57.4844 358.598L59.3789 357.68L59.7012 357.504L60.0234 357.66C59.8997 358.246 59.8118 358.923 59.7598 359.691C59.7077 360.453 59.6686 361.423 59.6426 362.602L59.584 364.584C60.3522 364.252 60.974 364.008 61.4492 363.852C61.931 363.695 62.3932 363.617 62.8359 363.617C63.4609 363.617 63.9167 363.809 64.2031 364.193C64.4896 364.571 64.6654 365.036 64.7305 365.59C64.8021 366.137 64.8379 366.859 64.8379 367.758C64.8379 367.934 64.8346 368.096 64.8281 368.246C64.8281 368.396 64.8249 368.607 64.8184 368.881C64.8118 369.148 64.8021 369.395 64.7891 369.623C64.7826 369.844 64.7793 369.971 64.7793 370.004C64.7793 370.284 64.8477 370.469 64.9844 370.561C65.1211 370.652 65.4987 370.697 66.1172 370.697L66.0977 371H65.4629C65.3652 371 64.9616 371.003 64.252 371.01C63.5488 371.016 63.1875 371.02 63.168 371.02C63.1484 371.02 63.0052 371.052 62.7383 371.117C62.6732 371.117 62.6406 371.072 62.6406 370.98C62.6406 370.915 62.6927 370.87 62.7969 370.844C63.0443 370.785 63.2266 370.681 63.3438 370.531C63.4674 370.382 63.5488 370.128 63.5879 369.77C63.6335 369.411 63.6562 368.822 63.6562 368.002C63.6562 366.706 63.5521 365.782 63.3438 365.229C63.1354 364.675 62.6602 364.398 61.918 364.398C61.5339 364.398 61.1107 364.47 60.6484 364.613C60.1862 364.757 59.8444 364.887 59.623 365.004C59.623 365.186 59.61 365.492 59.584 365.922L59.4961 368.275C59.4961 368.425 59.4928 368.562 59.4863 368.686C59.4863 368.809 59.4831 368.946 59.4766 369.096C59.4766 369.727 59.5189 370.134 59.6035 370.316C59.6361 370.427 59.7142 370.505 59.8379 370.551C59.9616 370.59 60.2904 370.632 60.8242 370.678V371.02C60.6094 370.993 60.1536 370.98 59.457 370.98C58.7344 370.98 57.9564 371.013 57.123 371.078L57.1426 370.756C57.5592 370.671 57.8327 370.59 57.9629 370.512C58.0996 370.427 58.1908 370.271 58.2363 370.043C58.2884 369.815 58.3242 369.389 58.3438 368.764C58.3633 367.742 58.3893 366.866 58.4219 366.137L58.4609 363.402C58.474 363.122 58.4805 362.501 58.4805 361.537C58.4805 360.658 58.4414 360.01 58.3633 359.594C58.2917 359.171 58.1094 358.959 57.8164 358.959C57.7708 358.959 57.5658 359.011 57.2012 359.115ZM73.1387 365.922L68.2559 366.977C68.2884 367.589 68.347 368.064 68.4316 368.402C68.5228 368.734 68.6986 369.073 68.959 369.418C69.4603 370.076 70.0658 370.404 70.7754 370.404C71.0684 370.404 71.3809 370.349 71.7129 370.238C72.0449 370.128 72.4128 369.929 72.8164 369.643L72.9922 369.877C71.8594 370.691 70.8535 371.098 69.9746 371.098C69.0436 371.098 68.3177 370.746 67.7969 370.043C67.276 369.34 67.0156 368.533 67.0156 367.621C67.0156 366.69 67.2142 365.919 67.6113 365.307C68.0085 364.688 68.4544 364.239 68.9492 363.959C69.444 363.679 69.8184 363.539 70.0723 363.539C70.3652 363.539 70.668 363.588 70.9805 363.686C71.2995 363.777 71.6087 363.956 71.9082 364.223C72.2142 364.49 72.4681 364.854 72.6699 365.316C72.7285 365.414 72.7839 365.479 72.8359 365.512C72.888 365.544 72.9824 365.561 73.1191 365.561L73.1387 365.922ZM68.2754 366.596L69.5547 366.322C69.6068 366.296 69.8021 366.244 70.1406 366.166C70.4857 366.088 70.7168 366.039 70.834 366.02C71.1725 365.941 71.3874 365.886 71.4785 365.854C71.5697 365.821 71.6152 365.769 71.6152 365.697C71.6152 365.593 71.5371 365.417 71.3809 365.17C71.2246 364.916 71 364.685 70.707 364.477C70.4206 364.268 70.082 364.164 69.6914 364.164C69.2031 364.164 68.8548 364.421 68.6465 364.936C68.4447 365.45 68.321 366.003 68.2754 366.596ZM78.7246 371.02L78.7441 370.717C79.1348 370.626 79.418 370.512 79.5938 370.375C79.7695 370.238 79.8965 369.949 79.9746 369.506C80.0592 369.063 80.1016 368.389 80.1016 367.484C80.1016 366.605 80.056 365.98 79.9648 365.609C79.8802 365.238 79.75 365.007 79.5742 364.916C79.4049 364.825 79.1217 364.773 78.7246 364.76V364.438C79.4212 364.275 80.1341 363.975 80.8633 363.539C80.9414 363.487 81.0065 363.461 81.0586 363.461C81.1888 363.461 81.2669 363.63 81.293 363.969C81.3255 364.307 81.3288 364.604 81.3027 364.857C81.4395 364.779 81.6803 364.649 82.0254 364.467C82.377 364.278 82.6504 364.138 82.8457 364.047C83.0475 363.949 83.3047 363.852 83.6172 363.754C83.9297 363.65 84.2031 363.598 84.4375 363.598C84.776 363.598 85.1081 363.695 85.4336 363.891C85.7656 364.079 85.9935 364.395 86.1172 364.838C87.3216 364.2 88.3633 363.881 89.2422 363.881C89.8672 363.881 90.3229 364.021 90.6094 364.301C90.8958 364.581 91.0684 364.942 91.127 365.385C91.1921 365.821 91.2246 366.452 91.2246 367.279V369.018C91.2051 369.519 91.1986 369.864 91.2051 370.053C91.2116 370.235 91.2409 370.355 91.293 370.414C91.3516 370.466 91.4557 370.502 91.6055 370.521C91.6576 370.528 91.8366 370.564 92.1426 370.629C92.4551 370.694 92.6341 370.73 92.6797 370.736L92.543 371H88.8418L88.7832 370.736C89.1868 370.632 89.4635 370.518 89.6133 370.395C89.763 370.271 89.8672 370.007 89.9258 369.604C89.9909 369.2 90.0234 368.493 90.0234 367.484C90.0234 366.885 89.9714 366.378 89.8672 365.961C89.7695 365.544 89.5905 365.225 89.3301 365.004C89.0697 364.776 88.7083 364.662 88.2461 364.662C87.6602 364.662 86.9798 364.841 86.2051 365.199C86.2376 365.473 86.2604 365.945 86.2734 366.615C86.2865 367.279 86.2995 367.966 86.3125 368.676C86.3255 369.379 86.3353 369.835 86.3418 370.043C86.3548 370.219 86.3841 370.342 86.4297 370.414C86.4753 370.479 86.5599 370.528 86.6836 370.561C86.8138 370.593 87.0872 370.639 87.5039 370.697V371H86.2832C86.1725 371 85.7624 371.013 85.0527 371.039C84.3431 371.065 83.9199 371.078 83.7832 371.078L83.7246 370.775C84.1543 370.691 84.4635 370.58 84.6523 370.443C84.8411 370.3 84.9648 370.053 85.0234 369.701C85.0885 369.343 85.1146 368.738 85.1016 367.885L85.082 366.938C85.069 366.137 84.9453 365.528 84.7109 365.111C84.4831 364.688 84.1055 364.477 83.5781 364.477C83.3242 364.477 83.0573 364.522 82.7773 364.613C82.4974 364.704 82.2305 364.815 81.9766 364.945C81.7227 365.069 81.5046 365.18 81.3223 365.277C81.3158 365.388 81.3092 365.671 81.3027 366.127C81.2962 366.576 81.2897 366.947 81.2832 367.24V368.236C81.2962 369.402 81.3158 370.036 81.3418 370.141C81.3678 370.258 81.4622 370.365 81.625 370.463C81.7878 370.554 82.1393 370.639 82.6797 370.717V371.059C82.6016 371.059 82.3216 371.046 81.8398 371.02C81.3581 370.993 81.0716 370.98 80.9805 370.98L78.7246 371.02ZM95.0039 365.238L93.8027 365.775C93.7507 365.567 93.7246 365.414 93.7246 365.316C93.7246 364.984 93.9264 364.678 94.3301 364.398C94.7402 364.112 95.1992 363.881 95.707 363.705C96.2214 363.529 96.5794 363.441 96.7812 363.441C96.957 363.441 97.1751 363.52 97.4355 363.676C97.696 363.832 97.9043 363.988 98.0605 364.145C98.1973 364.275 98.3014 364.405 98.373 364.535C98.4512 364.659 98.5195 364.857 98.5781 365.131C98.6367 365.404 98.666 365.753 98.666 366.176C98.666 366.299 98.6497 366.736 98.6172 367.484L98.5781 368.217C98.5521 368.568 98.5391 368.848 98.5391 369.057C98.5391 369.324 98.5749 369.61 98.6465 369.916C98.7116 370.229 98.8581 370.385 99.0859 370.385C99.3398 370.385 99.6784 370.29 100.102 370.102V370.502L98.666 371.078C98.3796 371.176 98.2168 371.225 98.1777 371.225C98.028 371.225 97.8783 371.127 97.7285 370.932C97.5853 370.73 97.4681 370.492 97.377 370.219C96.1725 370.889 95.248 371.225 94.6035 371.225C94.2064 371.225 93.9069 371.111 93.7051 370.883C93.5033 370.648 93.4023 370.3 93.4023 369.838C93.4023 369.395 93.4544 369.066 93.5586 368.852C93.6693 368.637 93.8451 368.467 94.0859 368.344C94.5742 368.096 95.0918 367.914 95.6387 367.797C96.1855 367.673 96.7585 367.569 97.3574 367.484L97.4062 366.283V365.961C97.4062 365.408 97.2467 364.971 96.9277 364.652C96.6152 364.327 96.2474 364.164 95.8242 364.164C95.6224 364.164 95.4173 364.223 95.209 364.34C95.0072 364.451 94.9062 364.61 94.9062 364.818C94.9062 364.923 94.9388 365.062 95.0039 365.238ZM97.3184 369.857C97.2988 369.643 97.3184 369.031 97.377 368.021C96.5176 367.963 95.8275 368.067 95.3066 368.334C94.7858 368.601 94.5254 368.936 94.5254 369.34C94.5254 369.633 94.6035 369.91 94.7598 370.17C94.9225 370.43 95.1439 370.561 95.4238 370.561C95.7363 370.561 96.3678 370.326 97.3184 369.857ZM103.441 369.721C103.07 369.63 102.693 369.493 102.309 369.311C101.931 369.128 101.589 368.835 101.283 368.432C100.977 368.021 100.824 367.471 100.824 366.781C100.824 366.156 100.99 365.583 101.322 365.062C101.661 364.535 102.097 364.125 102.631 363.832C103.171 363.533 103.721 363.383 104.281 363.383C104.626 363.383 104.949 363.432 105.248 363.529C105.548 363.62 105.824 363.764 106.078 363.959C106.547 363.868 107.042 363.822 107.562 363.822C107.908 363.822 108.142 363.835 108.266 363.861C108.246 364.213 108.158 364.564 108.002 364.916C107.559 364.734 107.094 364.643 106.605 364.643C106.69 364.76 106.775 364.919 106.859 365.121C106.944 365.316 107.012 365.528 107.064 365.756C107.117 365.984 107.143 366.205 107.143 366.42C107.143 367.019 107.009 367.527 106.742 367.943C106.475 368.36 106.143 368.695 105.746 368.949C105.355 369.197 104.854 369.467 104.242 369.76C103.096 370.268 102.523 370.635 102.523 370.863C102.523 371.26 103.002 371.459 103.959 371.459C104.753 371.459 105.372 371.472 105.814 371.498C106.257 371.524 106.648 371.592 106.986 371.703C107.325 371.814 107.589 371.999 107.777 372.26C107.966 372.527 108.061 372.895 108.061 373.363C108.061 373.995 107.813 374.551 107.318 375.033C106.83 375.521 106.202 375.896 105.434 376.156C104.672 376.423 103.907 376.557 103.139 376.557C102.149 376.557 101.462 376.339 101.078 375.902C100.694 375.473 100.502 375.017 100.502 374.535C100.502 373.988 100.668 373.549 101 373.217C101.339 372.885 101.765 372.566 102.279 372.26C101.589 371.882 101.251 371.381 101.264 370.756C101.57 370.521 102.081 370.271 102.797 370.004L103.441 369.721ZM104.486 369.203C104.955 368.956 105.32 368.682 105.58 368.383C105.847 368.083 105.98 367.595 105.98 366.918C105.98 366.534 105.925 366.166 105.814 365.814C105.704 365.456 105.551 365.141 105.355 364.867C105.16 364.594 104.919 364.376 104.633 364.213C104.353 364.044 104.037 363.959 103.686 363.959C103.152 363.959 102.702 364.164 102.338 364.574C101.98 364.978 101.801 365.492 101.801 366.117C101.801 366.996 102.064 367.657 102.592 368.1C103.119 368.542 103.751 368.91 104.486 369.203ZM102.826 372.484C102.423 372.608 102.058 372.813 101.732 373.1C101.407 373.393 101.244 373.725 101.244 374.096C101.244 374.525 101.495 374.913 101.996 375.258C102.497 375.603 103.145 375.775 103.939 375.775C104.389 375.775 104.877 375.707 105.404 375.57C105.932 375.44 106.381 375.229 106.752 374.936C107.13 374.643 107.318 374.285 107.318 373.861C107.318 373.568 107.217 373.292 107.016 373.031C106.807 372.777 106.495 372.634 106.078 372.602C105.987 372.589 105.655 372.585 105.082 372.592C104.516 372.598 104.177 372.602 104.066 372.602C103.487 372.602 103.074 372.562 102.826 372.484ZM109.086 371.039L109.125 370.736C109.678 370.684 109.991 370.587 110.062 370.443C110.095 370.385 110.124 370.154 110.15 369.75C110.176 369.34 110.196 368.855 110.209 368.295C110.229 367.729 110.238 367.41 110.238 367.338C110.238 366.413 110.222 365.821 110.189 365.561C110.163 365.3 110.108 365.121 110.023 365.023C109.997 364.991 109.835 364.958 109.535 364.926C109.236 364.893 109.086 364.851 109.086 364.799C109.086 364.695 109.145 364.63 109.262 364.604C110.036 364.363 110.795 363.936 111.537 363.324C111.583 363.324 111.645 363.337 111.723 363.363C111.658 363.63 111.602 364.021 111.557 364.535C111.511 365.049 111.472 365.59 111.439 366.156C111.413 366.723 111.4 367.224 111.4 367.66C111.4 367.986 111.41 368.454 111.43 369.066C111.456 369.672 111.498 370.082 111.557 370.297C111.609 370.414 111.674 370.489 111.752 370.521C111.83 370.554 111.986 370.58 112.221 370.6C112.449 370.606 112.676 370.626 112.904 370.658L113.021 370.941L109.086 371.039ZM110.561 359.359C110.561 359.138 110.635 358.956 110.785 358.812C110.935 358.669 111.114 358.598 111.322 358.598C111.531 358.598 111.706 358.673 111.85 358.822C111.993 358.972 112.064 359.151 112.064 359.359C112.064 359.568 111.993 359.747 111.85 359.896C111.713 360.046 111.537 360.121 111.322 360.121C111.114 360.121 110.935 360.046 110.785 359.896C110.635 359.747 110.561 359.568 110.561 359.359ZM120.248 369.779L120.385 370.062C119.519 370.779 118.627 371.137 117.709 371.137C117.182 371.137 116.635 371.029 116.068 370.814C115.508 370.593 115.069 370.31 114.75 369.965C114.548 369.724 114.389 369.389 114.271 368.959C114.161 368.523 114.105 368.103 114.105 367.699C114.105 366.885 114.324 366.146 114.76 365.482C115.196 364.812 115.73 364.291 116.361 363.92C116.999 363.549 117.595 363.363 118.148 363.363C118.48 363.363 118.943 363.458 119.535 363.646C120.128 363.829 120.424 364.001 120.424 364.164C120.424 364.229 120.333 364.398 120.15 364.672C119.968 364.945 119.822 365.082 119.711 365.082C119.659 365.082 119.584 365.056 119.486 365.004C119.395 364.952 119.236 364.864 119.008 364.74C118.298 364.447 117.712 364.301 117.25 364.301C116.592 364.301 116.098 364.516 115.766 364.945C115.434 365.375 115.268 366.02 115.268 366.879C115.268 367.667 115.44 368.331 115.785 368.871C116.13 369.411 116.544 369.805 117.025 370.053C117.514 370.3 117.96 370.424 118.363 370.424C118.702 370.424 119.014 370.365 119.301 370.248C119.594 370.131 119.91 369.975 120.248 369.779Z" fill="white"/>
<path d="M46.5215 316.743C46.484 316.84 46.3231 317.394 46.0386 318.405C45.23 318.644 44.4963 318.832 43.8374 318.966C43.1785 319.094 42.4635 319.157 41.6924 319.157C40.764 319.157 39.8356 318.993 38.9072 318.663C37.9788 318.334 37.144 317.847 36.4028 317.203C35.6616 316.552 35.0739 315.762 34.6396 314.833C34.2054 313.898 33.9883 312.834 33.9883 311.644C33.9883 310.012 34.3888 308.634 35.1899 307.511C35.9985 306.388 37.0243 305.561 38.2671 305.029C39.5174 304.498 40.8052 304.232 42.1304 304.232C43.1711 304.232 44.1743 304.415 45.1401 304.782C45.5894 304.924 45.9263 304.996 46.1509 304.996C46.2557 304.973 46.3306 304.958 46.3755 304.951C46.4279 304.943 46.4915 304.936 46.5664 304.928C46.6113 304.928 46.66 304.958 46.7124 305.018L46.5439 305.658C46.3867 306.22 46.2482 306.935 46.1284 307.803C45.9937 307.781 45.9038 307.736 45.8589 307.668C45.814 307.594 45.7915 307.478 45.7915 307.32C45.7765 306.849 45.7129 306.527 45.6006 306.354C45.3984 306.025 44.8931 305.688 44.0845 305.344C43.2759 304.999 42.4635 304.827 41.6475 304.827C40.5693 304.827 39.5923 305.097 38.7163 305.636C37.8478 306.167 37.159 306.95 36.6499 307.983C36.1483 309.016 35.8975 310.229 35.8975 311.622C35.8975 312.902 36.1183 314.006 36.5601 314.935C37.0093 315.855 37.5671 316.585 38.2334 317.125C38.9072 317.664 39.5885 318.053 40.2773 318.292C40.9736 318.532 41.5763 318.652 42.0854 318.652C42.894 318.652 43.5641 318.521 44.0957 318.259C44.6273 317.989 45.0428 317.671 45.3423 317.304C45.6493 316.93 45.945 316.484 46.2295 315.968C46.3418 315.751 46.4391 315.642 46.5215 315.642C46.6637 315.642 46.7349 315.709 46.7349 315.844C46.7349 315.942 46.6637 316.241 46.5215 316.743ZM47.9253 319.022L47.9478 318.697C48.3221 318.622 48.5804 318.547 48.7227 318.472C48.8649 318.397 48.9884 318.221 49.0933 317.944C49.1981 317.667 49.2655 317.252 49.2954 316.698C49.3328 316.144 49.3516 315.294 49.3516 314.148C49.3516 313.243 49.3029 312.64 49.2056 312.34C49.1082 312.041 48.8649 311.891 48.4756 311.891C48.2435 311.891 48.0076 311.921 47.7681 311.981L47.813 311.622L50.7104 309.937C50.7404 310.401 50.7554 311.038 50.7554 311.846L51.957 311.161C52.0169 311.124 52.0693 311.09 52.1143 311.06C52.1966 311.015 52.2902 310.963 52.395 310.903C52.4998 310.835 52.6795 310.727 52.9341 310.577C53.1886 310.42 53.3908 310.293 53.5405 310.195L53.6304 310.24C53.6753 310.285 53.7277 310.323 53.7876 310.353C54.0122 310.457 54.1882 310.577 54.3154 310.712C54.4427 310.847 54.5063 311.041 54.5063 311.296C54.5063 311.588 54.3866 311.827 54.147 312.015C53.9074 312.202 53.6191 312.314 53.2822 312.352C53.2822 312.097 53.2223 311.902 53.1025 311.768C52.9827 311.633 52.8143 311.565 52.5972 311.565C52.3726 311.565 52.1068 311.648 51.7998 311.812C51.4928 311.97 51.2607 312.119 51.1035 312.262C50.9163 312.426 50.804 312.565 50.7666 312.677C50.7367 312.782 50.7179 313.048 50.7104 313.475C50.6655 314.74 50.6431 315.41 50.6431 315.485C50.6431 316.945 50.7179 317.847 50.8677 318.191C50.9351 318.311 51.0099 318.386 51.0923 318.416C51.1746 318.438 51.3169 318.45 51.519 318.45L51.811 318.427L53.1475 318.405L53.125 318.865C53.0876 318.865 52.8517 318.873 52.4175 318.888C51.9832 318.903 51.6912 318.91 51.5415 318.91L47.9253 319.022ZM55.3374 311.161V310.813C55.7043 310.858 56.2171 310.88 56.876 310.88C57.6471 310.88 58.4146 310.835 59.1782 310.746L59.1445 311.161C58.8376 311.221 58.6167 311.292 58.4819 311.375C58.3472 311.449 58.2798 311.599 58.2798 311.824C58.2798 312.183 58.4408 312.962 58.7627 314.16C59.0846 315.358 59.4665 316.548 59.9082 317.731L60.6494 316.406C60.9714 315.852 61.3532 315.081 61.7949 314.092C62.2367 313.104 62.4575 312.426 62.4575 312.06C62.4575 311.535 61.9372 311.21 60.8965 311.083L61.0537 310.723C61.9447 310.813 62.7196 310.858 63.3784 310.858C63.8651 310.858 64.2357 310.835 64.4902 310.791L64.4678 311.161C64.2656 311.191 64.0822 311.27 63.9175 311.397C63.7603 311.517 63.6105 311.689 63.4683 311.914C63.3335 312.131 63.1838 312.408 63.019 312.745L61.7949 315.271C61.7799 315.309 61.4954 315.863 60.9414 316.934C60.1403 318.506 59.5376 319.756 59.1333 320.685C58.7365 321.613 58.4445 322.384 58.2573 322.998C58.0776 323.612 57.868 324.424 57.6284 325.435H55.2363V325.053C55.7305 324.941 56.1273 324.765 56.4268 324.525C56.7262 324.293 56.9958 323.971 57.2354 323.56C57.4749 323.155 57.7744 322.541 58.1338 321.718L59.0098 319.764C58.583 318.154 58.1899 316.739 57.8306 315.519C57.4712 314.298 57.1305 313.306 56.8086 312.542C56.6589 312.153 56.5054 311.865 56.3481 311.678C56.1984 311.483 56.0562 311.363 55.9214 311.318C55.7941 311.266 55.5994 311.214 55.3374 311.161ZM65.0405 316.473L65.4336 316.496C65.4336 316.638 65.5534 316.87 65.793 317.192C66.04 317.514 66.3695 317.806 66.7812 318.068C67.193 318.322 67.6423 318.45 68.1289 318.45C68.4808 318.45 68.8327 318.375 69.1846 318.225C69.5365 318.075 69.7124 317.75 69.7124 317.248C69.7124 316.724 69.529 316.301 69.1621 315.979C68.7952 315.665 68.3797 315.391 67.9155 315.159L67.0732 314.766C66.5791 314.512 66.186 314.242 65.894 313.958C65.6021 313.681 65.4561 313.321 65.4561 312.879C65.4561 312.535 65.5796 312.176 65.8267 311.801C66.0737 311.419 66.4294 311.105 66.8936 310.858C67.3652 310.611 67.8968 310.487 68.4883 310.487C68.8477 310.487 69.4466 310.543 70.2852 310.656L70.6558 312.565H70.2627C70.1953 312.303 70.0381 312.056 69.791 311.824C69.5514 311.584 69.2669 311.382 68.9375 311.217C68.6156 311.053 68.3385 310.97 68.1064 310.97C67.7096 310.97 67.3877 311.094 67.1406 311.341C66.8936 311.588 66.77 311.902 66.77 312.284C66.77 312.591 66.8599 312.834 67.0396 313.014C67.2192 313.201 67.5599 313.418 68.0615 313.666L68.7466 313.991C69.368 314.283 69.8996 314.624 70.3413 315.013C70.783 315.41 71.0039 315.957 71.0039 316.653C71.0039 316.915 70.9478 317.196 70.8354 317.495C70.7306 317.787 70.5697 317.997 70.3525 318.124C69.7311 318.521 69.2183 318.779 68.814 318.899C68.4097 319.011 67.9979 319.067 67.5786 319.067C67.4289 319.067 67.2155 319.049 66.9385 319.011C66.6615 318.974 66.4668 318.944 66.3545 318.921C66.2422 318.899 66.0475 318.847 65.7705 318.764C65.4935 318.682 65.3138 318.629 65.2314 318.607C65.2913 318.307 65.3213 318.094 65.3213 317.967C65.3213 317.78 65.2876 317.525 65.2202 317.203C65.1603 316.874 65.1004 316.63 65.0405 316.473ZM73.4858 315.777L73.542 311.408C73.1976 311.363 72.797 311.341 72.3403 311.341C72.3553 311.281 72.3628 311.187 72.3628 311.06C73.0142 310.663 73.5233 310.285 73.8901 309.926C74.257 309.566 74.6912 309.057 75.1929 308.398L75.0806 310.42C75.7244 310.48 76.4282 310.51 77.1919 310.51C77.5588 310.51 77.9593 310.502 78.3936 310.487L78.3711 311.184C77.9818 311.229 77.5812 311.251 77.1694 311.251C77.132 311.251 76.986 311.247 76.7314 311.24C76.4769 311.225 76.0801 311.206 75.541 311.184C75.3988 311.184 75.2902 311.199 75.2153 311.229C75.1479 311.251 75.0993 311.3 75.0693 311.375C75.0469 311.449 75.0282 311.592 75.0132 311.801C75.0057 312.011 74.9982 312.232 74.9907 312.464L74.9346 315.968C74.9196 316.642 74.9945 317.199 75.1592 317.641C75.3314 318.075 75.7394 318.292 76.3833 318.292C76.6304 318.292 76.9336 318.24 77.293 318.135C77.6598 318.023 78.0791 317.858 78.5508 317.641C78.5658 317.701 78.5732 317.746 78.5732 317.776C78.5807 317.806 78.5882 317.84 78.5957 317.877C78.3337 318.161 77.8507 318.442 77.147 318.719C76.4507 318.996 75.8218 319.135 75.2603 319.135C74.7736 319.135 74.3543 318.97 74.0024 318.641C73.658 318.304 73.4858 317.727 73.4858 316.911V315.777ZM81.3359 312.374L79.9546 312.992C79.8947 312.752 79.8647 312.576 79.8647 312.464C79.8647 312.082 80.0968 311.73 80.561 311.408C81.0327 311.079 81.5605 310.813 82.1445 310.611C82.736 310.409 83.1478 310.308 83.3799 310.308C83.582 310.308 83.8328 310.397 84.1323 310.577C84.4318 310.757 84.6714 310.937 84.8511 311.116C85.0083 311.266 85.1281 311.416 85.2104 311.565C85.3003 311.708 85.3789 311.936 85.4463 312.25C85.5137 312.565 85.5474 312.965 85.5474 313.452C85.5474 313.594 85.5286 314.096 85.4912 314.957L85.4463 315.799C85.4163 316.204 85.4014 316.526 85.4014 316.765C85.4014 317.072 85.4425 317.402 85.5249 317.753C85.5998 318.113 85.7682 318.292 86.0303 318.292C86.3223 318.292 86.7116 318.184 87.1982 317.967V318.427L85.5474 319.09C85.2179 319.202 85.0308 319.258 84.9858 319.258C84.8136 319.258 84.6414 319.146 84.4692 318.921C84.3045 318.689 84.1698 318.416 84.0649 318.102C82.6799 318.873 81.6167 319.258 80.8755 319.258C80.4188 319.258 80.0744 319.127 79.8423 318.865C79.6102 318.596 79.4941 318.195 79.4941 317.664C79.4941 317.154 79.554 316.776 79.6738 316.529C79.8011 316.282 80.0033 316.088 80.2803 315.945C80.8418 315.661 81.437 315.451 82.0659 315.316C82.6948 315.174 83.3537 315.054 84.0425 314.957L84.0986 313.576V313.205C84.0986 312.569 83.9152 312.067 83.5483 311.7C83.189 311.326 82.766 311.139 82.2793 311.139C82.0472 311.139 81.8114 311.206 81.5718 311.341C81.3397 311.468 81.2236 311.652 81.2236 311.891C81.2236 312.011 81.2611 312.172 81.3359 312.374ZM83.9976 317.686C83.9751 317.439 83.9976 316.735 84.0649 315.575C83.0767 315.507 82.283 315.627 81.6841 315.934C81.0851 316.241 80.7856 316.627 80.7856 317.091C80.7856 317.428 80.8755 317.746 81.0552 318.045C81.2424 318.345 81.4969 318.495 81.8188 318.495C82.1782 318.495 82.9045 318.225 83.9976 317.686ZM87.5015 319.045V318.697C88.063 318.599 88.4598 318.431 88.6919 318.191C88.924 317.952 89.07 317.585 89.1299 317.091C89.1673 316.836 89.2085 316.252 89.2534 315.339C89.2983 314.418 89.3395 313.366 89.377 312.183C89.4144 311 89.4331 309.937 89.4331 308.994C89.4331 307.017 89.332 305.89 89.1299 305.613C89.0026 305.426 88.748 305.333 88.3662 305.333C88.2764 305.333 88.2052 305.336 88.1528 305.344C88.1004 305.351 88.0518 305.359 88.0068 305.366C87.9619 305.374 87.9132 305.381 87.8608 305.389V305.041C89.2909 304.442 90.2979 303.936 90.8818 303.524H91.2188C90.9867 304.408 90.8407 306.01 90.7808 308.331L90.6909 313.733C90.6909 316.264 90.7471 317.697 90.8594 318.034C90.9268 318.229 91.1514 318.379 91.5332 318.483C91.915 318.581 92.2557 318.644 92.5552 318.674V319.09C91.0877 318.985 90.0994 318.933 89.5903 318.933C88.909 318.933 88.2127 318.97 87.5015 319.045Z" fill="white"/>
<rect x="66" y="198" width="167" height="15" rx="6" fill="url(#paint1_linear_9_200)" stroke="#B26B42" stroke-width="2"/>
<path d="M79.6521 216.721C79.0352 216.087 79.4843 215.023 80.3687 215.023L224.111 215.024C225.039 215.024 225.466 216.177 224.763 216.782L198.042 239.775C197.861 239.931 197.629 240.017 197.39 240.017L102.749 240.017C102.479 240.017 102.221 239.908 102.032 239.714L79.6521 216.721Z" fill="#1F1F1F"/>
<circle cx="147.5" cy="123.5" r="70" fill="#1F1F1F" stroke="#B26B42" stroke-width="3"/>
<circle cx="147" cy="123" r="59.5" fill="#1F1F1F" stroke="#B26B42" stroke-width="3"/>
<g filter="url(#filter0_dd_9_200)">
<circle cx="149.154" cy="125.657" r="17.57" transform="rotate(-25.8726 149.154 125.657)" stroke="#B26B42" stroke-width="2" shape-rendering="crispEdges"/>
</g>
<g filter="url(#filter1_dd_9_200)">
<circle cx="150.46" cy="126.11" r="9.77369" transform="rotate(-25.8726 150.46 126.11)" fill="#B26B42"/>
</g>
<g filter="url(#filter2_dd_9_200)">
<circle cx="146.995" cy="123.446" r="38.0948" transform="rotate(-25.8726 146.995 123.446)" stroke="#B26B42" stroke-width="2" shape-rendering="crispEdges"/>
</g>
<g filter="url(#filter3_dd_9_200)">
<path d="M142.884 104.377C153.356 102.514 165.484 105.985 182.321 114.495C172.881 133.963 162.815 144.932 151.67 147.249C140.555 149.559 127.833 143.354 112.824 127.017C123.383 113.454 132.436 106.236 142.884 104.377Z" stroke="#B26B42" stroke-width="2" shape-rendering="crispEdges"/>
</g>
<g filter="url(#filter4_dd_9_200)">
<path d="M110.337 220.329L112.454 223.718L116.331 222.753L113.762 225.813L115.878 229.203L112.174 227.705L109.604 230.765L109.884 226.779L106.179 225.281L110.057 224.315L110.337 220.329Z" fill="#B26B42"/>
</g>
<g filter="url(#filter5_dd_9_200)">
<path d="M127.67 220.145L128.086 224.119L131.995 224.951L128.344 226.575L128.76 230.55L126.087 227.579L122.436 229.204L124.435 225.744L121.762 222.773L125.671 223.605L127.67 220.145Z" fill="#B26B42"/>
</g>
<g filter="url(#filter6_dd_9_200)">
<path d="M139.79 220.702L142.733 223.406L146.214 221.442L144.552 225.076L147.494 227.78L143.525 227.322L141.863 230.956L141.071 227.04L137.102 226.582L140.582 224.619L139.79 220.702Z" fill="#B26B42"/>
</g>
<g filter="url(#filter7_dd_9_200)">
<path d="M153.931 222.654L157.805 223.634L159.934 220.253L160.199 224.24L164.073 225.221L160.363 226.705L160.627 230.692L158.07 227.622L154.359 229.105L156.489 225.724L153.931 222.654Z" fill="#B26B42"/>
</g>
<g filter="url(#filter8_dd_9_200)">
<path d="M168.681 224.237L172.677 224.223L173.898 220.418L175.147 224.214L179.143 224.2L175.918 226.56L177.166 230.356L173.925 228.019L170.701 230.379L171.922 226.574L168.681 224.237Z" fill="#B26B42"/>
</g>
<g filter="url(#filter9_dd_9_200)">
<path d="M187.11 220.033L189.663 223.108L193.376 221.631L191.24 225.008L193.793 228.083L189.92 227.096L187.785 230.473L187.527 226.486L183.655 225.498L187.368 224.021L187.11 220.033Z" fill="#B26B42"/>
</g>
<line x1="200.192" y1="167.538" x2="236.192" y2="182.538" stroke="#B26B42"/>
<line x1="190.224" y1="179.553" x2="206.224" y2="187.553" stroke="#B26B42"/>
<line x1="180.312" y1="186.61" x2="190.312" y2="194.61" stroke="#B26B42"/>
<line x1="209.182" y1="154.534" x2="232.182" y2="163.534" stroke="#B26B42"/>
<line x1="216.068" y1="138.505" x2="245.068" y2="142.505" stroke="#B26B42"/>
<line x1="217.918" y1="123.507" x2="247.918" y2="118.507" stroke="#B26B42"/>
<line x1="215.783" y1="103.549" x2="242.783" y2="90.5495" stroke="#B26B42"/>
<line x1="208.754" y1="88.5647" x2="231.754" y2="75.5647" stroke="#B26B42"/>
<line x1="199.735" y1="76.576" x2="215.735" y2="66.576" stroke="#B26B42"/>
<line x1="185.636" y1="64.6573" x2="201.636" y2="47.6573" stroke="#B26B42"/>
<line x1="177.586" y1="60.7192" x2="196.586" y2="32.7192" stroke="#B26B42"/>
<line x1="169.553" y1="56.7764" x2="176.553" y2="42.7764" stroke="#B26B42"/>
<line x1="159.519" y1="54.8626" x2="163.519" y2="40.8626" stroke="#B26B42"/>
<line x1="149.501" y1="51.9773" x2="150.501" y2="29.9773" stroke="#B26B42"/>
<line x1="136.503" y1="53.0552" x2="134.503" y2="35.0552" stroke="#B26B42"/>
<line x1="122.521" y1="57.142" x2="114.521" y2="30.142" stroke="#B26B42"/>
<line x1="111.538" y1="63.1904" x2="104.538" y2="46.1904" stroke="#B26B42"/>
<line x1="98.7" y1="72.4" x2="74.7" y2="54.4" stroke="#B26B42"/>
<line x1="104.626" y1="66.3322" x2="96.6263" y2="57.3322" stroke="#B26B42"/>
<line x1="92.7905" y1="80.454" x2="79.7905" y2="74.454" stroke="#B26B42"/>
<line x1="85.8244" y1="87.4682" x2="69.8244" y2="81.4682" stroke="#B26B42"/>
<line x1="81.853" y1="96.4779" x2="68.853" y2="92.4779" stroke="#B26B42"/>
<line x1="79.8563" y1="107.479" x2="59.8563" y2="101.479" stroke="#B26B42"/>
<line x1="76.9678" y1="118.499" x2="45.9678" y2="116.499" stroke="#B26B42"/>
<line x1="77" y1="130.5" x2="60" y2="130.5" stroke="#B26B42"/>
<line x1="81.0921" y1="142.491" x2="65.0921" y2="145.491" stroke="#B26B42"/>
<line x1="83.1812" y1="152.466" x2="65.1812" y2="159.466" stroke="#B26B42"/>
<line x1="88.2711" y1="162.42" x2="57.2711" y2="182.42" stroke="#B26B42"/>
<line x1="96.2906" y1="171.407" x2="82.2906" y2="181.407" stroke="#B26B42"/>
<line x1="104.354" y1="178.354" x2="96.3536" y2="186.354" stroke="#B26B42"/>
<line x1="115.41" y1="186.287" x2="108.41" y2="196.287" stroke="#B26B42"/>
<line x1="217.871" y1="113.517" x2="232.871" y2="109.517" stroke="#B26B42"/>
<defs>
<filter id="filter0_dd_9_200" x="126.579" y="107.083" width="45.1485" height="45.1485" filterUnits="userSpaceOnUse" color-interpolation-filters="sRGB">
<feFlood flood-opacity="0" result="BackgroundImageFix"/>
<feColorMatrix in="SourceAlpha" type="matrix" values="0 0 0 0 0 0 0 0 0 0 0 0 0 0 0 0 0 0 127 0" result="hardAlpha"/>
<feOffset dy="4"/>
<feGaussianBlur stdDeviation="2"/>
<feComposite in2="hardAlpha" operator="out"/>
<feColorMatrix type="matrix" values="0 0 0 0 0 0 0 0 0 0 0 0 0 0 0 0 0 0 0.25 0"/>
<feBlend mode="normal" in2="BackgroundImageFix" result="effect1_dropShadow_9_200"/>
<feColorMatrix in="SourceAlpha" type="matrix" values="0 0 0 0 0 0 0 0 0 0 0 0 0 0 0 0 0 0 127 0" result="hardAlpha"/>
<feOffset dy="4"/>
<feGaussianBlur stdDeviation="2"/>
<feComposite in2="hardAlpha" operator="out"/>
<feColorMatrix type="matrix" values="0 0 0 0 0 0 0 0 0 0 0 0 0 0 0 0 0 0 0.25 0"/>
<feBlend mode="normal" in2="effect1_dropShadow_9_200" result="effect2_dropShadow_9_200"/>
<feBlend mode="normal" in="SourceGraphic" in2="effect2_dropShadow_9_200" result="shape"/>
</filter>
<filter id="filter1_dd_9_200" x="136.684" y="116.334" width="27.5518" height="27.5518" filterUnits="userSpaceOnUse" color-interpolation-filters="sRGB">
<feFlood flood-opacity="0" result="BackgroundImageFix"/>
<feColorMatrix in="SourceAlpha" type="matrix" values="0 0 0 0 0 0 0 0 0 0 0 0 0 0 0 0 0 0 127 0" result="hardAlpha"/>
<feOffset dy="4"/>
<feGaussianBlur stdDeviation="2"/>
<feComposite in2="hardAlpha" operator="out"/>
<feColorMatrix type="matrix" values="0 0 0 0 0 0 0 0 0 0 0 0 0 0 0 0 0 0 0.25 0"/>
<feBlend mode="normal" in2="BackgroundImageFix" result="effect1_dropShadow_9_200"/>
<feColorMatrix in="SourceAlpha" type="matrix" values="0 0 0 0 0 0 0 0 0 0 0 0 0 0 0 0 0 0 127 0" result="hardAlpha"/>
<feOffset dy="4"/>
<feGaussianBlur stdDeviation="2"/>
<feComposite in2="hardAlpha" operator="out"/>
<feColorMatrix type="matrix" values="0 0 0 0 0 0 0 0 0 0 0 0 0 0 0 0 0 0 0.25 0"/>
<feBlend mode="normal" in2="effect1_dropShadow_9_200" result="effect2_dropShadow_9_200"/>
<feBlend mode="normal" in="SourceGraphic" in2="effect2_dropShadow_9_200" result="shape"/>
</filter>
<filter id="filter2_dd_9_200" x="103.891" y="84.3419" width="86.2074" height="86.2074" filterUnits="userSpaceOnUse" color-interpolation-filters="sRGB">
<feFlood flood-opacity="0" result="BackgroundImageFix"/>
<feColorMatrix in="SourceAlpha" type="matrix" values="0 0 0 0 0 0 0 0 0 0 0 0 0 0 0 0 0 0 127 0" result="hardAlpha"/>
<feOffset dy="4"/>
<feGaussianBlur stdDeviation="2"/>
<feComposite in2="hardAlpha" operator="out"/>
<feColorMatrix type="matrix" values="0 0 0 0 0 0 0 0 0 0 0 0 0 0 0 0 0 0 0.25 0"/>
<feBlend mode="normal" in2="BackgroundImageFix" result="effect1_dropShadow_9_200"/>
<feColorMatrix in="SourceAlpha" type="matrix" values="0 0 0 0 0 0 0 0 0 0 0 0 0 0 0 0 0 0 127 0" result="hardAlpha"/>
<feOffset dy="4"/>
<feGaussianBlur stdDeviation="2"/>
<feComposite in2="hardAlpha" operator="out"/>
<feColorMatrix type="matrix" values="0 0 0 0 0 0 0 0 0 0 0 0 0 0 0 0 0 0 0.25 0"/>
<feBlend mode="normal" in2="effect1_dropShadow_9_200" result="effect2_dropShadow_9_200"/>
<feBlend mode="normal" in="SourceGraphic" in2="effect2_dropShadow_9_200" result="shape"/>
</filter>
<filter id="filter3_dd_9_200" x="107.518" y="102.888" width="80.1284" height="53.8287" filterUnits="userSpaceOnUse" color-interpolation-filters="sRGB">
<feFlood flood-opacity="0" result="BackgroundImageFix"/>
<feColorMatrix in="SourceAlpha" type="matrix" values="0 0 0 0 0 0 0 0 0 0 0 0 0 0 0 0 0 0 127 0" result="hardAlpha"/>
<feOffset dy="4"/>
<feGaussianBlur stdDeviation="2"/>
<feComposite in2="hardAlpha" operator="out"/>
<feColorMatrix type="matrix" values="0 0 0 0 0 0 0 0 0 0 0 0 0 0 0 0 0 0 0.25 0"/>
<feBlend mode="normal" in2="BackgroundImageFix" result="effect1_dropShadow_9_200"/>
<feColorMatrix in="SourceAlpha" type="matrix" values="0 0 0 0 0 0 0 0 0 0 0 0 0 0 0 0 0 0 127 0" result="hardAlpha"/>
<feOffset dy="4"/>
<feGaussianBlur stdDeviation="2"/>
<feComposite in2="hardAlpha" operator="out"/>
<feColorMatrix type="matrix" values="0 0 0 0 0 0 0 0 0 0 0 0 0 0 0 0 0 0 0.25 0"/>
<feBlend mode="normal" in2="effect1_dropShadow_9_200" result="effect2_dropShadow_9_200"/>
<feBlend mode="normal" in="SourceGraphic" in2="effect2_dropShadow_9_200" result="shape"/>
</filter>
<filter id="filter4_dd_9_200" x="102.18" y="220.329" width="18.1516" height="18.4359" filterUnits="userSpaceOnUse" color-interpolation-filters="sRGB">
<feFlood flood-opacity="0" result="BackgroundImageFix"/>
<feColorMatrix in="SourceAlpha" type="matrix" values="0 0 0 0 0 0 0 0 0 0 0 0 0 0 0 0 0 0 127 0" result="hardAlpha"/>
<feOffset dy="4"/>
<feGaussianBlur stdDeviation="2"/>
<feComposite in2="hardAlpha" operator="out"/>
<feColorMatrix type="matrix" values="0 0 0 0 0 0 0 0 0 0 0 0 0 0 0 0 0 0 0.25 0"/>
<feBlend mode="normal" in2="BackgroundImageFix" result="effect1_dropShadow_9_200"/>
<feColorMatrix in="SourceAlpha" type="matrix" values="0 0 0 0 0 0 0 0 0 0 0 0 0 0 0 0 0 0 127 0" result="hardAlpha"/>
<feOffset dy="4"/>
<feGaussianBlur stdDeviation="2"/>
<feComposite in2="hardAlpha" operator="out"/>
<feColorMatrix type="matrix" values="0 0 0 0 0 0 0 0 0 0 0 0 0 0 0 0 0 0 0.25 0"/>
<feBlend mode="normal" in2="effect1_dropShadow_9_200" result="effect2_dropShadow_9_200"/>
<feBlend mode="normal" in="SourceGraphic" in2="effect2_dropShadow_9_200" result="shape"/>
</filter>
<filter id="filter5_dd_9_200" x="117.762" y="220.145" width="18.2324" height="18.4046" filterUnits="userSpaceOnUse" color-interpolation-filters="sRGB">
<feFlood flood-opacity="0" result="BackgroundImageFix"/>
<feColorMatrix in="SourceAlpha" type="matrix" values="0 0 0 0 0 0 0 0 0 0 0 0 0 0 0 0 0 0 127 0" result="hardAlpha"/>
<feOffset dy="4"/>
<feGaussianBlur stdDeviation="2"/>
<feComposite in2="hardAlpha" operator="out"/>
<feColorMatrix type="matrix" values="0 0 0 0 0 0 0 0 0 0 0 0 0 0 0 0 0 0 0.25 0"/>
<feBlend mode="normal" in2="BackgroundImageFix" result="effect1_dropShadow_9_200"/>
<feColorMatrix in="SourceAlpha" type="matrix" values="0 0 0 0 0 0 0 0 0 0 0 0 0 0 0 0 0 0 127 0" result="hardAlpha"/>
<feOffset dy="4"/>
<feGaussianBlur stdDeviation="2"/>
<feComposite in2="hardAlpha" operator="out"/>
<feColorMatrix type="matrix" values="0 0 0 0 0 0 0 0 0 0 0 0 0 0 0 0 0 0 0.25 0"/>
<feBlend mode="normal" in2="effect1_dropShadow_9_200" result="effect2_dropShadow_9_200"/>
<feBlend mode="normal" in="SourceGraphic" in2="effect2_dropShadow_9_200" result="shape"/>
</filter>
<filter id="filter6_dd_9_200" x="133.102" y="220.702" width="18.3928" height="18.2543" filterUnits="userSpaceOnUse" color-interpolation-filters="sRGB">
<feFlood flood-opacity="0" result="BackgroundImageFix"/>
<feColorMatrix in="SourceAlpha" type="matrix" values="0 0 0 0 0 0 0 0 0 0 0 0 0 0 0 0 0 0 127 0" result="hardAlpha"/>
<feOffset dy="4"/>
<feGaussianBlur stdDeviation="2"/>
<feComposite in2="hardAlpha" operator="out"/>
<feColorMatrix type="matrix" values="0 0 0 0 0 0 0 0 0 0 0 0 0 0 0 0 0 0 0.25 0"/>
<feBlend mode="normal" in2="BackgroundImageFix" result="effect1_dropShadow_9_200"/>
<feColorMatrix in="SourceAlpha" type="matrix" values="0 0 0 0 0 0 0 0 0 0 0 0 0 0 0 0 0 0 127 0" result="hardAlpha"/>
<feOffset dy="4"/>
<feGaussianBlur stdDeviation="2"/>
<feComposite in2="hardAlpha" operator="out"/>
<feColorMatrix type="matrix" values="0 0 0 0 0 0 0 0 0 0 0 0 0 0 0 0 0 0 0.25 0"/>
<feBlend mode="normal" in2="effect1_dropShadow_9_200" result="effect2_dropShadow_9_200"/>
<feBlend mode="normal" in="SourceGraphic" in2="effect2_dropShadow_9_200" result="shape"/>
</filter>
<filter id="filter7_dd_9_200" x="149.931" y="220.253" width="18.1418" height="18.4387" filterUnits="userSpaceOnUse" color-interpolation-filters="sRGB">
<feFlood flood-opacity="0" result="BackgroundImageFix"/>
<feColorMatrix in="SourceAlpha" type="matrix" values="0 0 0 0 0 0 0 0 0 0 0 0 0 0 0 0 0 0 127 0" result="hardAlpha"/>
<feOffset dy="4"/>
<feGaussianBlur stdDeviation="2"/>
<feComposite in2="hardAlpha" operator="out"/>
<feColorMatrix type="matrix" values="0 0 0 0 0 0 0 0 0 0 0 0 0 0 0 0 0 0 0.25 0"/>
<feBlend mode="normal" in2="BackgroundImageFix" result="effect1_dropShadow_9_200"/>
<feColorMatrix in="SourceAlpha" type="matrix" values="0 0 0 0 0 0 0 0 0 0 0 0 0 0 0 0 0 0 127 0" result="hardAlpha"/>
<feOffset dy="4"/>
<feGaussianBlur stdDeviation="2"/>
<feComposite in2="hardAlpha" operator="out"/>
<feColorMatrix type="matrix" values="0 0 0 0 0 0 0 0 0 0 0 0 0 0 0 0 0 0 0.25 0"/>
<feBlend mode="normal" in2="effect1_dropShadow_9_200" result="effect2_dropShadow_9_200"/>
<feBlend mode="normal" in="SourceGraphic" in2="effect2_dropShadow_9_200" result="shape"/>
</filter>
<filter id="filter8_dd_9_200" x="164.681" y="220.418" width="18.4615" height="17.961" filterUnits="userSpaceOnUse" color-interpolation-filters="sRGB">
<feFlood flood-opacity="0" result="BackgroundImageFix"/>
<feColorMatrix in="SourceAlpha" type="matrix" values="0 0 0 0 0 0 0 0 0 0 0 0 0 0 0 0 0 0 127 0" result="hardAlpha"/>
<feOffset dy="4"/>
<feGaussianBlur stdDeviation="2"/>
<feComposite in2="hardAlpha" operator="out"/>
<feColorMatrix type="matrix" values="0 0 0 0 0 0 0 0 0 0 0 0 0 0 0 0 0 0 0.25 0"/>
<feBlend mode="normal" in2="BackgroundImageFix" result="effect1_dropShadow_9_200"/>
<feColorMatrix in="SourceAlpha" type="matrix" values="0 0 0 0 0 0 0 0 0 0 0 0 0 0 0 0 0 0 127 0" result="hardAlpha"/>
<feOffset dy="4"/>
<feGaussianBlur stdDeviation="2"/>
<feComposite in2="hardAlpha" operator="out"/>
<feColorMatrix type="matrix" values="0 0 0 0 0 0 0 0 0 0 0 0 0 0 0 0 0 0 0.25 0"/>
<feBlend mode="normal" in2="effect1_dropShadow_9_200" result="effect2_dropShadow_9_200"/>
<feBlend mode="normal" in="SourceGraphic" in2="effect2_dropShadow_9_200" result="shape"/>
</filter>
<filter id="filter9_dd_9_200" x="179.655" y="220.033" width="18.1374" height="18.4398" filterUnits="userSpaceOnUse" color-interpolation-filters="sRGB">
<feFlood flood-opacity="0" result="BackgroundImageFix"/>
<feColorMatrix in="SourceAlpha" type="matrix" values="0 0 0 0 0 0 0 0 0 0 0 0 0 0 0 0 0 0 127 0" result="hardAlpha"/>
<feOffset dy="4"/>
<feGaussianBlur stdDeviation="2"/>
<feComposite in2="hardAlpha" operator="out"/>
<feColorMatrix type="matrix" values="0 0 0 0 0 0 0 0 0 0 0 0 0 0 0 0 0 0 0.25 0"/>
<feBlend mode="normal" in2="BackgroundImageFix" result="effect1_dropShadow_9_200"/>
<feColorMatrix in="SourceAlpha" type="matrix" values="0 0 0 0 0 0 0 0 0 0 0 0 0 0 0 0 0 0 127 0" result="hardAlpha"/>
<feOffset dy="4"/>
<feGaussianBlur stdDeviation="2"/>
<feComposite in2="hardAlpha" operator="out"/>
<feColorMatrix type="matrix" values="0 0 0 0 0 0 0 0 0 0 0 0 0 0 0 0 0 0 0.25 0"/>
<feBlend mode="normal" in2="effect1_dropShadow_9_200" result="effect2_dropShadow_9_200"/>
<feBlend mode="normal" in="SourceGraphic" in2="effect2_dropShadow_9_200" result="shape"/>
</filter>
<radialGradient id="paint0_radial_9_200" cx="0" cy="0" r="1" gradientUnits="userSpaceOnUse" gradientTransform="translate(145 150) rotate(90) scale(141 118)">
<stop stop-color="#B26B42"/>
<stop offset="0.0001" stop-color="#B26B42" stop-opacity="0.395"/>
<stop offset="0.675" stop-color="#B26B42" stop-opacity="0.325"/>
<stop offset="1" stop-color="#B26B42" stop-opacity="0"/>
</radialGradient>
<linearGradient id="paint1_linear_9_200" x1="65" y1="205.5" x2="234" y2="205.5" gradientUnits="userSpaceOnUse">
<stop offset="1" stop-color="#1E1A18"/>
</linearGradient>
</defs>
</svg>
