<svg width="376" height="550" viewBox="0 0 376 550" fill="none" xmlns="http://www.w3.org/2000/svg">
<rect y="0.0103149" width="376" height="549.99" rx="29" fill="#141212"/>
<rect x="2.62021" y="20.9625" width="352.418" height="487.134" fill="url(#paint0_radial_14_228)" fill-opacity="0.25"/>
<path d="M54.6518 414.667V414.325C55.4721 414.332 56.0092 414.338 56.2631 414.345C56.517 414.351 56.7286 414.358 56.8979 414.364C57.9916 414.364 58.711 414.351 59.0561 414.325L59.0366 414.706C58.5873 414.745 58.252 414.8 58.0307 414.872C57.8093 414.937 57.6498 415.08 57.5522 415.302C57.4936 415.445 57.4513 415.803 57.4252 416.376C57.3992 416.949 57.3764 417.684 57.3569 418.583C57.3308 419.592 57.3113 420.507 57.2983 421.327C57.2853 422.147 57.2787 422.961 57.2787 423.768C57.2787 424.504 57.2983 425.048 57.3373 425.399C57.3764 425.751 57.4415 425.972 57.5326 426.063C57.6433 426.148 57.8256 426.21 58.0795 426.249C58.3399 426.288 58.8901 426.307 59.7299 426.307C60.6544 426.307 61.4259 426.233 62.0444 426.083C62.6694 425.933 63.1381 425.774 63.4506 425.604C63.8673 425.35 64.1537 424.918 64.31 424.306L64.6323 424.345C64.5932 424.612 64.5053 425.012 64.3686 425.546C64.2319 426.08 64.0724 426.565 63.8901 427.001C63.3302 426.936 62.8842 426.903 62.5522 426.903C62.3504 426.897 62.1616 426.89 61.9858 426.884C61.8165 426.884 61.6179 426.884 61.3901 426.884H54.5346L54.5151 426.581C54.8992 426.503 55.1791 426.418 55.3549 426.327C55.5307 426.236 55.6609 426.08 55.7455 425.858C55.8367 425.63 55.892 425.292 55.9116 424.843C55.9376 424.393 55.9506 423.746 55.9506 422.899L55.9701 418.602C55.9832 417.632 55.9832 416.897 55.9701 416.395C55.9571 415.894 55.9116 415.523 55.8334 415.282C55.7553 415.035 55.6316 414.875 55.4623 414.804C55.2931 414.725 55.0229 414.68 54.6518 414.667ZM71.8881 421.806L67.0053 422.86C67.0379 423.472 67.0964 423.947 67.1811 424.286C67.2722 424.618 67.448 424.957 67.7084 425.302C68.2097 425.959 68.8152 426.288 69.5248 426.288C69.8178 426.288 70.1303 426.233 70.4623 426.122C70.7944 426.011 71.1622 425.813 71.5658 425.526L71.7416 425.761C70.6088 426.574 69.603 426.981 68.7241 426.981C67.7931 426.981 67.0672 426.63 66.5463 425.927C66.0255 425.224 65.7651 424.416 65.7651 423.505C65.7651 422.574 65.9636 421.802 66.3608 421.19C66.7579 420.572 67.2039 420.123 67.6987 419.843C68.1935 419.563 68.5678 419.423 68.8217 419.423C69.1147 419.423 69.4174 419.472 69.7299 419.569C70.0489 419.66 70.3582 419.839 70.6576 420.106C70.9636 420.373 71.2175 420.738 71.4194 421.2C71.478 421.298 71.5333 421.363 71.5854 421.395C71.6375 421.428 71.7319 421.444 71.8686 421.444L71.8881 421.806ZM67.0248 422.479L68.3041 422.206C68.3562 422.18 68.5515 422.128 68.8901 422.05C69.2351 421.972 69.4662 421.923 69.5834 421.903C69.922 421.825 70.1368 421.77 70.228 421.737C70.3191 421.705 70.3647 421.653 70.3647 421.581C70.3647 421.477 70.2866 421.301 70.1303 421.054C69.9741 420.8 69.7494 420.569 69.4565 420.36C69.17 420.152 68.8315 420.048 68.4408 420.048C67.9526 420.048 67.6043 420.305 67.3959 420.819C67.1941 421.334 67.0704 421.887 67.0248 422.479ZM73.7045 424.081L73.7533 420.282C73.4539 420.243 73.1056 420.224 72.7084 420.224C72.7214 420.171 72.728 420.09 72.728 419.979C73.2944 419.634 73.7371 419.306 74.0561 418.993C74.3751 418.681 74.7527 418.238 75.1889 417.665L75.0912 419.423C75.6511 419.475 76.2631 419.501 76.9272 419.501C77.2462 419.501 77.5945 419.494 77.9721 419.481L77.9526 420.087C77.614 420.126 77.2657 420.145 76.9076 420.145C76.8751 420.145 76.7481 420.142 76.5268 420.136C76.3054 420.123 75.9604 420.106 75.4916 420.087C75.3679 420.087 75.2735 420.1 75.2084 420.126C75.1498 420.145 75.1075 420.188 75.0815 420.253C75.0619 420.318 75.0457 420.442 75.0326 420.624C75.0261 420.806 75.0196 420.998 75.0131 421.2L74.9643 424.247C74.9513 424.833 75.0164 425.318 75.1596 425.702C75.3093 426.08 75.6642 426.268 76.2241 426.268C76.4389 426.268 76.7026 426.223 77.0151 426.132C77.3341 426.034 77.6987 425.891 78.1088 425.702C78.1218 425.754 78.1283 425.793 78.1283 425.819C78.1349 425.845 78.1414 425.875 78.1479 425.907C77.92 426.155 77.5001 426.399 76.8881 426.64C76.2826 426.88 75.7358 427.001 75.2475 427.001C74.8243 427.001 74.4597 426.858 74.1537 426.571C73.8543 426.278 73.7045 425.777 73.7045 425.067V424.081ZM84.4467 424.081L84.4955 420.282C84.1961 420.243 83.8478 420.224 83.4506 420.224C83.4636 420.171 83.4701 420.09 83.4701 419.979C84.0366 419.634 84.4793 419.306 84.7983 418.993C85.1173 418.681 85.4949 418.238 85.9311 417.665L85.8334 419.423C86.3933 419.475 87.0053 419.501 87.6694 419.501C87.9884 419.501 88.3367 419.494 88.7143 419.481L88.6948 420.087C88.3562 420.126 88.0079 420.145 87.6498 420.145C87.6173 420.145 87.4903 420.142 87.269 420.136C87.0476 420.123 86.7026 420.106 86.2338 420.087C86.1101 420.087 86.0157 420.1 85.9506 420.126C85.892 420.145 85.8497 420.188 85.8237 420.253C85.8041 420.318 85.7879 420.442 85.7748 420.624C85.7683 420.806 85.7618 420.998 85.7553 421.2L85.7065 424.247C85.6935 424.833 85.7586 425.318 85.9018 425.702C86.0515 426.08 86.4063 426.268 86.9662 426.268C87.1811 426.268 87.4448 426.223 87.7573 426.132C88.0763 426.034 88.4408 425.891 88.851 425.702C88.864 425.754 88.8705 425.793 88.8705 425.819C88.877 425.845 88.8836 425.875 88.8901 425.907C88.6622 426.155 88.2423 426.399 87.6303 426.64C87.0248 426.88 86.478 427.001 85.9897 427.001C85.5665 427.001 85.2019 426.858 84.8959 426.571C84.5964 426.278 84.4467 425.777 84.4467 425.067V424.081ZM89.2319 414.999V414.628C89.3751 414.556 89.4695 414.507 89.5151 414.481L91.4096 413.563L91.7319 413.388L92.0541 413.544C91.9304 414.13 91.8425 414.807 91.7905 415.575C91.7384 416.337 91.6993 417.307 91.6733 418.485L91.6147 420.468C92.3829 420.136 93.0047 419.891 93.4799 419.735C93.9617 419.579 94.4239 419.501 94.8666 419.501C95.4916 419.501 95.9474 419.693 96.2338 420.077C96.5203 420.455 96.6961 420.92 96.7612 421.474C96.8328 422.02 96.8686 422.743 96.8686 423.641C96.8686 423.817 96.8653 423.98 96.8588 424.13C96.8588 424.28 96.8556 424.491 96.8491 424.765C96.8425 425.031 96.8328 425.279 96.8198 425.507C96.8132 425.728 96.81 425.855 96.81 425.888C96.81 426.168 96.8783 426.353 97.0151 426.444C97.1518 426.535 97.5294 426.581 98.1479 426.581L98.1283 426.884H97.4936C97.3959 426.884 96.9923 426.887 96.2826 426.893C95.5795 426.9 95.2182 426.903 95.1987 426.903C95.1791 426.903 95.0359 426.936 94.769 427.001C94.7039 427.001 94.6713 426.955 94.6713 426.864C94.6713 426.799 94.7234 426.753 94.8276 426.727C95.075 426.669 95.2573 426.565 95.3744 426.415C95.4981 426.265 95.5795 426.011 95.6186 425.653C95.6642 425.295 95.6869 424.706 95.6869 423.886C95.6869 422.59 95.5828 421.666 95.3744 421.112C95.1661 420.559 94.6908 420.282 93.9487 420.282C93.5645 420.282 93.1414 420.354 92.6791 420.497C92.2169 420.64 91.8751 420.77 91.6537 420.888C91.6537 421.07 91.6407 421.376 91.6147 421.806L91.5268 424.159C91.5268 424.309 91.5235 424.446 91.517 424.569C91.517 424.693 91.5138 424.83 91.5073 424.979C91.5073 425.611 91.5496 426.018 91.6342 426.2C91.6668 426.311 91.7449 426.389 91.8686 426.434C91.9923 426.474 92.3211 426.516 92.8549 426.561V426.903C92.6401 426.877 92.1843 426.864 91.4877 426.864C90.7651 426.864 89.9871 426.897 89.1537 426.962L89.1733 426.64C89.5899 426.555 89.8634 426.474 89.9936 426.395C90.1303 426.311 90.2214 426.155 90.267 425.927C90.3191 425.699 90.3549 425.272 90.3744 424.647C90.394 423.625 90.42 422.75 90.4526 422.02L90.4916 419.286C90.5047 419.006 90.5112 418.384 90.5112 417.421C90.5112 416.542 90.4721 415.894 90.394 415.477C90.3224 415.054 90.1401 414.843 89.8471 414.843C89.8015 414.843 89.5964 414.895 89.2319 414.999ZM105.169 421.806L100.287 422.86C100.319 423.472 100.378 423.947 100.462 424.286C100.553 424.618 100.729 424.957 100.99 425.302C101.491 425.959 102.096 426.288 102.806 426.288C103.099 426.288 103.412 426.233 103.744 426.122C104.076 426.011 104.443 425.813 104.847 425.526L105.023 425.761C103.89 426.574 102.884 426.981 102.005 426.981C101.074 426.981 100.348 426.63 99.8276 425.927C99.3067 425.224 99.0463 424.416 99.0463 423.505C99.0463 422.574 99.2449 421.802 99.642 421.19C100.039 420.572 100.485 420.123 100.98 419.843C101.475 419.563 101.849 419.423 102.103 419.423C102.396 419.423 102.699 419.472 103.011 419.569C103.33 419.66 103.639 419.839 103.939 420.106C104.245 420.373 104.499 420.738 104.701 421.2C104.759 421.298 104.815 421.363 104.867 421.395C104.919 421.428 105.013 421.444 105.15 421.444L105.169 421.806ZM100.306 422.479L101.585 422.206C101.637 422.18 101.833 422.128 102.171 422.05C102.516 421.972 102.747 421.923 102.865 421.903C103.203 421.825 103.418 421.77 103.509 421.737C103.6 421.705 103.646 421.653 103.646 421.581C103.646 421.477 103.568 421.301 103.412 421.054C103.255 420.8 103.031 420.569 102.738 420.36C102.451 420.152 102.113 420.048 101.722 420.048C101.234 420.048 100.886 420.305 100.677 420.819C100.475 421.334 100.352 421.887 100.306 422.479ZM117.474 425.663L117.611 425.946C116.745 426.662 115.853 427.02 114.935 427.02C114.408 427.02 113.861 426.913 113.294 426.698C112.734 426.477 112.295 426.194 111.976 425.849C111.774 425.608 111.615 425.272 111.497 424.843C111.387 424.406 111.331 423.987 111.331 423.583C111.331 422.769 111.55 422.03 111.986 421.366C112.422 420.696 112.956 420.175 113.587 419.804C114.225 419.432 114.821 419.247 115.374 419.247C115.706 419.247 116.169 419.341 116.761 419.53C117.354 419.712 117.65 419.885 117.65 420.048C117.65 420.113 117.559 420.282 117.376 420.556C117.194 420.829 117.048 420.966 116.937 420.966C116.885 420.966 116.81 420.94 116.712 420.888C116.621 420.835 116.462 420.748 116.234 420.624C115.524 420.331 114.938 420.184 114.476 420.184C113.818 420.184 113.324 420.399 112.992 420.829C112.66 421.259 112.494 421.903 112.494 422.763C112.494 423.55 112.666 424.214 113.011 424.755C113.356 425.295 113.77 425.689 114.251 425.936C114.74 426.184 115.186 426.307 115.589 426.307C115.928 426.307 116.24 426.249 116.527 426.132C116.82 426.015 117.136 425.858 117.474 425.663ZM120.374 421.122L119.173 421.659C119.121 421.451 119.095 421.298 119.095 421.2C119.095 420.868 119.297 420.562 119.701 420.282C120.111 419.996 120.57 419.765 121.078 419.589C121.592 419.413 121.95 419.325 122.152 419.325C122.328 419.325 122.546 419.403 122.806 419.559C123.067 419.716 123.275 419.872 123.431 420.028C123.568 420.158 123.672 420.289 123.744 420.419C123.822 420.543 123.89 420.741 123.949 421.015C124.007 421.288 124.037 421.636 124.037 422.059C124.037 422.183 124.02 422.619 123.988 423.368L123.949 424.1C123.923 424.452 123.91 424.732 123.91 424.94C123.91 425.207 123.945 425.494 124.017 425.8C124.082 426.112 124.229 426.268 124.456 426.268C124.71 426.268 125.049 426.174 125.472 425.985V426.386L124.037 426.962C123.75 427.059 123.587 427.108 123.548 427.108C123.399 427.108 123.249 427.011 123.099 426.815C122.956 426.613 122.839 426.376 122.747 426.102C121.543 426.773 120.619 427.108 119.974 427.108C119.577 427.108 119.277 426.994 119.076 426.766C118.874 426.532 118.773 426.184 118.773 425.722C118.773 425.279 118.825 424.95 118.929 424.735C119.04 424.52 119.216 424.351 119.456 424.227C119.945 423.98 120.462 423.798 121.009 423.681C121.556 423.557 122.129 423.453 122.728 423.368L122.777 422.167V421.845C122.777 421.291 122.617 420.855 122.298 420.536C121.986 420.21 121.618 420.048 121.195 420.048C120.993 420.048 120.788 420.106 120.58 420.224C120.378 420.334 120.277 420.494 120.277 420.702C120.277 420.806 120.309 420.946 120.374 421.122ZM122.689 425.741C122.669 425.526 122.689 424.914 122.747 423.905C121.888 423.847 121.198 423.951 120.677 424.218C120.156 424.485 119.896 424.82 119.896 425.224C119.896 425.516 119.974 425.793 120.13 426.054C120.293 426.314 120.514 426.444 120.794 426.444C121.107 426.444 121.738 426.21 122.689 425.741ZM125.951 426.903L125.97 426.62C126.296 426.555 126.52 426.49 126.644 426.425C126.768 426.36 126.875 426.207 126.966 425.966C127.057 425.725 127.116 425.363 127.142 424.882C127.175 424.4 127.191 423.661 127.191 422.665C127.191 421.877 127.149 421.353 127.064 421.093C126.979 420.832 126.768 420.702 126.429 420.702C126.227 420.702 126.022 420.728 125.814 420.78L125.853 420.468L128.372 419.003C128.399 419.406 128.412 419.96 128.412 420.663L129.456 420.067C129.509 420.035 129.554 420.005 129.593 419.979C129.665 419.94 129.746 419.895 129.837 419.843C129.928 419.784 130.085 419.69 130.306 419.559C130.527 419.423 130.703 419.312 130.833 419.227L130.912 419.266C130.951 419.306 130.996 419.338 131.048 419.364C131.244 419.455 131.397 419.559 131.507 419.677C131.618 419.794 131.673 419.963 131.673 420.184C131.673 420.438 131.569 420.647 131.361 420.809C131.152 420.972 130.902 421.07 130.609 421.102C130.609 420.881 130.557 420.712 130.453 420.595C130.348 420.477 130.202 420.419 130.013 420.419C129.818 420.419 129.587 420.49 129.32 420.634C129.053 420.77 128.851 420.901 128.714 421.024C128.552 421.168 128.454 421.288 128.421 421.386C128.395 421.477 128.379 421.708 128.372 422.079C128.333 423.179 128.314 423.762 128.314 423.827C128.314 425.097 128.379 425.881 128.509 426.181C128.568 426.285 128.633 426.35 128.705 426.376C128.776 426.395 128.9 426.405 129.076 426.405L129.33 426.386L130.492 426.366L130.472 426.766C130.44 426.766 130.234 426.773 129.857 426.786C129.479 426.799 129.225 426.806 129.095 426.806L125.951 426.903ZM138.119 417.587V416.22C138.073 415.783 138.031 415.484 137.992 415.321C137.959 415.152 137.904 415.041 137.826 414.989C137.754 414.931 137.637 414.901 137.474 414.901C137.298 414.901 137.08 414.934 136.82 414.999L136.8 414.706C137.998 414.211 138.858 413.778 139.378 413.407L139.613 413.505C139.541 413.817 139.479 414.361 139.427 415.136C139.375 415.91 139.323 416.838 139.271 417.919L139.232 418.886L139.154 422.821V423.768C139.154 424.699 139.183 425.399 139.242 425.868C139.307 426.33 139.398 426.561 139.515 426.561C139.587 426.561 139.736 426.529 139.964 426.464C140.199 426.399 140.443 426.324 140.697 426.239V426.6C139.167 427.134 138.34 427.401 138.216 427.401C138.119 427.401 138.044 427.268 137.992 427.001C137.94 426.74 137.914 426.347 137.914 425.819C137.21 426.19 136.65 426.454 136.234 426.61C135.817 426.766 135.378 426.845 134.915 426.845C134.434 426.845 133.962 426.721 133.499 426.474C133.037 426.22 132.656 425.852 132.357 425.37C132.064 424.888 131.917 424.332 131.917 423.7C131.917 422.834 132.109 422.112 132.494 421.532C132.884 420.946 133.33 420.507 133.831 420.214C134.339 419.914 134.821 419.703 135.277 419.579C135.739 419.449 136.039 419.384 136.175 419.384C136.377 419.384 136.634 419.41 136.947 419.462C137.259 419.514 137.63 419.595 138.06 419.706C138.099 418.983 138.119 418.277 138.119 417.587ZM137.914 424.364L137.972 421.024C137.972 420.875 137.858 420.741 137.63 420.624C137.409 420.5 137.162 420.406 136.888 420.341C136.621 420.276 136.325 420.22 135.999 420.175C135.674 420.129 135.485 420.106 135.433 420.106C135.016 420.106 134.619 420.217 134.242 420.438C133.871 420.653 133.571 420.949 133.343 421.327C133.122 421.705 133.011 422.125 133.011 422.587C133.011 423.303 133.141 423.921 133.402 424.442C133.662 424.963 134.014 425.36 134.456 425.634C134.906 425.907 135.397 426.044 135.931 426.044C136.309 426.044 136.65 425.979 136.956 425.849C137.269 425.712 137.588 425.543 137.914 425.341C137.907 425.295 137.904 425.168 137.904 424.96C137.91 424.752 137.914 424.553 137.914 424.364ZM152.611 417.587V416.22C152.565 415.783 152.523 415.484 152.484 415.321C152.451 415.152 152.396 415.041 152.318 414.989C152.246 414.931 152.129 414.901 151.966 414.901C151.79 414.901 151.572 414.934 151.312 414.999L151.292 414.706C152.49 414.211 153.35 413.778 153.871 413.407L154.105 413.505C154.033 413.817 153.971 414.361 153.919 415.136C153.867 415.91 153.815 416.838 153.763 417.919L153.724 418.886L153.646 422.821V423.768C153.646 424.699 153.675 425.399 153.734 425.868C153.799 426.33 153.89 426.561 154.007 426.561C154.079 426.561 154.229 426.529 154.456 426.464C154.691 426.399 154.935 426.324 155.189 426.239V426.6C153.659 427.134 152.832 427.401 152.708 427.401C152.611 427.401 152.536 427.268 152.484 427.001C152.432 426.74 152.406 426.347 152.406 425.819C151.703 426.19 151.143 426.454 150.726 426.61C150.309 426.766 149.87 426.845 149.408 426.845C148.926 426.845 148.454 426.721 147.992 426.474C147.529 426.22 147.149 425.852 146.849 425.37C146.556 424.888 146.41 424.332 146.41 423.7C146.41 422.834 146.602 422.112 146.986 421.532C147.376 420.946 147.822 420.507 148.324 420.214C148.831 419.914 149.313 419.703 149.769 419.579C150.231 419.449 150.531 419.384 150.667 419.384C150.869 419.384 151.126 419.41 151.439 419.462C151.751 419.514 152.122 419.595 152.552 419.706C152.591 418.983 152.611 418.277 152.611 417.587ZM152.406 424.364L152.464 421.024C152.464 420.875 152.35 420.741 152.122 420.624C151.901 420.5 151.654 420.406 151.38 420.341C151.113 420.276 150.817 420.22 150.492 420.175C150.166 420.129 149.977 420.106 149.925 420.106C149.509 420.106 149.111 420.217 148.734 420.438C148.363 420.653 148.063 420.949 147.835 421.327C147.614 421.705 147.503 422.125 147.503 422.587C147.503 423.303 147.634 423.921 147.894 424.442C148.154 424.963 148.506 425.36 148.949 425.634C149.398 425.907 149.889 426.044 150.423 426.044C150.801 426.044 151.143 425.979 151.449 425.849C151.761 425.712 152.08 425.543 152.406 425.341C152.399 425.295 152.396 425.168 152.396 424.96C152.402 424.752 152.406 424.553 152.406 424.364ZM155.999 423.222C155.999 422.649 156.104 422.131 156.312 421.669C156.527 421.2 156.82 420.796 157.191 420.458C157.562 420.119 157.995 419.859 158.49 419.677C158.984 419.494 159.515 419.403 160.081 419.403C160.596 419.403 161.081 419.498 161.537 419.686C161.999 419.875 162.402 420.136 162.747 420.468C163.093 420.8 163.363 421.194 163.558 421.649C163.76 422.099 163.861 422.584 163.861 423.104C163.861 423.781 163.698 424.416 163.372 425.009C163.053 425.601 162.598 426.08 162.005 426.444C161.419 426.802 160.742 426.981 159.974 426.981C159.395 426.981 158.796 426.854 158.177 426.6C157.565 426.347 157.048 425.94 156.624 425.38C156.208 424.813 155.999 424.094 155.999 423.222ZM157.279 422.684C157.279 423.29 157.399 423.892 157.64 424.491C157.881 425.09 158.216 425.582 158.646 425.966C159.082 426.35 159.561 426.542 160.081 426.542C160.537 426.542 160.951 426.418 161.322 426.171C161.693 425.917 161.989 425.559 162.21 425.097C162.432 424.634 162.542 424.11 162.542 423.524C162.542 422.932 162.412 422.356 162.152 421.796C161.898 421.229 161.543 420.77 161.087 420.419C160.638 420.061 160.14 419.882 159.593 419.882C159.15 419.882 158.753 420.002 158.402 420.243C158.05 420.484 157.774 420.819 157.572 421.249C157.376 421.679 157.279 422.157 157.279 422.684ZM171.937 421.122L170.736 421.659C170.684 421.451 170.658 421.298 170.658 421.2C170.658 420.868 170.859 420.562 171.263 420.282C171.673 419.996 172.132 419.765 172.64 419.589C173.154 419.413 173.512 419.325 173.714 419.325C173.89 419.325 174.108 419.403 174.369 419.559C174.629 419.716 174.837 419.872 174.994 420.028C175.13 420.158 175.234 420.289 175.306 420.419C175.384 420.543 175.453 420.741 175.511 421.015C175.57 421.288 175.599 421.636 175.599 422.059C175.599 422.183 175.583 422.619 175.55 423.368L175.511 424.1C175.485 424.452 175.472 424.732 175.472 424.94C175.472 425.207 175.508 425.494 175.58 425.8C175.645 426.112 175.791 426.268 176.019 426.268C176.273 426.268 176.611 426.174 177.035 425.985V426.386L175.599 426.962C175.313 427.059 175.15 427.108 175.111 427.108C174.961 427.108 174.811 427.011 174.662 426.815C174.518 426.613 174.401 426.376 174.31 426.102C173.106 426.773 172.181 427.108 171.537 427.108C171.139 427.108 170.84 426.994 170.638 426.766C170.436 426.532 170.335 426.184 170.335 425.722C170.335 425.279 170.387 424.95 170.492 424.735C170.602 424.52 170.778 424.351 171.019 424.227C171.507 423.98 172.025 423.798 172.572 423.681C173.119 423.557 173.692 423.453 174.29 423.368L174.339 422.167V421.845C174.339 421.291 174.18 420.855 173.861 420.536C173.548 420.21 173.18 420.048 172.757 420.048C172.555 420.048 172.35 420.106 172.142 420.224C171.94 420.334 171.839 420.494 171.839 420.702C171.839 420.806 171.872 420.946 171.937 421.122ZM174.251 425.741C174.232 425.526 174.251 424.914 174.31 423.905C173.451 423.847 172.761 423.951 172.24 424.218C171.719 424.485 171.458 424.82 171.458 425.224C171.458 425.516 171.537 425.793 171.693 426.054C171.856 426.314 172.077 426.444 172.357 426.444C172.669 426.444 173.301 426.21 174.251 425.741ZM177.298 426.923V426.62C177.787 426.535 178.132 426.389 178.333 426.181C178.535 425.972 178.662 425.653 178.714 425.224C178.747 425.002 178.783 424.494 178.822 423.7C178.861 422.899 178.897 421.985 178.929 420.956C178.962 419.927 178.978 419.003 178.978 418.182C178.978 416.464 178.89 415.484 178.714 415.243C178.604 415.08 178.382 414.999 178.05 414.999C177.972 414.999 177.91 415.002 177.865 415.009C177.819 415.015 177.777 415.022 177.738 415.028C177.699 415.035 177.656 415.041 177.611 415.048V414.745C178.854 414.224 179.73 413.785 180.238 413.427H180.531C180.329 414.195 180.202 415.588 180.15 417.606L180.072 422.304C180.072 424.504 180.121 425.751 180.218 426.044C180.277 426.213 180.472 426.343 180.804 426.434C181.136 426.519 181.432 426.574 181.693 426.6V426.962C180.417 426.871 179.557 426.825 179.115 426.825C178.522 426.825 177.917 426.858 177.298 426.923ZM182.103 426.923V426.62C182.591 426.535 182.936 426.389 183.138 426.181C183.34 425.972 183.467 425.653 183.519 425.224C183.552 425.002 183.587 424.494 183.626 423.7C183.665 422.899 183.701 421.985 183.734 420.956C183.766 419.927 183.783 419.003 183.783 418.182C183.783 416.464 183.695 415.484 183.519 415.243C183.408 415.08 183.187 414.999 182.855 414.999C182.777 414.999 182.715 415.002 182.669 415.009C182.624 415.015 182.581 415.022 182.542 415.028C182.503 415.035 182.461 415.041 182.415 415.048V414.745C183.659 414.224 184.535 413.785 185.042 413.427H185.335C185.134 414.195 185.007 415.588 184.955 417.606L184.876 422.304C184.876 424.504 184.925 425.751 185.023 426.044C185.081 426.213 185.277 426.343 185.609 426.434C185.941 426.519 186.237 426.574 186.497 426.6V426.962C185.221 426.871 184.362 426.825 183.919 426.825C183.327 426.825 182.721 426.858 182.103 426.923ZM192.025 426.903L192.044 426.62C192.37 426.555 192.594 426.49 192.718 426.425C192.842 426.36 192.949 426.207 193.04 425.966C193.132 425.725 193.19 425.363 193.216 424.882C193.249 424.4 193.265 423.661 193.265 422.665C193.265 421.877 193.223 421.353 193.138 421.093C193.053 420.832 192.842 420.702 192.503 420.702C192.302 420.702 192.096 420.728 191.888 420.78L191.927 420.468L194.447 419.003C194.473 419.406 194.486 419.96 194.486 420.663L195.531 420.067C195.583 420.035 195.628 420.005 195.667 419.979C195.739 419.94 195.82 419.895 195.912 419.843C196.003 419.784 196.159 419.69 196.38 419.559C196.602 419.423 196.777 419.312 196.908 419.227L196.986 419.266C197.025 419.306 197.07 419.338 197.122 419.364C197.318 419.455 197.471 419.559 197.581 419.677C197.692 419.794 197.747 419.963 197.747 420.184C197.747 420.438 197.643 420.647 197.435 420.809C197.227 420.972 196.976 421.07 196.683 421.102C196.683 420.881 196.631 420.712 196.527 420.595C196.423 420.477 196.276 420.419 196.087 420.419C195.892 420.419 195.661 420.49 195.394 420.634C195.127 420.77 194.925 420.901 194.789 421.024C194.626 421.168 194.528 421.288 194.496 421.386C194.469 421.477 194.453 421.708 194.447 422.079C194.408 423.179 194.388 423.762 194.388 423.827C194.388 425.097 194.453 425.881 194.583 426.181C194.642 426.285 194.707 426.35 194.779 426.376C194.85 426.395 194.974 426.405 195.15 426.405L195.404 426.386L196.566 426.366L196.546 426.766C196.514 426.766 196.309 426.773 195.931 426.786C195.553 426.799 195.3 426.806 195.169 426.806L192.025 426.903ZM204.427 421.806L199.544 422.86C199.577 423.472 199.636 423.947 199.72 424.286C199.811 424.618 199.987 424.957 200.247 425.302C200.749 425.959 201.354 426.288 202.064 426.288C202.357 426.288 202.669 426.233 203.001 426.122C203.333 426.011 203.701 425.813 204.105 425.526L204.281 425.761C203.148 426.574 202.142 426.981 201.263 426.981C200.332 426.981 199.606 426.63 199.085 425.927C198.565 425.224 198.304 424.416 198.304 423.505C198.304 422.574 198.503 421.802 198.9 421.19C199.297 420.572 199.743 420.123 200.238 419.843C200.733 419.563 201.107 419.423 201.361 419.423C201.654 419.423 201.956 419.472 202.269 419.569C202.588 419.66 202.897 419.839 203.197 420.106C203.503 420.373 203.757 420.738 203.958 421.2C204.017 421.298 204.072 421.363 204.124 421.395C204.177 421.428 204.271 421.444 204.408 421.444L204.427 421.806ZM199.564 422.479L200.843 422.206C200.895 422.18 201.091 422.128 201.429 422.05C201.774 421.972 202.005 421.923 202.122 421.903C202.461 421.825 202.676 421.77 202.767 421.737C202.858 421.705 202.904 421.653 202.904 421.581C202.904 421.477 202.826 421.301 202.669 421.054C202.513 420.8 202.289 420.569 201.996 420.36C201.709 420.152 201.371 420.048 200.98 420.048C200.492 420.048 200.143 420.305 199.935 420.819C199.733 421.334 199.609 421.887 199.564 422.479ZM205.365 424.686L205.706 424.706C205.706 424.83 205.811 425.031 206.019 425.311C206.234 425.591 206.52 425.845 206.878 426.073C207.236 426.294 207.627 426.405 208.05 426.405C208.356 426.405 208.662 426.34 208.968 426.21C209.274 426.08 209.427 425.796 209.427 425.36C209.427 424.905 209.268 424.537 208.949 424.257C208.63 423.983 208.268 423.746 207.865 423.544L207.132 423.202C206.703 422.981 206.361 422.746 206.107 422.499C205.853 422.258 205.726 421.946 205.726 421.561C205.726 421.262 205.833 420.949 206.048 420.624C206.263 420.292 206.572 420.018 206.976 419.804C207.386 419.589 207.848 419.481 208.363 419.481C208.675 419.481 209.196 419.53 209.925 419.628L210.247 421.288H209.906C209.847 421.06 209.71 420.845 209.496 420.643C209.287 420.435 209.04 420.259 208.753 420.116C208.473 419.973 208.233 419.901 208.031 419.901C207.686 419.901 207.406 420.009 207.191 420.224C206.976 420.438 206.869 420.712 206.869 421.044C206.869 421.311 206.947 421.522 207.103 421.679C207.259 421.841 207.555 422.03 207.992 422.245L208.587 422.528C209.128 422.782 209.59 423.078 209.974 423.417C210.358 423.762 210.55 424.237 210.55 424.843C210.55 425.071 210.501 425.315 210.404 425.575C210.313 425.829 210.173 426.011 209.984 426.122C209.443 426.467 208.997 426.692 208.646 426.796C208.294 426.893 207.936 426.942 207.572 426.942C207.442 426.942 207.256 426.926 207.015 426.893C206.774 426.861 206.605 426.835 206.507 426.815C206.41 426.796 206.24 426.75 205.999 426.679C205.759 426.607 205.602 426.561 205.531 426.542C205.583 426.281 205.609 426.096 205.609 425.985C205.609 425.822 205.58 425.601 205.521 425.321C205.469 425.035 205.417 424.823 205.365 424.686ZM212.708 424.081L212.757 420.282C212.458 420.243 212.109 420.224 211.712 420.224C211.725 420.171 211.732 420.09 211.732 419.979C212.298 419.634 212.741 419.306 213.06 418.993C213.379 418.681 213.757 418.238 214.193 417.665L214.095 419.423C214.655 419.475 215.267 419.501 215.931 419.501C216.25 419.501 216.598 419.494 216.976 419.481L216.956 420.087C216.618 420.126 216.27 420.145 215.912 420.145C215.879 420.145 215.752 420.142 215.531 420.136C215.309 420.123 214.964 420.106 214.496 420.087C214.372 420.087 214.277 420.1 214.212 420.126C214.154 420.145 214.111 420.188 214.085 420.253C214.066 420.318 214.05 420.442 214.037 420.624C214.03 420.806 214.024 420.998 214.017 421.2L213.968 424.247C213.955 424.833 214.02 425.318 214.164 425.702C214.313 426.08 214.668 426.268 215.228 426.268C215.443 426.268 215.706 426.223 216.019 426.132C216.338 426.034 216.703 425.891 217.113 425.702C217.126 425.754 217.132 425.793 217.132 425.819C217.139 425.845 217.145 425.875 217.152 425.907C216.924 426.155 216.504 426.399 215.892 426.64C215.287 426.88 214.74 427.001 214.251 427.001C213.828 427.001 213.464 426.858 213.158 426.571C212.858 426.278 212.708 425.777 212.708 425.067V424.081ZM222.796 423.222C222.796 422.649 222.9 422.131 223.109 421.669C223.324 421.2 223.617 420.796 223.988 420.458C224.359 420.119 224.792 419.859 225.287 419.677C225.781 419.494 226.312 419.403 226.878 419.403C227.393 419.403 227.878 419.498 228.333 419.686C228.796 419.875 229.199 420.136 229.544 420.468C229.889 420.8 230.16 421.194 230.355 421.649C230.557 422.099 230.658 422.584 230.658 423.104C230.658 423.781 230.495 424.416 230.169 425.009C229.85 425.601 229.395 426.08 228.802 426.444C228.216 426.802 227.539 426.981 226.771 426.981C226.192 426.981 225.593 426.854 224.974 426.6C224.362 426.347 223.844 425.94 223.421 425.38C223.005 424.813 222.796 424.094 222.796 423.222ZM224.076 422.684C224.076 423.29 224.196 423.892 224.437 424.491C224.678 425.09 225.013 425.582 225.443 425.966C225.879 426.35 226.358 426.542 226.878 426.542C227.334 426.542 227.747 426.418 228.119 426.171C228.49 425.917 228.786 425.559 229.007 425.097C229.229 424.634 229.339 424.11 229.339 423.524C229.339 422.932 229.209 422.356 228.949 421.796C228.695 421.229 228.34 420.77 227.884 420.419C227.435 420.061 226.937 419.882 226.39 419.882C225.947 419.882 225.55 420.002 225.199 420.243C224.847 420.484 224.57 420.819 224.369 421.249C224.173 421.679 224.076 422.157 224.076 422.684ZM232.113 420.126V419.54L233.412 419.52C233.418 418.388 233.516 417.489 233.705 416.825C233.893 416.161 234.167 415.621 234.525 415.204C234.811 414.872 235.169 414.569 235.599 414.296C236.029 414.016 236.455 413.801 236.878 413.651C237.302 413.502 237.653 413.427 237.933 413.427C238.311 413.427 238.685 413.495 239.056 413.632C239.427 413.762 239.613 413.918 239.613 414.1C239.613 414.205 239.541 414.361 239.398 414.569C239.255 414.778 239.118 414.882 238.988 414.882L238.206 414.608C237.66 414.406 237.227 414.306 236.908 414.306C236.393 414.306 235.98 414.455 235.667 414.755C235.355 415.054 235.117 415.585 234.955 416.347C234.792 417.108 234.697 418.166 234.671 419.52H237.328V420.145L234.671 420.165L234.632 422.948C234.632 424.068 234.642 424.891 234.662 425.419C234.681 425.946 234.736 426.255 234.828 426.347C234.886 426.392 234.984 426.421 235.121 426.434C235.257 426.447 235.654 426.464 236.312 426.483V426.864C235.928 426.851 235.274 426.841 234.349 426.835C233.431 426.828 232.663 426.825 232.044 426.825V426.503C232.389 426.483 232.647 426.441 232.816 426.376C232.992 426.304 233.119 426.184 233.197 426.015C233.281 425.839 233.333 425.591 233.353 425.272C233.379 424.947 233.392 424.491 233.392 423.905L233.412 420.643C233.412 420.409 233.386 420.276 233.333 420.243C233.21 420.165 232.803 420.126 232.113 420.126ZM245.794 424.081L245.843 420.282C245.544 420.243 245.195 420.224 244.798 420.224C244.811 420.171 244.818 420.09 244.818 419.979C245.384 419.634 245.827 419.306 246.146 418.993C246.465 418.681 246.843 418.238 247.279 417.665L247.181 419.423C247.741 419.475 248.353 419.501 249.017 419.501C249.336 419.501 249.684 419.494 250.062 419.481L250.042 420.087C249.704 420.126 249.356 420.145 248.997 420.145C248.965 420.145 248.838 420.142 248.617 420.136C248.395 420.123 248.05 420.106 247.581 420.087C247.458 420.087 247.363 420.1 247.298 420.126C247.24 420.145 247.197 420.188 247.171 420.253C247.152 420.318 247.136 420.442 247.122 420.624C247.116 420.806 247.109 420.998 247.103 421.2L247.054 424.247C247.041 424.833 247.106 425.318 247.249 425.702C247.399 426.08 247.754 426.268 248.314 426.268C248.529 426.268 248.792 426.223 249.105 426.132C249.424 426.034 249.789 425.891 250.199 425.702C250.212 425.754 250.218 425.793 250.218 425.819C250.225 425.845 250.231 425.875 250.238 425.907C250.01 426.155 249.59 426.399 248.978 426.64C248.372 426.88 247.826 427.001 247.337 427.001C246.914 427.001 246.55 426.858 246.244 426.571C245.944 426.278 245.794 425.777 245.794 425.067V424.081ZM250.58 414.999V414.628C250.723 414.556 250.817 414.507 250.863 414.481L252.757 413.563L253.08 413.388L253.402 413.544C253.278 414.13 253.19 414.807 253.138 415.575C253.086 416.337 253.047 417.307 253.021 418.485L252.962 420.468C253.731 420.136 254.352 419.891 254.828 419.735C255.309 419.579 255.772 419.501 256.214 419.501C256.839 419.501 257.295 419.693 257.581 420.077C257.868 420.455 258.044 420.92 258.109 421.474C258.18 422.02 258.216 422.743 258.216 423.641C258.216 423.817 258.213 423.98 258.206 424.13C258.206 424.28 258.203 424.491 258.197 424.765C258.19 425.031 258.18 425.279 258.167 425.507C258.161 425.728 258.158 425.855 258.158 425.888C258.158 426.168 258.226 426.353 258.363 426.444C258.499 426.535 258.877 426.581 259.496 426.581L259.476 426.884H258.841C258.744 426.884 258.34 426.887 257.63 426.893C256.927 426.9 256.566 426.903 256.546 426.903C256.527 426.903 256.384 426.936 256.117 427.001C256.052 427.001 256.019 426.955 256.019 426.864C256.019 426.799 256.071 426.753 256.175 426.727C256.423 426.669 256.605 426.565 256.722 426.415C256.846 426.265 256.927 426.011 256.966 425.653C257.012 425.295 257.035 424.706 257.035 423.886C257.035 422.59 256.93 421.666 256.722 421.112C256.514 420.559 256.039 420.282 255.296 420.282C254.912 420.282 254.489 420.354 254.027 420.497C253.565 420.64 253.223 420.77 253.001 420.888C253.001 421.07 252.988 421.376 252.962 421.806L252.874 424.159C252.874 424.309 252.871 424.446 252.865 424.569C252.865 424.693 252.861 424.83 252.855 424.979C252.855 425.611 252.897 426.018 252.982 426.2C253.014 426.311 253.093 426.389 253.216 426.434C253.34 426.474 253.669 426.516 254.203 426.561V426.903C253.988 426.877 253.532 426.864 252.835 426.864C252.113 426.864 251.335 426.897 250.501 426.962L250.521 426.64C250.938 426.555 251.211 426.474 251.341 426.395C251.478 426.311 251.569 426.155 251.615 425.927C251.667 425.699 251.703 425.272 251.722 424.647C251.742 423.625 251.768 422.75 251.8 422.02L251.839 419.286C251.852 419.006 251.859 418.384 251.859 417.421C251.859 416.542 251.82 415.894 251.742 415.477C251.67 415.054 251.488 414.843 251.195 414.843C251.149 414.843 250.944 414.895 250.58 414.999ZM266.517 421.806L261.634 422.86C261.667 423.472 261.725 423.947 261.81 424.286C261.901 424.618 262.077 424.957 262.337 425.302C262.839 425.959 263.444 426.288 264.154 426.288C264.447 426.288 264.759 426.233 265.091 426.122C265.423 426.011 265.791 425.813 266.195 425.526L266.371 425.761C265.238 426.574 264.232 426.981 263.353 426.981C262.422 426.981 261.696 426.63 261.175 425.927C260.654 425.224 260.394 424.416 260.394 423.505C260.394 422.574 260.593 421.802 260.99 421.19C261.387 420.572 261.833 420.123 262.328 419.843C262.822 419.563 263.197 419.423 263.451 419.423C263.744 419.423 264.046 419.472 264.359 419.569C264.678 419.66 264.987 419.839 265.287 420.106C265.593 420.373 265.846 420.738 266.048 421.2C266.107 421.298 266.162 421.363 266.214 421.395C266.266 421.428 266.361 421.444 266.497 421.444L266.517 421.806ZM261.654 422.479L262.933 422.206C262.985 422.18 263.18 422.128 263.519 422.05C263.864 421.972 264.095 421.923 264.212 421.903C264.551 421.825 264.766 421.77 264.857 421.737C264.948 421.705 264.994 421.653 264.994 421.581C264.994 421.477 264.915 421.301 264.759 421.054C264.603 420.8 264.378 420.569 264.085 420.36C263.799 420.152 263.46 420.048 263.07 420.048C262.581 420.048 262.233 420.305 262.025 420.819C261.823 421.334 261.699 421.887 261.654 422.479ZM272.103 426.903L272.122 426.6C272.513 426.509 272.796 426.395 272.972 426.259C273.148 426.122 273.275 425.832 273.353 425.39C273.438 424.947 273.48 424.273 273.48 423.368C273.48 422.489 273.434 421.864 273.343 421.493C273.259 421.122 273.128 420.891 272.953 420.8C272.783 420.709 272.5 420.656 272.103 420.643V420.321C272.8 420.158 273.512 419.859 274.242 419.423C274.32 419.371 274.385 419.345 274.437 419.345C274.567 419.345 274.645 419.514 274.671 419.852C274.704 420.191 274.707 420.487 274.681 420.741C274.818 420.663 275.059 420.533 275.404 420.35C275.755 420.162 276.029 420.022 276.224 419.931C276.426 419.833 276.683 419.735 276.996 419.638C277.308 419.533 277.581 419.481 277.816 419.481C278.154 419.481 278.486 419.579 278.812 419.774C279.144 419.963 279.372 420.279 279.496 420.722C280.7 420.084 281.742 419.765 282.621 419.765C283.246 419.765 283.701 419.905 283.988 420.184C284.274 420.464 284.447 420.826 284.505 421.268C284.57 421.705 284.603 422.336 284.603 423.163V424.901C284.583 425.403 284.577 425.748 284.583 425.936C284.59 426.119 284.619 426.239 284.671 426.298C284.73 426.35 284.834 426.386 284.984 426.405C285.036 426.412 285.215 426.447 285.521 426.513C285.833 426.578 286.012 426.613 286.058 426.62L285.921 426.884H282.22L282.162 426.62C282.565 426.516 282.842 426.402 282.992 426.278C283.141 426.155 283.246 425.891 283.304 425.487C283.369 425.084 283.402 424.377 283.402 423.368C283.402 422.769 283.35 422.261 283.246 421.845C283.148 421.428 282.969 421.109 282.708 420.888C282.448 420.66 282.087 420.546 281.624 420.546C281.039 420.546 280.358 420.725 279.583 421.083C279.616 421.356 279.639 421.828 279.652 422.499C279.665 423.163 279.678 423.85 279.691 424.559C279.704 425.263 279.714 425.718 279.72 425.927C279.733 426.102 279.762 426.226 279.808 426.298C279.854 426.363 279.938 426.412 280.062 426.444C280.192 426.477 280.466 426.522 280.882 426.581V426.884H279.662C279.551 426.884 279.141 426.897 278.431 426.923C277.721 426.949 277.298 426.962 277.162 426.962L277.103 426.659C277.533 426.574 277.842 426.464 278.031 426.327C278.219 426.184 278.343 425.936 278.402 425.585C278.467 425.227 278.493 424.621 278.48 423.768L278.46 422.821C278.447 422.02 278.324 421.412 278.089 420.995C277.861 420.572 277.484 420.36 276.956 420.36C276.703 420.36 276.436 420.406 276.156 420.497C275.876 420.588 275.609 420.699 275.355 420.829C275.101 420.953 274.883 421.063 274.701 421.161C274.694 421.272 274.688 421.555 274.681 422.011C274.675 422.46 274.668 422.831 274.662 423.124V424.12C274.675 425.285 274.694 425.92 274.72 426.024C274.746 426.141 274.841 426.249 275.003 426.347C275.166 426.438 275.518 426.522 276.058 426.6V426.942C275.98 426.942 275.7 426.929 275.218 426.903C274.736 426.877 274.45 426.864 274.359 426.864L272.103 426.903ZM288.382 421.122L287.181 421.659C287.129 421.451 287.103 421.298 287.103 421.2C287.103 420.868 287.305 420.562 287.708 420.282C288.119 419.996 288.578 419.765 289.085 419.589C289.6 419.413 289.958 419.325 290.16 419.325C290.335 419.325 290.553 419.403 290.814 419.559C291.074 419.716 291.283 419.872 291.439 420.028C291.576 420.158 291.68 420.289 291.751 420.419C291.83 420.543 291.898 420.741 291.956 421.015C292.015 421.288 292.044 421.636 292.044 422.059C292.044 422.183 292.028 422.619 291.996 423.368L291.956 424.1C291.93 424.452 291.917 424.732 291.917 424.94C291.917 425.207 291.953 425.494 292.025 425.8C292.09 426.112 292.236 426.268 292.464 426.268C292.718 426.268 293.057 426.174 293.48 425.985V426.386L292.044 426.962C291.758 427.059 291.595 427.108 291.556 427.108C291.406 427.108 291.257 427.011 291.107 426.815C290.964 426.613 290.846 426.376 290.755 426.102C289.551 426.773 288.626 427.108 287.982 427.108C287.585 427.108 287.285 426.994 287.083 426.766C286.882 426.532 286.781 426.184 286.781 425.722C286.781 425.279 286.833 424.95 286.937 424.735C287.048 424.52 287.223 424.351 287.464 424.227C287.953 423.98 288.47 423.798 289.017 423.681C289.564 423.557 290.137 423.453 290.736 423.368L290.785 422.167V421.845C290.785 421.291 290.625 420.855 290.306 420.536C289.994 420.21 289.626 420.048 289.203 420.048C289.001 420.048 288.796 420.106 288.587 420.224C288.386 420.334 288.285 420.494 288.285 420.702C288.285 420.806 288.317 420.946 288.382 421.122ZM290.697 425.741C290.677 425.526 290.697 424.914 290.755 423.905C289.896 423.847 289.206 423.951 288.685 424.218C288.164 424.485 287.904 424.82 287.904 425.224C287.904 425.516 287.982 425.793 288.138 426.054C288.301 426.314 288.522 426.444 288.802 426.444C289.115 426.444 289.746 426.21 290.697 425.741ZM296.82 425.604C296.449 425.513 296.071 425.377 295.687 425.194C295.309 425.012 294.968 424.719 294.662 424.315C294.356 423.905 294.203 423.355 294.203 422.665C294.203 422.04 294.369 421.467 294.701 420.946C295.039 420.419 295.475 420.009 296.009 419.716C296.55 419.416 297.1 419.266 297.66 419.266C298.005 419.266 298.327 419.315 298.626 419.413C298.926 419.504 299.203 419.647 299.456 419.843C299.925 419.752 300.42 419.706 300.941 419.706C301.286 419.706 301.52 419.719 301.644 419.745C301.624 420.097 301.537 420.448 301.38 420.8C300.938 420.617 300.472 420.526 299.984 420.526C300.068 420.643 300.153 420.803 300.238 421.005C300.322 421.2 300.391 421.412 300.443 421.64C300.495 421.867 300.521 422.089 300.521 422.304C300.521 422.903 300.387 423.41 300.121 423.827C299.854 424.244 299.522 424.579 299.124 424.833C298.734 425.08 298.233 425.35 297.621 425.643C296.475 426.151 295.902 426.519 295.902 426.747C295.902 427.144 296.38 427.343 297.337 427.343C298.132 427.343 298.75 427.356 299.193 427.382C299.636 427.408 300.026 427.476 300.365 427.587C300.703 427.697 300.967 427.883 301.156 428.143C301.344 428.41 301.439 428.778 301.439 429.247C301.439 429.878 301.192 430.435 300.697 430.917C300.208 431.405 299.58 431.78 298.812 432.04C298.05 432.307 297.285 432.44 296.517 432.44C295.527 432.44 294.841 432.222 294.456 431.786C294.072 431.356 293.88 430.901 293.88 430.419C293.88 429.872 294.046 429.432 294.378 429.1C294.717 428.768 295.143 428.449 295.658 428.143C294.968 427.766 294.629 427.265 294.642 426.64C294.948 426.405 295.459 426.155 296.175 425.888L296.82 425.604ZM297.865 425.087C298.333 424.839 298.698 424.566 298.958 424.266C299.225 423.967 299.359 423.479 299.359 422.802C299.359 422.418 299.303 422.05 299.193 421.698C299.082 421.34 298.929 421.024 298.734 420.751C298.539 420.477 298.298 420.259 298.011 420.097C297.731 419.927 297.415 419.843 297.064 419.843C296.53 419.843 296.081 420.048 295.716 420.458C295.358 420.862 295.179 421.376 295.179 422.001C295.179 422.88 295.443 423.541 295.97 423.983C296.497 424.426 297.129 424.794 297.865 425.087ZM296.205 428.368C295.801 428.492 295.436 428.697 295.111 428.983C294.785 429.276 294.622 429.608 294.622 429.979C294.622 430.409 294.873 430.796 295.374 431.141C295.876 431.487 296.524 431.659 297.318 431.659C297.767 431.659 298.255 431.591 298.783 431.454C299.31 431.324 299.759 431.112 300.13 430.819C300.508 430.526 300.697 430.168 300.697 429.745C300.697 429.452 300.596 429.175 300.394 428.915C300.186 428.661 299.873 428.518 299.456 428.485C299.365 428.472 299.033 428.469 298.46 428.475C297.894 428.482 297.555 428.485 297.445 428.485C296.865 428.485 296.452 428.446 296.205 428.368ZM302.464 426.923L302.503 426.62C303.057 426.568 303.369 426.47 303.441 426.327C303.473 426.268 303.503 426.037 303.529 425.634C303.555 425.224 303.574 424.738 303.587 424.179C303.607 423.612 303.617 423.293 303.617 423.222C303.617 422.297 303.6 421.705 303.568 421.444C303.542 421.184 303.486 421.005 303.402 420.907C303.376 420.875 303.213 420.842 302.914 420.809C302.614 420.777 302.464 420.735 302.464 420.682C302.464 420.578 302.523 420.513 302.64 420.487C303.415 420.246 304.173 419.82 304.915 419.208C304.961 419.208 305.023 419.221 305.101 419.247C305.036 419.514 304.981 419.905 304.935 420.419C304.889 420.933 304.85 421.474 304.818 422.04C304.792 422.606 304.779 423.108 304.779 423.544C304.779 423.869 304.789 424.338 304.808 424.95C304.834 425.556 304.876 425.966 304.935 426.181C304.987 426.298 305.052 426.373 305.13 426.405C305.208 426.438 305.365 426.464 305.599 426.483C305.827 426.49 306.055 426.509 306.283 426.542L306.4 426.825L302.464 426.923ZM303.939 415.243C303.939 415.022 304.014 414.839 304.164 414.696C304.313 414.553 304.492 414.481 304.701 414.481C304.909 414.481 305.085 414.556 305.228 414.706C305.371 414.856 305.443 415.035 305.443 415.243C305.443 415.451 305.371 415.63 305.228 415.78C305.091 415.93 304.915 416.005 304.701 416.005C304.492 416.005 304.313 415.93 304.164 415.78C304.014 415.63 303.939 415.451 303.939 415.243ZM313.626 425.663L313.763 425.946C312.897 426.662 312.005 427.02 311.087 427.02C310.56 427.02 310.013 426.913 309.447 426.698C308.887 426.477 308.447 426.194 308.128 425.849C307.927 425.608 307.767 425.272 307.65 424.843C307.539 424.406 307.484 423.987 307.484 423.583C307.484 422.769 307.702 422.03 308.138 421.366C308.574 420.696 309.108 420.175 309.74 419.804C310.378 419.432 310.973 419.247 311.527 419.247C311.859 419.247 312.321 419.341 312.914 419.53C313.506 419.712 313.802 419.885 313.802 420.048C313.802 420.113 313.711 420.282 313.529 420.556C313.346 420.829 313.2 420.966 313.089 420.966C313.037 420.966 312.962 420.94 312.865 420.888C312.774 420.835 312.614 420.748 312.386 420.624C311.677 420.331 311.091 420.184 310.628 420.184C309.971 420.184 309.476 420.399 309.144 420.829C308.812 421.259 308.646 421.903 308.646 422.763C308.646 423.55 308.818 424.214 309.164 424.755C309.509 425.295 309.922 425.689 310.404 425.936C310.892 426.184 311.338 426.307 311.742 426.307C312.08 426.307 312.393 426.249 312.679 426.132C312.972 426.015 313.288 425.858 313.626 425.663Z" fill="white"/>
<path d="M43.6539 387.341C43.6165 387.439 43.4555 387.993 43.171 389.004C42.3624 389.243 41.6287 389.43 40.9698 389.565C40.311 389.692 39.5959 389.756 38.8248 389.756C37.8964 389.756 36.968 389.591 36.0396 389.262C35.1112 388.932 34.2764 388.446 33.5352 387.802C32.794 387.151 32.2063 386.361 31.7721 385.432C31.3378 384.496 31.1207 383.433 31.1207 382.243C31.1207 380.611 31.5212 379.233 32.3223 378.11C33.1309 376.987 34.1567 376.16 35.3995 375.628C36.6498 375.096 37.9376 374.831 39.2628 374.831C40.3035 374.831 41.3067 375.014 42.2725 375.381C42.7218 375.523 43.0587 375.594 43.2833 375.594C43.3881 375.572 43.463 375.557 43.5079 375.549C43.5603 375.542 43.6239 375.534 43.6988 375.527C43.7437 375.527 43.7924 375.557 43.8448 375.617L43.6763 376.257C43.5191 376.818 43.3806 377.533 43.2608 378.402C43.1261 378.38 43.0362 378.335 42.9913 378.267C42.9464 378.192 42.9239 378.076 42.9239 377.919C42.9089 377.447 42.8453 377.125 42.733 376.953C42.5308 376.624 42.0255 376.287 41.2169 375.943C40.4083 375.598 39.5959 375.426 38.7799 375.426C37.7017 375.426 36.7247 375.695 35.8487 376.234C34.9802 376.766 34.2914 377.548 33.7823 378.582C33.2807 379.615 33.0299 380.828 33.0299 382.22C33.0299 383.501 33.2507 384.605 33.6925 385.533C34.1417 386.454 34.6995 387.184 35.3658 387.723C36.0396 388.262 36.7209 388.652 37.4097 388.891C38.106 389.131 38.7087 389.251 39.2179 389.251C40.0264 389.251 40.6965 389.12 41.2281 388.858C41.7597 388.588 42.1752 388.27 42.4747 387.903C42.7817 387.529 43.0774 387.083 43.3619 386.567C43.4742 386.349 43.5715 386.241 43.6539 386.241C43.7961 386.241 43.8673 386.308 43.8673 386.443C43.8673 386.54 43.7961 386.84 43.6539 387.341ZM45.3834 385.387C45.3834 384.728 45.5032 384.133 45.7428 383.602C45.9898 383.063 46.3267 382.598 46.7535 382.209C47.1803 381.82 47.6781 381.52 48.2472 381.311C48.8162 381.101 49.4263 380.996 50.0777 380.996C50.6692 380.996 51.227 381.105 51.7511 381.322C52.2826 381.539 52.7468 381.839 53.1436 382.22C53.5404 382.602 53.8512 383.055 54.0758 383.579C54.3079 384.096 54.4239 384.654 54.4239 385.253C54.4239 386.031 54.2367 386.761 53.8624 387.443C53.4955 388.124 52.9714 388.674 52.2901 389.093C51.6163 389.505 50.8376 389.711 49.9542 389.711C49.2878 389.711 48.599 389.565 47.8878 389.273C47.184 388.981 46.5888 388.513 46.1021 387.869C45.623 387.218 45.3834 386.391 45.3834 385.387ZM46.8546 384.77C46.8546 385.466 46.9931 386.158 47.2701 386.847C47.5471 387.536 47.9327 388.101 48.4268 388.543C48.9285 388.985 49.4788 389.206 50.0777 389.206C50.6018 389.206 51.0772 389.063 51.504 388.779C51.9307 388.487 52.2714 388.075 52.526 387.544C52.7805 387.012 52.9078 386.409 52.9078 385.735C52.9078 385.054 52.7581 384.392 52.4586 383.748C52.1666 383.096 51.7585 382.568 51.2345 382.164C50.7179 381.752 50.1451 381.547 49.5162 381.547C49.0071 381.547 48.5504 381.685 48.1461 381.962C47.7418 382.239 47.4236 382.625 47.1915 383.119C46.9669 383.613 46.8546 384.163 46.8546 384.77ZM56.0972 381.827V381.153L57.5909 381.131C57.5984 379.828 57.7107 378.795 57.9278 378.031C58.1449 377.268 58.4594 376.646 58.8712 376.167C59.2006 375.785 59.6124 375.437 60.1065 375.123C60.6007 374.801 61.0911 374.554 61.5777 374.381C62.0644 374.209 62.4687 374.123 62.7906 374.123C63.2249 374.123 63.6554 374.202 64.0821 374.359C64.5089 374.509 64.7222 374.688 64.7222 374.898C64.7222 375.018 64.6399 375.198 64.4752 375.437C64.3105 375.677 64.1532 375.797 64.0035 375.797L63.1051 375.482C62.4762 375.25 61.9783 375.134 61.6114 375.134C61.0199 375.134 60.5445 375.306 60.1851 375.651C59.8258 375.995 59.5525 376.605 59.3653 377.481C59.1781 378.357 59.0696 379.574 59.0396 381.131H62.0943V381.85L59.0396 381.872L58.9947 385.073C58.9947 386.361 59.0059 387.308 59.0284 387.914C59.0509 388.521 59.1145 388.876 59.2193 388.981C59.2867 389.033 59.399 389.067 59.5562 389.082C59.7135 389.097 60.1702 389.116 60.9263 389.138V389.576C60.4846 389.561 59.7322 389.55 58.669 389.543C57.6134 389.535 56.7299 389.531 56.0186 389.531V389.161C56.4154 389.138 56.7112 389.09 56.9058 389.015C57.108 388.932 57.254 388.794 57.3438 388.599C57.4412 388.397 57.5011 388.113 57.5235 387.746C57.5535 387.371 57.5684 386.847 57.5684 386.173L57.5909 382.422C57.5909 382.153 57.561 381.999 57.5011 381.962C57.3588 381.872 56.8909 381.827 56.0972 381.827ZM63.3746 381.827V381.153L64.8682 381.131C64.8757 379.828 64.988 378.795 65.2052 378.031C65.4223 377.268 65.7367 376.646 66.1485 376.167C66.4779 375.785 66.8897 375.437 67.3839 375.123C67.878 374.801 68.3684 374.554 68.8551 374.381C69.3417 374.209 69.746 374.123 70.068 374.123C70.5022 374.123 70.9327 374.202 71.3595 374.359C71.7862 374.509 71.9996 374.688 71.9996 374.898C71.9996 375.018 71.9172 375.198 71.7525 375.437C71.5878 375.677 71.4306 375.797 71.2808 375.797L70.3824 375.482C69.7535 375.25 69.2556 375.134 68.8888 375.134C68.2973 375.134 67.8219 375.306 67.4625 375.651C67.1031 375.995 66.8298 376.605 66.6427 377.481C66.4555 378.357 66.3469 379.574 66.317 381.131H69.3717V381.85L66.317 381.872L66.2721 385.073C66.2721 386.361 66.2833 387.308 66.3057 387.914C66.3282 388.521 66.3918 388.876 66.4967 388.981C66.564 389.033 66.6763 389.067 66.8336 389.082C66.9908 389.097 67.4475 389.116 68.2037 389.138V389.576C67.762 389.561 67.0095 389.55 65.9464 389.543C64.8907 389.535 64.0072 389.531 63.296 389.531V389.161C63.6928 389.138 63.9885 389.09 64.1832 389.015C64.3853 388.932 64.5313 388.794 64.6212 388.599C64.7185 388.397 64.7784 388.113 64.8009 387.746C64.8308 387.371 64.8458 386.847 64.8458 386.173L64.8682 382.422C64.8682 382.153 64.8383 381.999 64.7784 381.962C64.6361 381.872 64.1682 381.827 63.3746 381.827ZM76.9747 383.759L71.3595 384.972C71.3969 385.676 71.4643 386.222 71.5616 386.611C71.6664 386.993 71.8686 387.383 72.168 387.779C72.7445 388.536 73.4408 388.914 74.2569 388.914C74.5938 388.914 74.9532 388.85 75.335 388.723C75.7169 388.595 76.1399 388.367 76.6041 388.038L76.8062 388.307C75.5035 389.243 74.3468 389.711 73.336 389.711C72.2654 389.711 71.4306 389.307 70.8316 388.498C70.2327 387.69 69.9332 386.761 69.9332 385.713C69.9332 384.642 70.1615 383.755 70.6182 383.051C71.0749 382.34 71.5878 381.824 72.1568 381.502C72.7258 381.18 73.1563 381.019 73.4483 381.019C73.7852 381.019 74.1334 381.075 74.4928 381.187C74.8596 381.292 75.2152 381.498 75.5597 381.805C75.9115 382.112 76.2035 382.531 76.4356 383.063C76.503 383.175 76.5666 383.25 76.6265 383.287C76.6864 383.325 76.795 383.343 76.9522 383.343L76.9747 383.759ZM71.3819 384.534L72.8531 384.219C72.913 384.189 73.1376 384.13 73.5269 384.04C73.9237 383.95 74.1895 383.894 74.3243 383.871C74.7136 383.781 74.9607 383.718 75.0655 383.68C75.1703 383.643 75.2227 383.583 75.2227 383.501C75.2227 383.381 75.1329 383.179 74.9532 382.894C74.7735 382.602 74.5152 382.336 74.1783 382.097C73.8489 381.857 73.4596 381.737 73.0103 381.737C72.4488 381.737 72.0483 382.033 71.8087 382.625C71.5766 383.216 71.4343 383.852 71.3819 384.534ZM85.3751 383.759L79.7598 384.972C79.7973 385.676 79.8647 386.222 79.962 386.611C80.0668 386.993 80.269 387.383 80.5684 387.779C81.1449 388.536 81.8412 388.914 82.6573 388.914C82.9942 388.914 83.3536 388.85 83.7354 388.723C84.1173 388.595 84.5403 388.367 85.0045 388.038L85.2066 388.307C83.9039 389.243 82.7472 389.711 81.7364 389.711C80.6658 389.711 79.831 389.307 79.232 388.498C78.6331 387.69 78.3336 386.761 78.3336 385.713C78.3336 384.642 78.5619 383.755 79.0186 383.051C79.4753 382.34 79.9882 381.824 80.5572 381.502C81.1262 381.18 81.5567 381.019 81.8487 381.019C82.1856 381.019 82.5338 381.075 82.8931 381.187C83.26 381.292 83.6156 381.498 83.96 381.805C84.3119 382.112 84.6039 382.531 84.836 383.063C84.9034 383.175 84.967 383.25 85.0269 383.287C85.0868 383.325 85.1954 383.343 85.3526 383.343L85.3751 383.759ZM79.7823 384.534L81.2535 384.219C81.3134 384.189 81.538 384.13 81.9273 384.04C82.3241 383.95 82.5899 383.894 82.7247 383.871C83.114 383.781 83.3611 383.718 83.4659 383.68C83.5707 383.643 83.6231 383.583 83.6231 383.501C83.6231 383.381 83.5333 383.179 83.3536 382.894C83.1739 382.602 82.9156 382.336 82.5787 382.097C82.2493 381.857 81.8599 381.737 81.4107 381.737C80.8492 381.737 80.4486 382.033 80.2091 382.625C79.977 383.216 79.8347 383.852 79.7823 384.534ZM91.754 375.448V375.111L93.2027 375.089C93.3375 375.089 94.0188 375.104 95.2467 375.134C95.8606 375.149 96.3585 375.164 96.7403 375.179C97.1222 375.194 97.343 375.201 97.4029 375.201C99.4993 375.201 101.203 375.149 102.513 375.044C102.475 375.463 102.453 375.954 102.445 376.515C102.438 377.069 102.438 377.522 102.445 377.874H101.985C101.948 377.283 101.854 376.848 101.704 376.571C101.554 376.294 101.195 376.081 100.626 375.931C100.057 375.782 99.1361 375.707 97.8634 375.707C96.5756 375.707 95.7258 375.759 95.314 375.864C95.2541 376.68 95.2242 378.054 95.2242 379.985V381.76C96.1226 381.835 96.9724 381.872 97.7735 381.872C98.8142 381.872 99.5554 381.835 99.9972 381.76C100.439 381.685 100.708 381.558 100.806 381.378C100.903 381.198 100.952 380.888 100.952 380.446C101.116 380.446 101.262 380.431 101.39 380.401C101.42 380.895 101.435 381.348 101.435 381.76C101.435 382.539 101.42 383.321 101.39 384.107H100.929C100.929 383.351 100.866 382.935 100.738 382.86C100.574 382.741 100.166 382.632 99.5142 382.535C98.8704 382.43 98.1142 382.378 97.2457 382.378C96.3547 382.378 95.6884 382.4 95.2467 382.445C95.2167 383.852 95.2017 385.118 95.2017 386.241C95.2017 386.96 95.2167 387.472 95.2467 387.779C95.2841 388.079 95.3739 388.322 95.5162 388.509C95.6659 388.697 95.8831 388.831 96.1676 388.914C96.4521 388.989 96.935 389.071 97.6163 389.161V389.599C96.6505 389.554 95.8381 389.531 95.1793 389.531H94.0675C93.4685 389.531 92.7797 389.561 92.0011 389.621L92.0235 389.251C92.5102 389.168 92.8396 389.052 93.0118 388.902C93.1915 388.753 93.3075 388.539 93.3599 388.262C93.5247 387.371 93.607 385.324 93.607 382.119C93.607 381.693 93.6033 381.273 93.5958 380.861C93.5958 380.442 93.5883 379.881 93.5733 379.177C93.5658 378.473 93.5396 377.844 93.4947 377.29C93.4498 376.736 93.3899 376.362 93.315 376.167C93.2252 375.913 93.0605 375.744 92.8209 375.662C92.5813 375.572 92.2257 375.501 91.754 375.448ZM103.422 385.387C103.422 384.728 103.542 384.133 103.782 383.602C104.029 383.063 104.366 382.598 104.793 382.209C105.219 381.82 105.717 381.52 106.286 381.311C106.855 381.101 107.465 380.996 108.117 380.996C108.708 380.996 109.266 381.105 109.79 381.322C110.322 381.539 110.786 381.839 111.183 382.22C111.58 382.602 111.89 383.055 112.115 383.579C112.347 384.096 112.463 384.654 112.463 385.253C112.463 386.031 112.276 386.761 111.901 387.443C111.535 388.124 111.01 388.674 110.329 389.093C109.655 389.505 108.877 389.711 107.993 389.711C107.327 389.711 106.638 389.565 105.927 389.273C105.223 388.981 104.628 388.513 104.141 387.869C103.662 387.218 103.422 386.391 103.422 385.387ZM104.894 384.77C104.894 385.466 105.032 386.158 105.309 386.847C105.586 387.536 105.972 388.101 106.466 388.543C106.968 388.985 107.518 389.206 108.117 389.206C108.641 389.206 109.116 389.063 109.543 388.779C109.97 388.487 110.31 388.075 110.565 387.544C110.82 387.012 110.947 386.409 110.947 385.735C110.947 385.054 110.797 384.392 110.498 383.748C110.206 383.096 109.798 382.568 109.274 382.164C108.757 381.752 108.184 381.547 107.555 381.547C107.046 381.547 106.589 381.685 106.185 381.962C105.781 382.239 105.463 382.625 105.231 383.119C105.006 383.613 104.894 384.163 104.894 384.77ZM113.9 389.621L113.923 389.296C114.297 389.221 114.556 389.146 114.698 389.071C114.84 388.996 114.964 388.82 115.068 388.543C115.173 388.266 115.241 387.851 115.271 387.297C115.308 386.742 115.327 385.893 115.327 384.747C115.327 383.841 115.278 383.239 115.181 382.939C115.083 382.64 114.84 382.49 114.451 382.49C114.219 382.49 113.983 382.52 113.743 382.58L113.788 382.22L116.686 380.536C116.716 381 116.731 381.636 116.731 382.445L117.932 381.76C117.992 381.722 118.045 381.689 118.089 381.659C118.172 381.614 118.265 381.561 118.37 381.502C118.475 381.434 118.655 381.326 118.909 381.176C119.164 381.019 119.366 380.891 119.516 380.794L119.606 380.839C119.65 380.884 119.703 380.921 119.763 380.951C119.987 381.056 120.163 381.176 120.291 381.311C120.418 381.445 120.482 381.64 120.482 381.895C120.482 382.187 120.362 382.426 120.122 382.613C119.883 382.801 119.594 382.913 119.257 382.95C119.257 382.696 119.198 382.501 119.078 382.366C118.958 382.232 118.789 382.164 118.572 382.164C118.348 382.164 118.082 382.247 117.775 382.411C117.468 382.568 117.236 382.718 117.079 382.86C116.892 383.025 116.779 383.164 116.742 383.276C116.712 383.381 116.693 383.647 116.686 384.073C116.641 385.339 116.618 386.009 116.618 386.084C116.618 387.544 116.693 388.446 116.843 388.79C116.91 388.91 116.985 388.985 117.067 389.015C117.15 389.037 117.292 389.048 117.494 389.048L117.786 389.026L119.123 389.004L119.1 389.464C119.063 389.464 118.827 389.471 118.393 389.486C117.958 389.501 117.666 389.509 117.517 389.509L113.9 389.621ZM122.997 386.376L123.053 382.007C122.709 381.962 122.308 381.94 121.852 381.94C121.867 381.88 121.874 381.786 121.874 381.659C122.525 381.262 123.035 380.884 123.401 380.525C123.768 380.165 124.203 379.656 124.704 378.997L124.592 381.019C125.236 381.079 125.94 381.109 126.703 381.109C127.07 381.109 127.471 381.101 127.905 381.086L127.882 381.782C127.493 381.827 127.093 381.85 126.681 381.85C126.643 381.85 126.497 381.846 126.243 381.839C125.988 381.824 125.591 381.805 125.052 381.782C124.91 381.782 124.802 381.797 124.727 381.827C124.659 381.85 124.611 381.898 124.581 381.973C124.558 382.048 124.539 382.19 124.524 382.4C124.517 382.61 124.51 382.831 124.502 383.063L124.446 386.567C124.431 387.24 124.506 387.798 124.67 388.24C124.843 388.674 125.251 388.891 125.895 388.891C126.142 388.891 126.445 388.839 126.804 388.734C127.171 388.622 127.59 388.457 128.062 388.24C128.077 388.3 128.085 388.345 128.085 388.375C128.092 388.405 128.1 388.438 128.107 388.476C127.845 388.76 127.362 389.041 126.658 389.318C125.962 389.595 125.333 389.734 124.772 389.734C124.285 389.734 123.866 389.569 123.514 389.239C123.169 388.902 122.997 388.326 122.997 387.51V386.376ZM128.309 382.793V382.333L130.802 380.951L131.027 380.861C131.132 380.861 131.184 380.929 131.184 381.064L131.049 382.995C130.96 384.523 130.915 385.466 130.915 385.825C130.915 386.671 131.027 387.375 131.252 387.937C131.476 388.491 132 388.768 132.824 388.768C133.086 388.768 133.355 388.727 133.632 388.644C133.917 388.554 134.243 388.423 134.609 388.251C134.984 388.071 135.276 387.929 135.485 387.824C135.485 387.263 135.497 386.896 135.519 386.724L135.587 384.422C135.609 383.725 135.587 383.235 135.519 382.95C135.452 382.658 135.321 382.471 135.126 382.389C134.939 382.306 134.624 382.258 134.183 382.243L134.16 381.827L137.148 381.131C137.11 381.805 137.069 382.449 137.024 383.063C136.987 383.669 136.949 384.32 136.912 385.017C136.882 385.713 136.867 386.23 136.867 386.567C136.867 387.66 136.938 388.423 137.08 388.858C137.469 388.843 137.889 388.753 138.338 388.588V389.093C137.492 389.325 136.635 389.602 135.766 389.924C135.639 389.505 135.538 388.974 135.463 388.33C133.629 389.266 132.356 389.734 131.645 389.734C131.165 389.734 130.686 389.505 130.207 389.048C129.728 388.592 129.511 387.708 129.556 386.398L129.646 383.871C129.661 383.422 129.642 383.081 129.589 382.849C129.545 382.61 129.402 382.49 129.163 382.49C129.028 382.49 128.743 382.591 128.309 382.793ZM139.034 389.442L139.012 389.116C139.416 389.041 139.712 388.962 139.899 388.88C140.086 388.798 140.21 388.704 140.27 388.599C140.33 388.494 140.371 388.352 140.393 388.172C140.453 387.761 140.494 387.255 140.517 386.656C140.539 386.057 140.55 385.451 140.55 384.837C140.55 383.984 140.52 383.403 140.461 383.096C140.408 382.782 140.288 382.583 140.101 382.501C139.921 382.411 139.581 382.34 139.079 382.288C139.079 382.19 139.072 382.119 139.057 382.074C139.379 381.992 139.805 381.835 140.337 381.603C140.876 381.363 141.161 381.228 141.191 381.198C141.475 381.049 141.643 380.974 141.696 380.974C141.808 380.974 141.879 381.082 141.909 381.299C141.939 381.517 141.954 381.876 141.954 382.378C142.778 381.913 143.455 381.584 143.987 381.389C144.518 381.187 145.028 381.086 145.514 381.086C146.24 381.086 146.768 381.247 147.098 381.569C147.435 381.883 147.641 382.269 147.715 382.726C147.798 383.175 147.839 383.77 147.839 384.511V387.184C147.839 388.24 147.888 388.816 147.985 388.914C148.037 388.966 148.228 389.03 148.558 389.105C148.887 389.179 149.078 389.228 149.13 389.251L149.153 389.599C148.591 389.509 147.94 389.464 147.199 389.464C146.57 389.464 145.817 389.509 144.941 389.599V389.273C145.623 389.138 146.046 388.925 146.211 388.633C146.323 388.386 146.398 387.866 146.435 387.072C146.48 386.271 146.503 385.649 146.503 385.208C146.503 384.549 146.473 384.01 146.413 383.59C146.36 383.164 146.207 382.801 145.952 382.501C145.698 382.202 145.301 382.052 144.762 382.052C144.522 382.052 144.159 382.101 143.672 382.198C143.186 382.295 142.613 382.516 141.954 382.86L141.887 385.848C141.872 387.121 141.887 387.963 141.932 388.375C141.947 388.554 141.98 388.689 142.033 388.779C142.093 388.869 142.22 388.951 142.415 389.026C142.609 389.093 142.939 389.153 143.403 389.206L143.38 389.554C143.216 389.539 142.98 389.52 142.673 389.498C142.366 389.475 141.973 389.457 141.494 389.442H139.034ZM157.362 383.759L151.747 384.972C151.785 385.676 151.852 386.222 151.949 386.611C152.054 386.993 152.256 387.383 152.556 387.779C153.132 388.536 153.829 388.914 154.645 388.914C154.982 388.914 155.341 388.85 155.723 388.723C156.105 388.595 156.528 388.367 156.992 388.038L157.194 388.307C155.891 389.243 154.734 389.711 153.724 389.711C152.653 389.711 151.818 389.307 151.219 388.498C150.62 387.69 150.321 386.761 150.321 385.713C150.321 384.642 150.549 383.755 151.006 383.051C151.463 382.34 151.976 381.824 152.545 381.502C153.114 381.18 153.544 381.019 153.836 381.019C154.173 381.019 154.521 381.075 154.88 381.187C155.247 381.292 155.603 381.498 155.947 381.805C156.299 382.112 156.591 382.531 156.823 383.063C156.891 383.175 156.954 383.25 157.014 383.287C157.074 383.325 157.183 383.343 157.34 383.343L157.362 383.759ZM151.77 384.534L153.241 384.219C153.301 384.189 153.525 384.13 153.915 384.04C154.311 383.95 154.577 383.894 154.712 383.871C155.101 383.781 155.348 383.718 155.453 383.68C155.558 383.643 155.61 383.583 155.61 383.501C155.61 383.381 155.521 383.179 155.341 382.894C155.161 382.602 154.903 382.336 154.566 382.097C154.237 381.857 153.847 381.737 153.398 381.737C152.837 381.737 152.436 382.033 152.196 382.625C151.964 383.216 151.822 383.852 151.77 384.534Z" fill="white"/>
<line x1="21.4617" y1="3.12811" x2="21.4617" y2="517.254" stroke="#524747"/>
<line x1="49.9507" y1="517.253" x2="49.9507" y2="3.12509" stroke="#524747"/>
<line x1="81.7265" y1="0.0123291" x2="81.7265" y2="517.254" stroke="#524747"/>
<line x1="113.169" y1="0.0123291" x2="113.169" y2="517.254" stroke="#524747"/>
<line x1="145.922" y1="0.0123291" x2="145.922" y2="517.254" stroke="#524747"/>
<line x1="176.364" y1="517.252" x2="176.364" y2="0.0102539" stroke="#524747"/>
<line x1="204.524" y1="517.253" x2="204.524" y2="0.00921631" stroke="#524747"/>
<line x1="234.64" y1="517.263" x2="234.64" stroke="#524747"/>
<line x1="262.831" y1="517.252" x2="262.831" y2="0.0102539" stroke="#524747"/>
<line x1="292.963" y1="517.252" x2="292.963" y2="0.0102539" stroke="#524747"/>
<line x1="323.428" y1="515.694" x2="323.428" y2="0.0088501" stroke="#524747"/>
<line x1="354.538" y1="517.252" x2="354.538" y2="0.0102539" stroke="#524747"/>
<line y1="55.5985" x2="376" y2="55.5985" stroke="#524747"/>
<line y1="94.5472" x2="376" y2="94.5472" stroke="#524747"/>
<line y1="138.17" x2="376" y2="138.17" stroke="#524747"/>
<line y1="138.17" x2="376" y2="138.17" stroke="#524747"/>
<line y1="178.677" x2="376" y2="178.677" stroke="#524747"/>
<line y1="219.183" x2="376" y2="219.183" stroke="#524747"/>
<line y1="256.574" x2="376" y2="256.574" stroke="#524747"/>
<line y1="293.965" x2="376" y2="293.965" stroke="#524747"/>
<line y1="332.914" x2="376" y2="332.914" stroke="#524747"/>
<line y1="370.304" x2="376" y2="370.304" stroke="#524747"/>
<line y1="406.137" x2="376" y2="406.137" stroke="#524747"/>
<line y1="443.528" x2="376" y2="443.528" stroke="#524747"/>
<line y1="477.803" x2="376" y2="477.803" stroke="#524747"/>
<line y1="516.752" x2="376" y2="516.752" stroke="#524747"/>
<path d="M115.289 163.698L117.742 164.622C142.542 173.969 168.826 178.757 195.328 178.757H206.997H222.131C246.792 178.757 271.267 174.495 294.476 166.158L301.324 163.698V232.481C301.324 268.469 275.562 299.297 240.145 305.689V305.689C218.228 309.644 195.775 309.588 173.878 305.523L115.289 294.648V163.698Z" fill="#B26B42"/>
<mask id="path-32-inside-1_14_228" fill="white">
<path d="M117.909 294.761C109.307 294.746 100.792 293.038 92.8502 289.734C84.9085 286.429 77.6956 281.594 71.6234 275.504C65.5513 269.413 60.7387 262.187 57.4606 254.237C54.1824 246.288 52.5028 237.771 52.5177 229.173C52.5326 220.574 54.2417 212.063 57.5474 204.125C60.8532 196.187 65.6908 188.978 71.784 182.908C77.8773 176.839 85.1069 172.029 93.06 168.752C101.013 165.475 109.534 163.796 118.136 163.811L118.023 229.286L117.909 294.761Z"/>
</mask>
<path d="M117.909 294.761C109.307 294.746 100.792 293.038 92.8502 289.734C84.9085 286.429 77.6956 281.594 71.6234 275.504C65.5513 269.413 60.7387 262.187 57.4606 254.237C54.1824 246.288 52.5028 237.771 52.5177 229.173C52.5326 220.574 54.2417 212.063 57.5474 204.125C60.8532 196.187 65.6908 188.978 71.784 182.908C77.8773 176.839 85.1069 172.029 93.06 168.752C101.013 165.475 109.534 163.796 118.136 163.811L118.023 229.286L117.909 294.761Z" stroke="#B26B42" stroke-width="14" mask="url(#path-32-inside-1_14_228)"/>
<path d="M298.324 164.353C298.324 164.595 298.217 165.156 297.316 166.055C296.406 166.962 294.908 167.981 292.71 169.042C288.329 171.156 281.796 173.142 273.48 174.84C256.898 178.225 233.854 180.34 208.307 180.34C182.759 180.34 159.716 178.225 143.133 174.84C134.818 173.142 128.285 171.156 123.903 169.042C121.705 167.981 120.207 166.962 119.298 166.055C118.396 165.156 118.289 164.595 118.289 164.353C118.289 164.11 118.396 163.549 119.298 162.65C120.207 161.743 121.705 160.724 123.903 159.664C128.285 157.549 134.818 155.563 143.133 153.866C159.716 150.481 182.759 148.365 208.307 148.365C233.854 148.365 256.898 150.481 273.48 153.866C281.796 155.563 288.329 157.549 292.71 159.664C294.908 160.724 296.406 161.743 297.316 162.65C298.217 163.549 298.324 164.11 298.324 164.353Z" stroke="#B26B42" stroke-width="6"/>
<g filter="url(#filter0_dd_14_228)">
<path d="M242.371 230.64C247.899 242.032 243.14 255.747 231.742 261.272C220.344 266.797 206.624 262.041 201.096 250.649C195.568 239.257 200.327 225.542 211.725 220.017C223.123 214.491 236.844 219.248 242.371 230.64Z" stroke="#141212" stroke-width="2" shape-rendering="crispEdges"/>
</g>
<g filter="url(#filter1_dd_14_228)">
<path d="M232.503 236.823C234.936 241.838 232.842 247.876 227.823 250.309C222.805 252.742 216.764 250.647 214.331 245.632C211.898 240.618 213.992 234.58 219.011 232.147C224.029 229.714 230.07 231.809 232.503 236.823Z" stroke="#141212" stroke-width="5" shape-rendering="crispEdges"/>
</g>
<g filter="url(#filter2_dd_14_228)">
<path d="M263.393 216.251C275.296 240.784 265.049 270.318 240.504 282.216C215.959 294.114 186.412 283.871 174.509 259.339C162.605 234.806 172.853 205.272 197.397 193.374C221.942 181.475 251.489 191.718 263.393 216.251Z" stroke="#141212" stroke-width="2" shape-rendering="crispEdges"/>
</g>
<g filter="url(#filter3_dd_14_228)">
<path d="M213.602 212.943C227.252 210.516 243.027 215.071 264.87 226.134C252.661 251.386 239.593 265.721 225.036 268.745C210.508 271.764 193.958 263.609 174.528 242.412C188.214 224.798 199.976 215.366 213.602 212.943Z" stroke="#141212" stroke-width="2" shape-rendering="crispEdges"/>
</g>
<defs>
<filter id="filter0_dd_14_228" x="193.791" y="216.713" width="55.8841" height="55.862" filterUnits="userSpaceOnUse" color-interpolation-filters="sRGB">
<feFlood flood-opacity="0" result="BackgroundImageFix"/>
<feColorMatrix in="SourceAlpha" type="matrix" values="0 0 0 0 0 0 0 0 0 0 0 0 0 0 0 0 0 0 127 0" result="hardAlpha"/>
<feOffset dy="4"/>
<feGaussianBlur stdDeviation="2"/>
<feComposite in2="hardAlpha" operator="out"/>
<feColorMatrix type="matrix" values="0 0 0 0 0 0 0 0 0 0 0 0 0 0 0 0 0 0 0.25 0"/>
<feBlend mode="normal" in2="BackgroundImageFix" result="effect1_dropShadow_14_228"/>
<feColorMatrix in="SourceAlpha" type="matrix" values="0 0 0 0 0 0 0 0 0 0 0 0 0 0 0 0 0 0 127 0" result="hardAlpha"/>
<feOffset dy="4"/>
<feGaussianBlur stdDeviation="2"/>
<feComposite in2="hardAlpha" operator="out"/>
<feColorMatrix type="matrix" values="0 0 0 0 0 0 0 0 0 0 0 0 0 0 0 0 0 0 0.25 0"/>
<feBlend mode="normal" in2="effect1_dropShadow_14_228" result="effect2_dropShadow_14_228"/>
<feBlend mode="normal" in="SourceGraphic" in2="effect2_dropShadow_14_228" result="shape"/>
</filter>
<filter id="filter1_dd_14_228" x="206.816" y="228.633" width="33.2022" height="33.1906" filterUnits="userSpaceOnUse" color-interpolation-filters="sRGB">
<feFlood flood-opacity="0" result="BackgroundImageFix"/>
<feColorMatrix in="SourceAlpha" type="matrix" values="0 0 0 0 0 0 0 0 0 0 0 0 0 0 0 0 0 0 127 0" result="hardAlpha"/>
<feOffset dy="4"/>
<feGaussianBlur stdDeviation="2"/>
<feComposite in2="hardAlpha" operator="out"/>
<feColorMatrix type="matrix" values="0 0 0 0 0 0 0 0 0 0 0 0 0 0 0 0 0 0 0.25 0"/>
<feBlend mode="normal" in2="BackgroundImageFix" result="effect1_dropShadow_14_228"/>
<feColorMatrix in="SourceAlpha" type="matrix" values="0 0 0 0 0 0 0 0 0 0 0 0 0 0 0 0 0 0 127 0" result="hardAlpha"/>
<feOffset dy="4"/>
<feGaussianBlur stdDeviation="2"/>
<feComposite in2="hardAlpha" operator="out"/>
<feColorMatrix type="matrix" values="0 0 0 0 0 0 0 0 0 0 0 0 0 0 0 0 0 0 0.25 0"/>
<feBlend mode="normal" in2="effect1_dropShadow_14_228" result="effect2_dropShadow_14_228"/>
<feBlend mode="normal" in="SourceGraphic" in2="effect2_dropShadow_14_228" result="shape"/>
</filter>
<filter id="filter2_dd_14_228" x="164.547" y="187.414" width="108.809" height="108.762" filterUnits="userSpaceOnUse" color-interpolation-filters="sRGB">
<feFlood flood-opacity="0" result="BackgroundImageFix"/>
<feColorMatrix in="SourceAlpha" type="matrix" values="0 0 0 0 0 0 0 0 0 0 0 0 0 0 0 0 0 0 127 0" result="hardAlpha"/>
<feOffset dy="4"/>
<feGaussianBlur stdDeviation="2"/>
<feComposite in2="hardAlpha" operator="out"/>
<feColorMatrix type="matrix" values="0 0 0 0 0 0 0 0 0 0 0 0 0 0 0 0 0 0 0.25 0"/>
<feBlend mode="normal" in2="BackgroundImageFix" result="effect1_dropShadow_14_228"/>
<feColorMatrix in="SourceAlpha" type="matrix" values="0 0 0 0 0 0 0 0 0 0 0 0 0 0 0 0 0 0 127 0" result="hardAlpha"/>
<feOffset dy="4"/>
<feGaussianBlur stdDeviation="2"/>
<feComposite in2="hardAlpha" operator="out"/>
<feColorMatrix type="matrix" values="0 0 0 0 0 0 0 0 0 0 0 0 0 0 0 0 0 0 0.25 0"/>
<feBlend mode="normal" in2="effect1_dropShadow_14_228" result="effect2_dropShadow_14_228"/>
<feBlend mode="normal" in="SourceGraphic" in2="effect2_dropShadow_14_228" result="shape"/>
</filter>
<filter id="filter3_dd_14_228" x="169.222" y="211.308" width="100.973" height="67.0455" filterUnits="userSpaceOnUse" color-interpolation-filters="sRGB">
<feFlood flood-opacity="0" result="BackgroundImageFix"/>
<feColorMatrix in="SourceAlpha" type="matrix" values="0 0 0 0 0 0 0 0 0 0 0 0 0 0 0 0 0 0 127 0" result="hardAlpha"/>
<feOffset dy="4"/>
<feGaussianBlur stdDeviation="2"/>
<feComposite in2="hardAlpha" operator="out"/>
<feColorMatrix type="matrix" values="0 0 0 0 0 0 0 0 0 0 0 0 0 0 0 0 0 0 0.25 0"/>
<feBlend mode="normal" in2="BackgroundImageFix" result="effect1_dropShadow_14_228"/>
<feColorMatrix in="SourceAlpha" type="matrix" values="0 0 0 0 0 0 0 0 0 0 0 0 0 0 0 0 0 0 127 0" result="hardAlpha"/>
<feOffset dy="4"/>
<feGaussianBlur stdDeviation="2"/>
<feComposite in2="hardAlpha" operator="out"/>
<feColorMatrix type="matrix" values="0 0 0 0 0 0 0 0 0 0 0 0 0 0 0 0 0 0 0.25 0"/>
<feBlend mode="normal" in2="effect1_dropShadow_14_228" result="effect2_dropShadow_14_228"/>
<feBlend mode="normal" in="SourceGraphic" in2="effect2_dropShadow_14_228" result="shape"/>
</filter>
<radialGradient id="paint0_radial_14_228" cx="0" cy="0" r="1" gradientUnits="userSpaceOnUse" gradientTransform="translate(178.829 264.529) rotate(90) scale(243.567 176.209)">
<stop stop-color="#B26B42"/>
<stop offset="0.0001" stop-color="#B26B42" stop-opacity="0.395"/>
<stop offset="0.675" stop-color="#B26B42" stop-opacity="0.325"/>
<stop offset="1" stop-color="#B26B42" stop-opacity="0"/>
</radialGradient>
</defs>
</svg>
