<svg width="287" height="420" viewBox="0 0 287 420" fill="none" xmlns="http://www.w3.org/2000/svg">
<rect y="-6.10352e-05" width="287" height="420" rx="29" fill="#141212"/>
<rect x="2" y="16" width="269" height="372" fill="url(#paint0_radial_36_2)" fill-opacity="0.25"/>
<path d="M41.9375 317.783V317.441C42.7578 317.448 43.2949 317.454 43.5488 317.461C43.8027 317.467 44.0143 317.474 44.1836 317.48C45.2773 317.48 45.9967 317.467 46.3418 317.441L46.3223 317.822C45.873 317.861 45.5378 317.917 45.3164 317.988C45.0951 318.053 44.9355 318.197 44.8379 318.418C44.7793 318.561 44.737 318.919 44.7109 319.492C44.6849 320.065 44.6621 320.801 44.6426 321.699C44.6165 322.708 44.597 323.623 44.584 324.443C44.571 325.264 44.5645 326.077 44.5645 326.885C44.5645 327.62 44.584 328.164 44.623 328.516C44.6621 328.867 44.7272 329.089 44.8184 329.18C44.929 329.264 45.1113 329.326 45.3652 329.365C45.6257 329.404 46.1758 329.424 47.0156 329.424C47.9401 329.424 48.7116 329.349 49.3301 329.199C49.9551 329.049 50.4238 328.89 50.7363 328.721C51.153 328.467 51.4395 328.034 51.5957 327.422L51.918 327.461C51.8789 327.728 51.791 328.128 51.6543 328.662C51.5176 329.196 51.3581 329.681 51.1758 330.117C50.6159 330.052 50.1699 330.02 49.8379 330.02C49.6361 330.013 49.4473 330.007 49.2715 330C49.1022 330 48.9036 330 48.6758 330H41.8203L41.8008 329.697C42.1849 329.619 42.4648 329.535 42.6406 329.443C42.8164 329.352 42.9466 329.196 43.0312 328.975C43.1224 328.747 43.1777 328.408 43.1973 327.959C43.2233 327.51 43.2363 326.862 43.2363 326.016L43.2559 321.719C43.2689 320.749 43.2689 320.013 43.2559 319.512C43.2428 319.01 43.1973 318.639 43.1191 318.398C43.041 318.151 42.9173 317.992 42.748 317.92C42.5788 317.842 42.3086 317.796 41.9375 317.783ZM59.1738 324.922L54.291 325.977C54.3236 326.589 54.3822 327.064 54.4668 327.402C54.5579 327.734 54.7337 328.073 54.9941 328.418C55.4954 329.076 56.1009 329.404 56.8105 329.404C57.1035 329.404 57.416 329.349 57.748 329.238C58.0801 329.128 58.4479 328.929 58.8516 328.643L59.0273 328.877C57.8945 329.691 56.8887 330.098 56.0098 330.098C55.0788 330.098 54.3529 329.746 53.832 329.043C53.3112 328.34 53.0508 327.533 53.0508 326.621C53.0508 325.69 53.2493 324.919 53.6465 324.307C54.0436 323.688 54.4896 323.239 54.9844 322.959C55.4792 322.679 55.8535 322.539 56.1074 322.539C56.4004 322.539 56.7031 322.588 57.0156 322.686C57.3346 322.777 57.6439 322.956 57.9434 323.223C58.2493 323.49 58.5033 323.854 58.7051 324.316C58.7637 324.414 58.819 324.479 58.8711 324.512C58.9232 324.544 59.0176 324.561 59.1543 324.561L59.1738 324.922ZM54.3105 325.596L55.5898 325.322C55.6419 325.296 55.8372 325.244 56.1758 325.166C56.5208 325.088 56.752 325.039 56.8691 325.02C57.2077 324.941 57.4225 324.886 57.5137 324.854C57.6048 324.821 57.6504 324.769 57.6504 324.697C57.6504 324.593 57.5723 324.417 57.416 324.17C57.2598 323.916 57.0352 323.685 56.7422 323.477C56.4557 323.268 56.1172 323.164 55.7266 323.164C55.2383 323.164 54.89 323.421 54.6816 323.936C54.4798 324.45 54.3561 325.003 54.3105 325.596ZM60.9902 327.197L61.0391 323.398C60.7396 323.359 60.3913 323.34 59.9941 323.34C60.0072 323.288 60.0137 323.206 60.0137 323.096C60.5801 322.751 61.0228 322.422 61.3418 322.109C61.6608 321.797 62.0384 321.354 62.4746 320.781L62.377 322.539C62.9368 322.591 63.5488 322.617 64.2129 322.617C64.5319 322.617 64.8802 322.611 65.2578 322.598L65.2383 323.203C64.8997 323.242 64.5514 323.262 64.1934 323.262C64.1608 323.262 64.0339 323.258 63.8125 323.252C63.5911 323.239 63.2461 323.223 62.7773 323.203C62.6536 323.203 62.5592 323.216 62.4941 323.242C62.4355 323.262 62.3932 323.304 62.3672 323.369C62.3477 323.434 62.3314 323.558 62.3184 323.74C62.3118 323.923 62.3053 324.115 62.2988 324.316L62.25 327.363C62.237 327.949 62.3021 328.434 62.4453 328.818C62.5951 329.196 62.9499 329.385 63.5098 329.385C63.7246 329.385 63.9883 329.339 64.3008 329.248C64.6198 329.15 64.9844 329.007 65.3945 328.818C65.4076 328.87 65.4141 328.91 65.4141 328.936C65.4206 328.962 65.4271 328.991 65.4336 329.023C65.2057 329.271 64.7858 329.515 64.1738 329.756C63.5684 329.997 63.0215 330.117 62.5332 330.117C62.11 330.117 61.7454 329.974 61.4395 329.688C61.14 329.395 60.9902 328.893 60.9902 328.184V327.197ZM71.7324 327.197L71.7812 323.398C71.4818 323.359 71.1335 323.34 70.7363 323.34C70.7493 323.288 70.7559 323.206 70.7559 323.096C71.3223 322.751 71.765 322.422 72.084 322.109C72.403 321.797 72.7806 321.354 73.2168 320.781L73.1191 322.539C73.679 322.591 74.291 322.617 74.9551 322.617C75.2741 322.617 75.6224 322.611 76 322.598L75.9805 323.203C75.6419 323.242 75.2936 323.262 74.9355 323.262C74.903 323.262 74.776 323.258 74.5547 323.252C74.3333 323.239 73.9883 323.223 73.5195 323.203C73.3958 323.203 73.3014 323.216 73.2363 323.242C73.1777 323.262 73.1354 323.304 73.1094 323.369C73.0898 323.434 73.0736 323.558 73.0605 323.74C73.054 323.923 73.0475 324.115 73.041 324.316L72.9922 327.363C72.9792 327.949 73.0443 328.434 73.1875 328.818C73.3372 329.196 73.6921 329.385 74.252 329.385C74.4668 329.385 74.7305 329.339 75.043 329.248C75.362 329.15 75.7266 329.007 76.1367 328.818C76.1497 328.87 76.1562 328.91 76.1562 328.936C76.1628 328.962 76.1693 328.991 76.1758 329.023C75.9479 329.271 75.528 329.515 74.916 329.756C74.3105 329.997 73.7637 330.117 73.2754 330.117C72.8522 330.117 72.4876 329.974 72.1816 329.688C71.8822 329.395 71.7324 328.893 71.7324 328.184V327.197ZM76.5176 318.115V317.744C76.6608 317.673 76.7552 317.624 76.8008 317.598L78.6953 316.68L79.0176 316.504L79.3398 316.66C79.2161 317.246 79.1283 317.923 79.0762 318.691C79.0241 319.453 78.985 320.423 78.959 321.602L78.9004 323.584C79.6686 323.252 80.2904 323.008 80.7656 322.852C81.2474 322.695 81.7096 322.617 82.1523 322.617C82.7773 322.617 83.2331 322.809 83.5195 323.193C83.806 323.571 83.9818 324.036 84.0469 324.59C84.1185 325.137 84.1543 325.859 84.1543 326.758C84.1543 326.934 84.151 327.096 84.1445 327.246C84.1445 327.396 84.1413 327.607 84.1348 327.881C84.1283 328.148 84.1185 328.395 84.1055 328.623C84.099 328.844 84.0957 328.971 84.0957 329.004C84.0957 329.284 84.1641 329.469 84.3008 329.561C84.4375 329.652 84.8151 329.697 85.4336 329.697L85.4141 330H84.7793C84.6816 330 84.278 330.003 83.5684 330.01C82.8652 330.016 82.5039 330.02 82.4844 330.02C82.4648 330.02 82.3216 330.052 82.0547 330.117C81.9896 330.117 81.957 330.072 81.957 329.98C81.957 329.915 82.0091 329.87 82.1133 329.844C82.3607 329.785 82.543 329.681 82.6602 329.531C82.7839 329.382 82.8652 329.128 82.9043 328.77C82.9499 328.411 82.9727 327.822 82.9727 327.002C82.9727 325.706 82.8685 324.782 82.6602 324.229C82.4518 323.675 81.9766 323.398 81.2344 323.398C80.8503 323.398 80.4271 323.47 79.9648 323.613C79.5026 323.757 79.1608 323.887 78.9395 324.004C78.9395 324.186 78.9264 324.492 78.9004 324.922L78.8125 327.275C78.8125 327.425 78.8092 327.562 78.8027 327.686C78.8027 327.809 78.7995 327.946 78.793 328.096C78.793 328.727 78.8353 329.134 78.9199 329.316C78.9525 329.427 79.0306 329.505 79.1543 329.551C79.278 329.59 79.6068 329.632 80.1406 329.678V330.02C79.9258 329.993 79.4701 329.98 78.7734 329.98C78.0508 329.98 77.2728 330.013 76.4395 330.078L76.459 329.756C76.8757 329.671 77.1491 329.59 77.2793 329.512C77.416 329.427 77.5072 329.271 77.5527 329.043C77.6048 328.815 77.6406 328.389 77.6602 327.764C77.6797 326.742 77.7057 325.866 77.7383 325.137L77.7773 322.402C77.7904 322.122 77.7969 321.501 77.7969 320.537C77.7969 319.658 77.7578 319.01 77.6797 318.594C77.6081 318.171 77.4258 317.959 77.1328 317.959C77.0872 317.959 76.8822 318.011 76.5176 318.115ZM92.4551 324.922L87.5723 325.977C87.6048 326.589 87.6634 327.064 87.748 327.402C87.8392 327.734 88.015 328.073 88.2754 328.418C88.7767 329.076 89.3822 329.404 90.0918 329.404C90.3848 329.404 90.6973 329.349 91.0293 329.238C91.3613 329.128 91.7292 328.929 92.1328 328.643L92.3086 328.877C91.1758 329.691 90.1699 330.098 89.291 330.098C88.36 330.098 87.6341 329.746 87.1133 329.043C86.5924 328.34 86.332 327.533 86.332 326.621C86.332 325.69 86.5306 324.919 86.9277 324.307C87.3249 323.688 87.7708 323.239 88.2656 322.959C88.7604 322.679 89.1348 322.539 89.3887 322.539C89.6816 322.539 89.9844 322.588 90.2969 322.686C90.6159 322.777 90.9251 322.956 91.2246 323.223C91.5306 323.49 91.7845 323.854 91.9863 324.316C92.0449 324.414 92.1003 324.479 92.1523 324.512C92.2044 324.544 92.2988 324.561 92.4355 324.561L92.4551 324.922ZM87.5918 325.596L88.8711 325.322C88.9232 325.296 89.1185 325.244 89.457 325.166C89.8021 325.088 90.0332 325.039 90.1504 325.02C90.4889 324.941 90.7038 324.886 90.7949 324.854C90.8861 324.821 90.9316 324.769 90.9316 324.697C90.9316 324.593 90.8535 324.417 90.6973 324.17C90.541 323.916 90.3164 323.685 90.0234 323.477C89.737 323.268 89.3984 323.164 89.0078 323.164C88.5195 323.164 88.1712 323.421 87.9629 323.936C87.7611 324.45 87.6374 325.003 87.5918 325.596ZM104.76 328.779L104.896 329.062C104.031 329.779 103.139 330.137 102.221 330.137C101.693 330.137 101.146 330.029 100.58 329.814C100.02 329.593 99.5807 329.31 99.2617 328.965C99.0599 328.724 98.9004 328.389 98.7832 327.959C98.6725 327.523 98.6172 327.103 98.6172 326.699C98.6172 325.885 98.8353 325.146 99.2715 324.482C99.7077 323.812 100.242 323.291 100.873 322.92C101.511 322.549 102.107 322.363 102.66 322.363C102.992 322.363 103.454 322.458 104.047 322.646C104.639 322.829 104.936 323.001 104.936 323.164C104.936 323.229 104.844 323.398 104.662 323.672C104.48 323.945 104.333 324.082 104.223 324.082C104.171 324.082 104.096 324.056 103.998 324.004C103.907 323.952 103.747 323.864 103.52 323.74C102.81 323.447 102.224 323.301 101.762 323.301C101.104 323.301 100.609 323.516 100.277 323.945C99.9453 324.375 99.7793 325.02 99.7793 325.879C99.7793 326.667 99.9518 327.331 100.297 327.871C100.642 328.411 101.055 328.805 101.537 329.053C102.025 329.3 102.471 329.424 102.875 329.424C103.214 329.424 103.526 329.365 103.812 329.248C104.105 329.131 104.421 328.975 104.76 328.779ZM107.66 324.238L106.459 324.775C106.407 324.567 106.381 324.414 106.381 324.316C106.381 323.984 106.583 323.678 106.986 323.398C107.396 323.112 107.855 322.881 108.363 322.705C108.878 322.529 109.236 322.441 109.438 322.441C109.613 322.441 109.831 322.52 110.092 322.676C110.352 322.832 110.561 322.988 110.717 323.145C110.854 323.275 110.958 323.405 111.029 323.535C111.107 323.659 111.176 323.857 111.234 324.131C111.293 324.404 111.322 324.753 111.322 325.176C111.322 325.299 111.306 325.736 111.273 326.484L111.234 327.217C111.208 327.568 111.195 327.848 111.195 328.057C111.195 328.324 111.231 328.61 111.303 328.916C111.368 329.229 111.514 329.385 111.742 329.385C111.996 329.385 112.335 329.29 112.758 329.102V329.502L111.322 330.078C111.036 330.176 110.873 330.225 110.834 330.225C110.684 330.225 110.535 330.127 110.385 329.932C110.242 329.73 110.124 329.492 110.033 329.219C108.829 329.889 107.904 330.225 107.26 330.225C106.863 330.225 106.563 330.111 106.361 329.883C106.16 329.648 106.059 329.3 106.059 328.838C106.059 328.395 106.111 328.066 106.215 327.852C106.326 327.637 106.501 327.467 106.742 327.344C107.23 327.096 107.748 326.914 108.295 326.797C108.842 326.673 109.415 326.569 110.014 326.484L110.062 325.283V324.961C110.062 324.408 109.903 323.971 109.584 323.652C109.271 323.327 108.904 323.164 108.48 323.164C108.279 323.164 108.074 323.223 107.865 323.34C107.663 323.451 107.562 323.61 107.562 323.818C107.562 323.923 107.595 324.062 107.66 324.238ZM109.975 328.857C109.955 328.643 109.975 328.031 110.033 327.021C109.174 326.963 108.484 327.067 107.963 327.334C107.442 327.601 107.182 327.936 107.182 328.34C107.182 328.633 107.26 328.91 107.416 329.17C107.579 329.43 107.8 329.561 108.08 329.561C108.393 329.561 109.024 329.326 109.975 328.857ZM113.236 330.02L113.256 329.736C113.581 329.671 113.806 329.606 113.93 329.541C114.053 329.476 114.161 329.323 114.252 329.082C114.343 328.841 114.402 328.48 114.428 327.998C114.46 327.516 114.477 326.777 114.477 325.781C114.477 324.993 114.434 324.469 114.35 324.209C114.265 323.949 114.053 323.818 113.715 323.818C113.513 323.818 113.308 323.844 113.1 323.896L113.139 323.584L115.658 322.119C115.684 322.523 115.697 323.076 115.697 323.779L116.742 323.184C116.794 323.151 116.84 323.122 116.879 323.096C116.951 323.057 117.032 323.011 117.123 322.959C117.214 322.9 117.37 322.806 117.592 322.676C117.813 322.539 117.989 322.428 118.119 322.344L118.197 322.383C118.236 322.422 118.282 322.454 118.334 322.48C118.529 322.572 118.682 322.676 118.793 322.793C118.904 322.91 118.959 323.079 118.959 323.301C118.959 323.555 118.855 323.763 118.646 323.926C118.438 324.089 118.188 324.186 117.895 324.219C117.895 323.997 117.842 323.828 117.738 323.711C117.634 323.594 117.488 323.535 117.299 323.535C117.104 323.535 116.872 323.607 116.605 323.75C116.339 323.887 116.137 324.017 116 324.141C115.837 324.284 115.74 324.404 115.707 324.502C115.681 324.593 115.665 324.824 115.658 325.195C115.619 326.296 115.6 326.878 115.6 326.943C115.6 328.213 115.665 328.997 115.795 329.297C115.854 329.401 115.919 329.466 115.99 329.492C116.062 329.512 116.186 329.521 116.361 329.521L116.615 329.502L117.777 329.482L117.758 329.883C117.725 329.883 117.52 329.889 117.143 329.902C116.765 329.915 116.511 329.922 116.381 329.922L113.236 330.02ZM125.404 320.703V319.336C125.359 318.9 125.316 318.6 125.277 318.438C125.245 318.268 125.189 318.158 125.111 318.105C125.04 318.047 124.923 318.018 124.76 318.018C124.584 318.018 124.366 318.05 124.105 318.115L124.086 317.822C125.284 317.327 126.143 316.895 126.664 316.523L126.898 316.621C126.827 316.934 126.765 317.477 126.713 318.252C126.661 319.027 126.609 319.954 126.557 321.035L126.518 322.002L126.439 325.938V326.885C126.439 327.816 126.469 328.516 126.527 328.984C126.592 329.447 126.684 329.678 126.801 329.678C126.872 329.678 127.022 329.645 127.25 329.58C127.484 329.515 127.729 329.44 127.982 329.355V329.717C126.452 330.251 125.626 330.518 125.502 330.518C125.404 330.518 125.329 330.384 125.277 330.117C125.225 329.857 125.199 329.463 125.199 328.936C124.496 329.307 123.936 329.57 123.52 329.727C123.103 329.883 122.663 329.961 122.201 329.961C121.719 329.961 121.247 329.837 120.785 329.59C120.323 329.336 119.942 328.968 119.643 328.486C119.35 328.005 119.203 327.448 119.203 326.816C119.203 325.951 119.395 325.228 119.779 324.648C120.17 324.062 120.616 323.623 121.117 323.33C121.625 323.031 122.107 322.819 122.562 322.695C123.025 322.565 123.324 322.5 123.461 322.5C123.663 322.5 123.92 322.526 124.232 322.578C124.545 322.63 124.916 322.712 125.346 322.822C125.385 322.1 125.404 321.393 125.404 320.703ZM125.199 327.48L125.258 324.141C125.258 323.991 125.144 323.857 124.916 323.74C124.695 323.617 124.447 323.522 124.174 323.457C123.907 323.392 123.611 323.337 123.285 323.291C122.96 323.245 122.771 323.223 122.719 323.223C122.302 323.223 121.905 323.333 121.527 323.555C121.156 323.77 120.857 324.066 120.629 324.443C120.408 324.821 120.297 325.241 120.297 325.703C120.297 326.419 120.427 327.038 120.688 327.559C120.948 328.079 121.299 328.477 121.742 328.75C122.191 329.023 122.683 329.16 123.217 329.16C123.594 329.16 123.936 329.095 124.242 328.965C124.555 328.828 124.874 328.659 125.199 328.457C125.193 328.411 125.189 328.285 125.189 328.076C125.196 327.868 125.199 327.669 125.199 327.48ZM139.896 320.703V319.336C139.851 318.9 139.809 318.6 139.77 318.438C139.737 318.268 139.682 318.158 139.604 318.105C139.532 318.047 139.415 318.018 139.252 318.018C139.076 318.018 138.858 318.05 138.598 318.115L138.578 317.822C139.776 317.327 140.635 316.895 141.156 316.523L141.391 316.621C141.319 316.934 141.257 317.477 141.205 318.252C141.153 319.027 141.101 319.954 141.049 321.035L141.01 322.002L140.932 325.938V326.885C140.932 327.816 140.961 328.516 141.02 328.984C141.085 329.447 141.176 329.678 141.293 329.678C141.365 329.678 141.514 329.645 141.742 329.58C141.977 329.515 142.221 329.44 142.475 329.355V329.717C140.945 330.251 140.118 330.518 139.994 330.518C139.896 330.518 139.822 330.384 139.77 330.117C139.717 329.857 139.691 329.463 139.691 328.936C138.988 329.307 138.428 329.57 138.012 329.727C137.595 329.883 137.156 329.961 136.693 329.961C136.212 329.961 135.74 329.837 135.277 329.59C134.815 329.336 134.434 328.968 134.135 328.486C133.842 328.005 133.695 327.448 133.695 326.816C133.695 325.951 133.887 325.228 134.271 324.648C134.662 324.062 135.108 323.623 135.609 323.33C136.117 323.031 136.599 322.819 137.055 322.695C137.517 322.565 137.816 322.5 137.953 322.5C138.155 322.5 138.412 322.526 138.725 322.578C139.037 322.63 139.408 322.712 139.838 322.822C139.877 322.1 139.896 321.393 139.896 320.703ZM139.691 327.48L139.75 324.141C139.75 323.991 139.636 323.857 139.408 323.74C139.187 323.617 138.939 323.522 138.666 323.457C138.399 323.392 138.103 323.337 137.777 323.291C137.452 323.245 137.263 323.223 137.211 323.223C136.794 323.223 136.397 323.333 136.02 323.555C135.648 323.77 135.349 324.066 135.121 324.443C134.9 324.821 134.789 325.241 134.789 325.703C134.789 326.419 134.919 327.038 135.18 327.559C135.44 328.079 135.792 328.477 136.234 328.75C136.684 329.023 137.175 329.16 137.709 329.16C138.087 329.16 138.428 329.095 138.734 328.965C139.047 328.828 139.366 328.659 139.691 328.457C139.685 328.411 139.682 328.285 139.682 328.076C139.688 327.868 139.691 327.669 139.691 327.48ZM143.285 326.338C143.285 325.765 143.389 325.247 143.598 324.785C143.812 324.316 144.105 323.913 144.477 323.574C144.848 323.236 145.281 322.975 145.775 322.793C146.27 322.611 146.801 322.52 147.367 322.52C147.882 322.52 148.367 322.614 148.822 322.803C149.285 322.992 149.688 323.252 150.033 323.584C150.378 323.916 150.648 324.31 150.844 324.766C151.046 325.215 151.146 325.7 151.146 326.221C151.146 326.898 150.984 327.533 150.658 328.125C150.339 328.717 149.883 329.196 149.291 329.561C148.705 329.919 148.028 330.098 147.26 330.098C146.68 330.098 146.081 329.971 145.463 329.717C144.851 329.463 144.333 329.056 143.91 328.496C143.493 327.93 143.285 327.21 143.285 326.338ZM144.564 325.801C144.564 326.406 144.685 327.008 144.926 327.607C145.167 328.206 145.502 328.698 145.932 329.082C146.368 329.466 146.846 329.658 147.367 329.658C147.823 329.658 148.236 329.535 148.607 329.287C148.979 329.033 149.275 328.675 149.496 328.213C149.717 327.751 149.828 327.227 149.828 326.641C149.828 326.048 149.698 325.472 149.438 324.912C149.184 324.346 148.829 323.887 148.373 323.535C147.924 323.177 147.426 322.998 146.879 322.998C146.436 322.998 146.039 323.118 145.688 323.359C145.336 323.6 145.059 323.936 144.857 324.365C144.662 324.795 144.564 325.273 144.564 325.801ZM159.223 324.238L158.021 324.775C157.969 324.567 157.943 324.414 157.943 324.316C157.943 323.984 158.145 323.678 158.549 323.398C158.959 323.112 159.418 322.881 159.926 322.705C160.44 322.529 160.798 322.441 161 322.441C161.176 322.441 161.394 322.52 161.654 322.676C161.915 322.832 162.123 322.988 162.279 323.145C162.416 323.275 162.52 323.405 162.592 323.535C162.67 323.659 162.738 323.857 162.797 324.131C162.855 324.404 162.885 324.753 162.885 325.176C162.885 325.299 162.868 325.736 162.836 326.484L162.797 327.217C162.771 327.568 162.758 327.848 162.758 328.057C162.758 328.324 162.794 328.61 162.865 328.916C162.93 329.229 163.077 329.385 163.305 329.385C163.559 329.385 163.897 329.29 164.32 329.102V329.502L162.885 330.078C162.598 330.176 162.436 330.225 162.396 330.225C162.247 330.225 162.097 330.127 161.947 329.932C161.804 329.73 161.687 329.492 161.596 329.219C160.391 329.889 159.467 330.225 158.822 330.225C158.425 330.225 158.126 330.111 157.924 329.883C157.722 329.648 157.621 329.3 157.621 328.838C157.621 328.395 157.673 328.066 157.777 327.852C157.888 327.637 158.064 327.467 158.305 327.344C158.793 327.096 159.311 326.914 159.857 326.797C160.404 326.673 160.977 326.569 161.576 326.484L161.625 325.283V324.961C161.625 324.408 161.465 323.971 161.146 323.652C160.834 323.327 160.466 323.164 160.043 323.164C159.841 323.164 159.636 323.223 159.428 323.34C159.226 323.451 159.125 323.61 159.125 323.818C159.125 323.923 159.158 324.062 159.223 324.238ZM161.537 328.857C161.518 328.643 161.537 328.031 161.596 327.021C160.736 326.963 160.046 327.067 159.525 327.334C159.005 327.601 158.744 327.936 158.744 328.34C158.744 328.633 158.822 328.91 158.979 329.17C159.141 329.43 159.363 329.561 159.643 329.561C159.955 329.561 160.587 329.326 161.537 328.857ZM164.584 330.039V329.736C165.072 329.652 165.417 329.505 165.619 329.297C165.821 329.089 165.948 328.77 166 328.34C166.033 328.118 166.068 327.611 166.107 326.816C166.146 326.016 166.182 325.101 166.215 324.072C166.247 323.044 166.264 322.119 166.264 321.299C166.264 319.58 166.176 318.6 166 318.359C165.889 318.197 165.668 318.115 165.336 318.115C165.258 318.115 165.196 318.118 165.15 318.125C165.105 318.132 165.062 318.138 165.023 318.145C164.984 318.151 164.942 318.158 164.896 318.164V317.861C166.14 317.34 167.016 316.901 167.523 316.543H167.816C167.615 317.311 167.488 318.704 167.436 320.723L167.357 325.42C167.357 327.62 167.406 328.867 167.504 329.16C167.562 329.329 167.758 329.46 168.09 329.551C168.422 329.635 168.718 329.691 168.979 329.717V330.078C167.702 329.987 166.843 329.941 166.4 329.941C165.808 329.941 165.202 329.974 164.584 330.039ZM169.389 330.039V329.736C169.877 329.652 170.222 329.505 170.424 329.297C170.626 329.089 170.753 328.77 170.805 328.34C170.837 328.118 170.873 327.611 170.912 326.816C170.951 326.016 170.987 325.101 171.02 324.072C171.052 323.044 171.068 322.119 171.068 321.299C171.068 319.58 170.98 318.6 170.805 318.359C170.694 318.197 170.473 318.115 170.141 318.115C170.062 318.115 170.001 318.118 169.955 318.125C169.91 318.132 169.867 318.138 169.828 318.145C169.789 318.151 169.747 318.158 169.701 318.164V317.861C170.945 317.34 171.82 316.901 172.328 316.543H172.621C172.419 317.311 172.292 318.704 172.24 320.723L172.162 325.42C172.162 327.62 172.211 328.867 172.309 329.16C172.367 329.329 172.562 329.46 172.895 329.551C173.227 329.635 173.523 329.691 173.783 329.717V330.078C172.507 329.987 171.648 329.941 171.205 329.941C170.613 329.941 170.007 329.974 169.389 330.039ZM179.311 330.02L179.33 329.736C179.656 329.671 179.88 329.606 180.004 329.541C180.128 329.476 180.235 329.323 180.326 329.082C180.417 328.841 180.476 328.48 180.502 327.998C180.535 327.516 180.551 326.777 180.551 325.781C180.551 324.993 180.508 324.469 180.424 324.209C180.339 323.949 180.128 323.818 179.789 323.818C179.587 323.818 179.382 323.844 179.174 323.896L179.213 323.584L181.732 322.119C181.758 322.523 181.771 323.076 181.771 323.779L182.816 323.184C182.868 323.151 182.914 323.122 182.953 323.096C183.025 323.057 183.106 323.011 183.197 322.959C183.288 322.9 183.445 322.806 183.666 322.676C183.887 322.539 184.063 322.428 184.193 322.344L184.271 322.383C184.311 322.422 184.356 322.454 184.408 322.48C184.604 322.572 184.757 322.676 184.867 322.793C184.978 322.91 185.033 323.079 185.033 323.301C185.033 323.555 184.929 323.763 184.721 323.926C184.512 324.089 184.262 324.186 183.969 324.219C183.969 323.997 183.917 323.828 183.812 323.711C183.708 323.594 183.562 323.535 183.373 323.535C183.178 323.535 182.947 323.607 182.68 323.75C182.413 323.887 182.211 324.017 182.074 324.141C181.911 324.284 181.814 324.404 181.781 324.502C181.755 324.593 181.739 324.824 181.732 325.195C181.693 326.296 181.674 326.878 181.674 326.943C181.674 328.213 181.739 328.997 181.869 329.297C181.928 329.401 181.993 329.466 182.064 329.492C182.136 329.512 182.26 329.521 182.436 329.521L182.689 329.502L183.852 329.482L183.832 329.883C183.799 329.883 183.594 329.889 183.217 329.902C182.839 329.915 182.585 329.922 182.455 329.922L179.311 330.02ZM191.713 324.922L186.83 325.977C186.863 326.589 186.921 327.064 187.006 327.402C187.097 327.734 187.273 328.073 187.533 328.418C188.035 329.076 188.64 329.404 189.35 329.404C189.643 329.404 189.955 329.349 190.287 329.238C190.619 329.128 190.987 328.929 191.391 328.643L191.566 328.877C190.434 329.691 189.428 330.098 188.549 330.098C187.618 330.098 186.892 329.746 186.371 329.043C185.85 328.34 185.59 327.533 185.59 326.621C185.59 325.69 185.788 324.919 186.186 324.307C186.583 323.688 187.029 323.239 187.523 322.959C188.018 322.679 188.393 322.539 188.646 322.539C188.939 322.539 189.242 322.588 189.555 322.686C189.874 322.777 190.183 322.956 190.482 323.223C190.788 323.49 191.042 323.854 191.244 324.316C191.303 324.414 191.358 324.479 191.41 324.512C191.462 324.544 191.557 324.561 191.693 324.561L191.713 324.922ZM186.85 325.596L188.129 325.322C188.181 325.296 188.376 325.244 188.715 325.166C189.06 325.088 189.291 325.039 189.408 325.02C189.747 324.941 189.962 324.886 190.053 324.854C190.144 324.821 190.189 324.769 190.189 324.697C190.189 324.593 190.111 324.417 189.955 324.17C189.799 323.916 189.574 323.685 189.281 323.477C188.995 323.268 188.656 323.164 188.266 323.164C187.777 323.164 187.429 323.421 187.221 323.936C187.019 324.45 186.895 325.003 186.85 325.596ZM192.65 327.803L192.992 327.822C192.992 327.946 193.096 328.148 193.305 328.428C193.52 328.708 193.806 328.962 194.164 329.189C194.522 329.411 194.913 329.521 195.336 329.521C195.642 329.521 195.948 329.456 196.254 329.326C196.56 329.196 196.713 328.913 196.713 328.477C196.713 328.021 196.553 327.653 196.234 327.373C195.915 327.1 195.554 326.862 195.15 326.66L194.418 326.318C193.988 326.097 193.646 325.863 193.393 325.615C193.139 325.374 193.012 325.062 193.012 324.678C193.012 324.378 193.119 324.066 193.334 323.74C193.549 323.408 193.858 323.135 194.262 322.92C194.672 322.705 195.134 322.598 195.648 322.598C195.961 322.598 196.482 322.646 197.211 322.744L197.533 324.404H197.191C197.133 324.176 196.996 323.962 196.781 323.76C196.573 323.551 196.326 323.376 196.039 323.232C195.759 323.089 195.518 323.018 195.316 323.018C194.971 323.018 194.691 323.125 194.477 323.34C194.262 323.555 194.154 323.828 194.154 324.16C194.154 324.427 194.232 324.639 194.389 324.795C194.545 324.958 194.841 325.146 195.277 325.361L195.873 325.645C196.413 325.898 196.876 326.195 197.26 326.533C197.644 326.878 197.836 327.354 197.836 327.959C197.836 328.187 197.787 328.431 197.689 328.691C197.598 328.945 197.458 329.128 197.27 329.238C196.729 329.583 196.283 329.808 195.932 329.912C195.58 330.01 195.222 330.059 194.857 330.059C194.727 330.059 194.542 330.042 194.301 330.01C194.06 329.977 193.891 329.951 193.793 329.932C193.695 329.912 193.526 329.867 193.285 329.795C193.044 329.723 192.888 329.678 192.816 329.658C192.868 329.398 192.895 329.212 192.895 329.102C192.895 328.939 192.865 328.717 192.807 328.438C192.755 328.151 192.702 327.939 192.65 327.803ZM199.994 327.197L200.043 323.398C199.743 323.359 199.395 323.34 198.998 323.34C199.011 323.288 199.018 323.206 199.018 323.096C199.584 322.751 200.027 322.422 200.346 322.109C200.665 321.797 201.042 321.354 201.479 320.781L201.381 322.539C201.941 322.591 202.553 322.617 203.217 322.617C203.536 322.617 203.884 322.611 204.262 322.598L204.242 323.203C203.904 323.242 203.555 323.262 203.197 323.262C203.165 323.262 203.038 323.258 202.816 323.252C202.595 323.239 202.25 323.223 201.781 323.203C201.658 323.203 201.563 323.216 201.498 323.242C201.439 323.262 201.397 323.304 201.371 323.369C201.352 323.434 201.335 323.558 201.322 323.74C201.316 323.923 201.309 324.115 201.303 324.316L201.254 327.363C201.241 327.949 201.306 328.434 201.449 328.818C201.599 329.196 201.954 329.385 202.514 329.385C202.729 329.385 202.992 329.339 203.305 329.248C203.624 329.15 203.988 329.007 204.398 328.818C204.411 328.87 204.418 328.91 204.418 328.936C204.424 328.962 204.431 328.991 204.438 329.023C204.21 329.271 203.79 329.515 203.178 329.756C202.572 329.997 202.025 330.117 201.537 330.117C201.114 330.117 200.749 329.974 200.443 329.688C200.144 329.395 199.994 328.893 199.994 328.184V327.197ZM210.082 326.338C210.082 325.765 210.186 325.247 210.395 324.785C210.609 324.316 210.902 323.913 211.273 323.574C211.645 323.236 212.077 322.975 212.572 322.793C213.067 322.611 213.598 322.52 214.164 322.52C214.678 322.52 215.163 322.614 215.619 322.803C216.081 322.992 216.485 323.252 216.83 323.584C217.175 323.916 217.445 324.31 217.641 324.766C217.842 325.215 217.943 325.7 217.943 326.221C217.943 326.898 217.781 327.533 217.455 328.125C217.136 328.717 216.68 329.196 216.088 329.561C215.502 329.919 214.825 330.098 214.057 330.098C213.477 330.098 212.878 329.971 212.26 329.717C211.648 329.463 211.13 329.056 210.707 328.496C210.29 327.93 210.082 327.21 210.082 326.338ZM211.361 325.801C211.361 326.406 211.482 327.008 211.723 327.607C211.964 328.206 212.299 328.698 212.729 329.082C213.165 329.466 213.643 329.658 214.164 329.658C214.62 329.658 215.033 329.535 215.404 329.287C215.775 329.033 216.072 328.675 216.293 328.213C216.514 327.751 216.625 327.227 216.625 326.641C216.625 326.048 216.495 325.472 216.234 324.912C215.98 324.346 215.626 323.887 215.17 323.535C214.721 323.177 214.223 322.998 213.676 322.998C213.233 322.998 212.836 323.118 212.484 323.359C212.133 323.6 211.856 323.936 211.654 324.365C211.459 324.795 211.361 325.273 211.361 325.801ZM219.398 323.242V322.656L220.697 322.637C220.704 321.504 220.801 320.605 220.99 319.941C221.179 319.277 221.452 318.737 221.811 318.32C222.097 317.988 222.455 317.686 222.885 317.412C223.314 317.132 223.741 316.917 224.164 316.768C224.587 316.618 224.939 316.543 225.219 316.543C225.596 316.543 225.971 316.611 226.342 316.748C226.713 316.878 226.898 317.035 226.898 317.217C226.898 317.321 226.827 317.477 226.684 317.686C226.54 317.894 226.404 317.998 226.273 317.998L225.492 317.725C224.945 317.523 224.512 317.422 224.193 317.422C223.679 317.422 223.266 317.572 222.953 317.871C222.641 318.171 222.403 318.701 222.24 319.463C222.077 320.225 221.983 321.283 221.957 322.637H224.613V323.262L221.957 323.281L221.918 326.064C221.918 327.184 221.928 328.008 221.947 328.535C221.967 329.062 222.022 329.372 222.113 329.463C222.172 329.508 222.27 329.538 222.406 329.551C222.543 329.564 222.94 329.58 223.598 329.6V329.98C223.214 329.967 222.559 329.958 221.635 329.951C220.717 329.945 219.949 329.941 219.33 329.941V329.619C219.675 329.6 219.932 329.557 220.102 329.492C220.277 329.421 220.404 329.3 220.482 329.131C220.567 328.955 220.619 328.708 220.639 328.389C220.665 328.063 220.678 327.607 220.678 327.021L220.697 323.76C220.697 323.525 220.671 323.392 220.619 323.359C220.495 323.281 220.089 323.242 219.398 323.242ZM42.416 350.197L42.4648 346.398C42.1654 346.359 41.8171 346.34 41.4199 346.34C41.4329 346.288 41.4395 346.206 41.4395 346.096C42.0059 345.751 42.4486 345.422 42.7676 345.109C43.0866 344.797 43.4642 344.354 43.9004 343.781L43.8027 345.539C44.3626 345.591 44.9746 345.617 45.6387 345.617C45.9577 345.617 46.306 345.611 46.6836 345.598L46.6641 346.203C46.3255 346.242 45.9772 346.262 45.6191 346.262C45.5866 346.262 45.4596 346.258 45.2383 346.252C45.0169 346.239 44.6719 346.223 44.2031 346.203C44.0794 346.203 43.985 346.216 43.9199 346.242C43.8613 346.262 43.819 346.304 43.793 346.369C43.7734 346.434 43.7572 346.558 43.7441 346.74C43.7376 346.923 43.7311 347.115 43.7246 347.316L43.6758 350.363C43.6628 350.949 43.7279 351.434 43.8711 351.818C44.0208 352.196 44.3757 352.385 44.9355 352.385C45.1504 352.385 45.4141 352.339 45.7266 352.248C46.0456 352.15 46.4102 352.007 46.8203 351.818C46.8333 351.87 46.8398 351.91 46.8398 351.936C46.8464 351.962 46.8529 351.991 46.8594 352.023C46.6315 352.271 46.2116 352.515 45.5996 352.756C44.9941 352.997 44.4473 353.117 43.959 353.117C43.5358 353.117 43.1712 352.974 42.8652 352.688C42.5658 352.395 42.416 351.893 42.416 351.184V350.197ZM47.2012 341.115V340.744C47.3444 340.673 47.4388 340.624 47.4844 340.598L49.3789 339.68L49.7012 339.504L50.0234 339.66C49.8997 340.246 49.8118 340.923 49.7598 341.691C49.7077 342.453 49.6686 343.423 49.6426 344.602L49.584 346.584C50.3522 346.252 50.974 346.008 51.4492 345.852C51.931 345.695 52.3932 345.617 52.8359 345.617C53.4609 345.617 53.9167 345.809 54.2031 346.193C54.4896 346.571 54.6654 347.036 54.7305 347.59C54.8021 348.137 54.8379 348.859 54.8379 349.758C54.8379 349.934 54.8346 350.096 54.8281 350.246C54.8281 350.396 54.8249 350.607 54.8184 350.881C54.8118 351.148 54.8021 351.395 54.7891 351.623C54.7826 351.844 54.7793 351.971 54.7793 352.004C54.7793 352.284 54.8477 352.469 54.9844 352.561C55.1211 352.652 55.4987 352.697 56.1172 352.697L56.0977 353H55.4629C55.3652 353 54.9616 353.003 54.252 353.01C53.5488 353.016 53.1875 353.02 53.168 353.02C53.1484 353.02 53.0052 353.052 52.7383 353.117C52.6732 353.117 52.6406 353.072 52.6406 352.98C52.6406 352.915 52.6927 352.87 52.7969 352.844C53.0443 352.785 53.2266 352.681 53.3438 352.531C53.4674 352.382 53.5488 352.128 53.5879 351.77C53.6335 351.411 53.6562 350.822 53.6562 350.002C53.6562 348.706 53.5521 347.782 53.3438 347.229C53.1354 346.675 52.6602 346.398 51.918 346.398C51.5339 346.398 51.1107 346.47 50.6484 346.613C50.1862 346.757 49.8444 346.887 49.623 347.004C49.623 347.186 49.61 347.492 49.584 347.922L49.4961 350.275C49.4961 350.425 49.4928 350.562 49.4863 350.686C49.4863 350.809 49.4831 350.946 49.4766 351.096C49.4766 351.727 49.5189 352.134 49.6035 352.316C49.6361 352.427 49.7142 352.505 49.8379 352.551C49.9616 352.59 50.2904 352.632 50.8242 352.678V353.02C50.6094 352.993 50.1536 352.98 49.457 352.98C48.7344 352.98 47.9564 353.013 47.123 353.078L47.1426 352.756C47.5592 352.671 47.8327 352.59 47.9629 352.512C48.0996 352.427 48.1908 352.271 48.2363 352.043C48.2884 351.815 48.3242 351.389 48.3438 350.764C48.3633 349.742 48.3893 348.866 48.4219 348.137L48.4609 345.402C48.474 345.122 48.4805 344.501 48.4805 343.537C48.4805 342.658 48.4414 342.01 48.3633 341.594C48.2917 341.171 48.1094 340.959 47.8164 340.959C47.7708 340.959 47.5658 341.011 47.2012 341.115ZM63.1387 347.922L58.2559 348.977C58.2884 349.589 58.347 350.064 58.4316 350.402C58.5228 350.734 58.6986 351.073 58.959 351.418C59.4603 352.076 60.0658 352.404 60.7754 352.404C61.0684 352.404 61.3809 352.349 61.7129 352.238C62.0449 352.128 62.4128 351.929 62.8164 351.643L62.9922 351.877C61.8594 352.691 60.8535 353.098 59.9746 353.098C59.0436 353.098 58.3177 352.746 57.7969 352.043C57.276 351.34 57.0156 350.533 57.0156 349.621C57.0156 348.69 57.2142 347.919 57.6113 347.307C58.0085 346.688 58.4544 346.239 58.9492 345.959C59.444 345.679 59.8184 345.539 60.0723 345.539C60.3652 345.539 60.668 345.588 60.9805 345.686C61.2995 345.777 61.6087 345.956 61.9082 346.223C62.2142 346.49 62.4681 346.854 62.6699 347.316C62.7285 347.414 62.7839 347.479 62.8359 347.512C62.888 347.544 62.9824 347.561 63.1191 347.561L63.1387 347.922ZM58.2754 348.596L59.5547 348.322C59.6068 348.296 59.8021 348.244 60.1406 348.166C60.4857 348.088 60.7168 348.039 60.834 348.02C61.1725 347.941 61.3874 347.886 61.4785 347.854C61.5697 347.821 61.6152 347.769 61.6152 347.697C61.6152 347.593 61.5371 347.417 61.3809 347.17C61.2246 346.916 61 346.685 60.707 346.477C60.4206 346.268 60.082 346.164 59.6914 346.164C59.2031 346.164 58.8548 346.421 58.6465 346.936C58.4447 347.45 58.321 348.003 58.2754 348.596ZM68.7246 353.02L68.7441 352.717C69.1348 352.626 69.418 352.512 69.5938 352.375C69.7695 352.238 69.8965 351.949 69.9746 351.506C70.0592 351.063 70.1016 350.389 70.1016 349.484C70.1016 348.605 70.056 347.98 69.9648 347.609C69.8802 347.238 69.75 347.007 69.5742 346.916C69.4049 346.825 69.1217 346.773 68.7246 346.76V346.438C69.4212 346.275 70.1341 345.975 70.8633 345.539C70.9414 345.487 71.0065 345.461 71.0586 345.461C71.1888 345.461 71.2669 345.63 71.293 345.969C71.3255 346.307 71.3288 346.604 71.3027 346.857C71.4395 346.779 71.6803 346.649 72.0254 346.467C72.377 346.278 72.6504 346.138 72.8457 346.047C73.0475 345.949 73.3047 345.852 73.6172 345.754C73.9297 345.65 74.2031 345.598 74.4375 345.598C74.776 345.598 75.1081 345.695 75.4336 345.891C75.7656 346.079 75.9935 346.395 76.1172 346.838C77.3216 346.2 78.3633 345.881 79.2422 345.881C79.8672 345.881 80.3229 346.021 80.6094 346.301C80.8958 346.581 81.0684 346.942 81.127 347.385C81.1921 347.821 81.2246 348.452 81.2246 349.279V351.018C81.2051 351.519 81.1986 351.864 81.2051 352.053C81.2116 352.235 81.2409 352.355 81.293 352.414C81.3516 352.466 81.4557 352.502 81.6055 352.521C81.6576 352.528 81.8366 352.564 82.1426 352.629C82.4551 352.694 82.6341 352.73 82.6797 352.736L82.543 353H78.8418L78.7832 352.736C79.1868 352.632 79.4635 352.518 79.6133 352.395C79.763 352.271 79.8672 352.007 79.9258 351.604C79.9909 351.2 80.0234 350.493 80.0234 349.484C80.0234 348.885 79.9714 348.378 79.8672 347.961C79.7695 347.544 79.5905 347.225 79.3301 347.004C79.0697 346.776 78.7083 346.662 78.2461 346.662C77.6602 346.662 76.9798 346.841 76.2051 347.199C76.2376 347.473 76.2604 347.945 76.2734 348.615C76.2865 349.279 76.2995 349.966 76.3125 350.676C76.3255 351.379 76.3353 351.835 76.3418 352.043C76.3548 352.219 76.3841 352.342 76.4297 352.414C76.4753 352.479 76.5599 352.528 76.6836 352.561C76.8138 352.593 77.0872 352.639 77.5039 352.697V353H76.2832C76.1725 353 75.7624 353.013 75.0527 353.039C74.3431 353.065 73.9199 353.078 73.7832 353.078L73.7246 352.775C74.1543 352.691 74.4635 352.58 74.6523 352.443C74.8411 352.3 74.9648 352.053 75.0234 351.701C75.0885 351.343 75.1146 350.738 75.1016 349.885L75.082 348.938C75.069 348.137 74.9453 347.528 74.7109 347.111C74.4831 346.688 74.1055 346.477 73.5781 346.477C73.3242 346.477 73.0573 346.522 72.7773 346.613C72.4974 346.704 72.2305 346.815 71.9766 346.945C71.7227 347.069 71.5046 347.18 71.3223 347.277C71.3158 347.388 71.3092 347.671 71.3027 348.127C71.2962 348.576 71.2897 348.947 71.2832 349.24V350.236C71.2962 351.402 71.3158 352.036 71.3418 352.141C71.3678 352.258 71.4622 352.365 71.625 352.463C71.7878 352.554 72.1393 352.639 72.6797 352.717V353.059C72.6016 353.059 72.3216 353.046 71.8398 353.02C71.3581 352.993 71.0716 352.98 70.9805 352.98L68.7246 353.02ZM85.0039 347.238L83.8027 347.775C83.7507 347.567 83.7246 347.414 83.7246 347.316C83.7246 346.984 83.9264 346.678 84.3301 346.398C84.7402 346.112 85.1992 345.881 85.707 345.705C86.2214 345.529 86.5794 345.441 86.7812 345.441C86.957 345.441 87.1751 345.52 87.4355 345.676C87.696 345.832 87.9043 345.988 88.0605 346.145C88.1973 346.275 88.3014 346.405 88.373 346.535C88.4512 346.659 88.5195 346.857 88.5781 347.131C88.6367 347.404 88.666 347.753 88.666 348.176C88.666 348.299 88.6497 348.736 88.6172 349.484L88.5781 350.217C88.5521 350.568 88.5391 350.848 88.5391 351.057C88.5391 351.324 88.5749 351.61 88.6465 351.916C88.7116 352.229 88.8581 352.385 89.0859 352.385C89.3398 352.385 89.6784 352.29 90.1016 352.102V352.502L88.666 353.078C88.3796 353.176 88.2168 353.225 88.1777 353.225C88.028 353.225 87.8783 353.127 87.7285 352.932C87.5853 352.73 87.4681 352.492 87.377 352.219C86.1725 352.889 85.248 353.225 84.6035 353.225C84.2064 353.225 83.9069 353.111 83.7051 352.883C83.5033 352.648 83.4023 352.3 83.4023 351.838C83.4023 351.395 83.4544 351.066 83.5586 350.852C83.6693 350.637 83.8451 350.467 84.0859 350.344C84.5742 350.096 85.0918 349.914 85.6387 349.797C86.1855 349.673 86.7585 349.569 87.3574 349.484L87.4062 348.283V347.961C87.4062 347.408 87.2467 346.971 86.9277 346.652C86.6152 346.327 86.2474 346.164 85.8242 346.164C85.6224 346.164 85.4173 346.223 85.209 346.34C85.0072 346.451 84.9062 346.61 84.9062 346.818C84.9062 346.923 84.9388 347.062 85.0039 347.238ZM87.3184 351.857C87.2988 351.643 87.3184 351.031 87.377 350.021C86.5176 349.963 85.8275 350.067 85.3066 350.334C84.7858 350.601 84.5254 350.936 84.5254 351.34C84.5254 351.633 84.6035 351.91 84.7598 352.17C84.9225 352.43 85.1439 352.561 85.4238 352.561C85.7363 352.561 86.3678 352.326 87.3184 351.857ZM93.4414 351.721C93.0703 351.63 92.6927 351.493 92.3086 351.311C91.931 351.128 91.5892 350.835 91.2832 350.432C90.9772 350.021 90.8242 349.471 90.8242 348.781C90.8242 348.156 90.9902 347.583 91.3223 347.062C91.6608 346.535 92.097 346.125 92.6309 345.832C93.1712 345.533 93.7214 345.383 94.2812 345.383C94.6263 345.383 94.9486 345.432 95.248 345.529C95.5475 345.62 95.8242 345.764 96.0781 345.959C96.5469 345.868 97.0417 345.822 97.5625 345.822C97.9076 345.822 98.1419 345.835 98.2656 345.861C98.2461 346.213 98.1582 346.564 98.002 346.916C97.5592 346.734 97.0938 346.643 96.6055 346.643C96.6901 346.76 96.7747 346.919 96.8594 347.121C96.944 347.316 97.0124 347.528 97.0645 347.756C97.1165 347.984 97.1426 348.205 97.1426 348.42C97.1426 349.019 97.0091 349.527 96.7422 349.943C96.4753 350.36 96.1432 350.695 95.7461 350.949C95.3555 351.197 94.8542 351.467 94.2422 351.76C93.0964 352.268 92.5234 352.635 92.5234 352.863C92.5234 353.26 93.002 353.459 93.959 353.459C94.7533 353.459 95.3717 353.472 95.8145 353.498C96.2572 353.524 96.6478 353.592 96.9863 353.703C97.3249 353.814 97.5885 353.999 97.7773 354.26C97.9661 354.527 98.0605 354.895 98.0605 355.363C98.0605 355.995 97.8132 356.551 97.3184 357.033C96.8301 357.521 96.2018 357.896 95.4336 358.156C94.6719 358.423 93.9069 358.557 93.1387 358.557C92.1491 358.557 91.4622 358.339 91.0781 357.902C90.694 357.473 90.502 357.017 90.502 356.535C90.502 355.988 90.668 355.549 91 355.217C91.3385 354.885 91.765 354.566 92.2793 354.26C91.5892 353.882 91.2507 353.381 91.2637 352.756C91.5697 352.521 92.0807 352.271 92.7969 352.004L93.4414 351.721ZM94.4863 351.203C94.9551 350.956 95.3197 350.682 95.5801 350.383C95.847 350.083 95.9805 349.595 95.9805 348.918C95.9805 348.534 95.9251 348.166 95.8145 347.814C95.7038 347.456 95.5508 347.141 95.3555 346.867C95.1602 346.594 94.9193 346.376 94.6328 346.213C94.3529 346.044 94.0371 345.959 93.6855 345.959C93.1517 345.959 92.7025 346.164 92.3379 346.574C91.9798 346.978 91.8008 347.492 91.8008 348.117C91.8008 348.996 92.0645 349.657 92.5918 350.1C93.1191 350.542 93.7507 350.91 94.4863 351.203ZM92.8262 354.484C92.4225 354.608 92.0579 354.813 91.7324 355.1C91.4069 355.393 91.2441 355.725 91.2441 356.096C91.2441 356.525 91.4948 356.913 91.9961 357.258C92.4974 357.603 93.1452 357.775 93.9395 357.775C94.3887 357.775 94.877 357.707 95.4043 357.57C95.9316 357.44 96.3809 357.229 96.752 356.936C97.1296 356.643 97.3184 356.285 97.3184 355.861C97.3184 355.568 97.2174 355.292 97.0156 355.031C96.8073 354.777 96.4948 354.634 96.0781 354.602C95.987 354.589 95.6549 354.585 95.082 354.592C94.5156 354.598 94.1771 354.602 94.0664 354.602C93.487 354.602 93.0736 354.562 92.8262 354.484ZM99.0859 353.039L99.125 352.736C99.6784 352.684 99.9909 352.587 100.062 352.443C100.095 352.385 100.124 352.154 100.15 351.75C100.176 351.34 100.196 350.855 100.209 350.295C100.229 349.729 100.238 349.41 100.238 349.338C100.238 348.413 100.222 347.821 100.189 347.561C100.163 347.3 100.108 347.121 100.023 347.023C99.9974 346.991 99.8346 346.958 99.5352 346.926C99.2357 346.893 99.0859 346.851 99.0859 346.799C99.0859 346.695 99.1445 346.63 99.2617 346.604C100.036 346.363 100.795 345.936 101.537 345.324C101.583 345.324 101.645 345.337 101.723 345.363C101.658 345.63 101.602 346.021 101.557 346.535C101.511 347.049 101.472 347.59 101.439 348.156C101.413 348.723 101.4 349.224 101.4 349.66C101.4 349.986 101.41 350.454 101.43 351.066C101.456 351.672 101.498 352.082 101.557 352.297C101.609 352.414 101.674 352.489 101.752 352.521C101.83 352.554 101.986 352.58 102.221 352.6C102.449 352.606 102.676 352.626 102.904 352.658L103.021 352.941L99.0859 353.039ZM100.561 341.359C100.561 341.138 100.635 340.956 100.785 340.812C100.935 340.669 101.114 340.598 101.322 340.598C101.531 340.598 101.706 340.673 101.85 340.822C101.993 340.972 102.064 341.151 102.064 341.359C102.064 341.568 101.993 341.747 101.85 341.896C101.713 342.046 101.537 342.121 101.322 342.121C101.114 342.121 100.935 342.046 100.785 341.896C100.635 341.747 100.561 341.568 100.561 341.359ZM110.248 351.779L110.385 352.062C109.519 352.779 108.627 353.137 107.709 353.137C107.182 353.137 106.635 353.029 106.068 352.814C105.508 352.593 105.069 352.31 104.75 351.965C104.548 351.724 104.389 351.389 104.271 350.959C104.161 350.523 104.105 350.103 104.105 349.699C104.105 348.885 104.324 348.146 104.76 347.482C105.196 346.812 105.73 346.291 106.361 345.92C106.999 345.549 107.595 345.363 108.148 345.363C108.48 345.363 108.943 345.458 109.535 345.646C110.128 345.829 110.424 346.001 110.424 346.164C110.424 346.229 110.333 346.398 110.15 346.672C109.968 346.945 109.822 347.082 109.711 347.082C109.659 347.082 109.584 347.056 109.486 347.004C109.395 346.952 109.236 346.864 109.008 346.74C108.298 346.447 107.712 346.301 107.25 346.301C106.592 346.301 106.098 346.516 105.766 346.945C105.434 347.375 105.268 348.02 105.268 348.879C105.268 349.667 105.44 350.331 105.785 350.871C106.13 351.411 106.544 351.805 107.025 352.053C107.514 352.3 107.96 352.424 108.363 352.424C108.702 352.424 109.014 352.365 109.301 352.248C109.594 352.131 109.91 351.975 110.248 351.779Z" fill="white"/>
<path d="M36.5215 299.743C36.484 299.84 36.3231 300.394 36.0386 301.405C35.23 301.644 34.4963 301.832 33.8374 301.966C33.1785 302.094 32.4635 302.157 31.6924 302.157C30.764 302.157 29.8356 301.993 28.9072 301.663C27.9788 301.334 27.144 300.847 26.4028 300.203C25.6616 299.552 25.0739 298.762 24.6396 297.833C24.2054 296.898 23.9883 295.834 23.9883 294.644C23.9883 293.012 24.3888 291.634 25.1899 290.511C25.9985 289.388 27.0243 288.561 28.2671 288.029C29.5174 287.498 30.8052 287.232 32.1304 287.232C33.1711 287.232 34.1743 287.415 35.1401 287.782C35.5894 287.924 35.9263 287.996 36.1509 287.996C36.2557 287.973 36.3306 287.958 36.3755 287.951C36.4279 287.943 36.4915 287.936 36.5664 287.928C36.6113 287.928 36.66 287.958 36.7124 288.018L36.5439 288.658C36.3867 289.22 36.2482 289.935 36.1284 290.803C35.9937 290.781 35.9038 290.736 35.8589 290.668C35.814 290.594 35.7915 290.478 35.7915 290.32C35.7765 289.849 35.7129 289.527 35.6006 289.354C35.3984 289.025 34.8931 288.688 34.0845 288.344C33.2759 287.999 32.4635 287.827 31.6475 287.827C30.5693 287.827 29.5923 288.097 28.7163 288.636C27.8478 289.167 27.159 289.95 26.6499 290.983C26.1483 292.016 25.8975 293.229 25.8975 294.622C25.8975 295.902 26.1183 297.006 26.5601 297.935C27.0093 298.855 27.5671 299.585 28.2334 300.125C28.9072 300.664 29.5885 301.053 30.2773 301.292C30.9736 301.532 31.5763 301.652 32.0854 301.652C32.894 301.652 33.5641 301.521 34.0957 301.259C34.6273 300.989 35.0428 300.671 35.3423 300.304C35.6493 299.93 35.945 299.484 36.2295 298.968C36.3418 298.751 36.4391 298.642 36.5215 298.642C36.6637 298.642 36.7349 298.709 36.7349 298.844C36.7349 298.942 36.6637 299.241 36.5215 299.743ZM38.251 297.789C38.251 297.13 38.3708 296.535 38.6104 296.003C38.8574 295.464 39.1943 295 39.6211 294.61C40.0479 294.221 40.5457 293.922 41.1147 293.712C41.6838 293.502 42.2939 293.397 42.9453 293.397C43.5368 293.397 44.0946 293.506 44.6187 293.723C45.1502 293.94 45.6144 294.24 46.0112 294.622C46.408 295.003 46.7188 295.456 46.9434 295.98C47.1755 296.497 47.2915 297.055 47.2915 297.654C47.2915 298.432 47.1043 299.162 46.73 299.844C46.3631 300.525 45.839 301.075 45.1577 301.495C44.4839 301.906 43.7052 302.112 42.8218 302.112C42.1554 302.112 41.4666 301.966 40.7554 301.674C40.0516 301.382 39.4564 300.914 38.9697 300.271C38.4906 299.619 38.251 298.792 38.251 297.789ZM39.7222 297.171C39.7222 297.867 39.8607 298.56 40.1377 299.249C40.4147 299.937 40.8003 300.503 41.2944 300.944C41.7961 301.386 42.3464 301.607 42.9453 301.607C43.4694 301.607 43.9448 301.465 44.3716 301.18C44.7983 300.888 45.139 300.476 45.3936 299.945C45.6481 299.413 45.7754 298.811 45.7754 298.137C45.7754 297.455 45.6257 296.793 45.3262 296.149C45.0342 295.498 44.6261 294.97 44.1021 294.565C43.5854 294.154 43.0127 293.948 42.3838 293.948C41.8747 293.948 41.418 294.086 41.0137 294.363C40.6094 294.64 40.2912 295.026 40.0591 295.52C39.8345 296.014 39.7222 296.564 39.7222 297.171ZM48.9648 294.229V293.555L50.4585 293.532C50.466 292.229 50.5783 291.196 50.7954 290.433C51.0125 289.669 51.327 289.048 51.7388 288.568C52.0682 288.187 52.48 287.838 52.9741 287.524C53.4683 287.202 53.9587 286.955 54.4453 286.783C54.932 286.611 55.3363 286.524 55.6582 286.524C56.0924 286.524 56.5229 286.603 56.9497 286.76C57.3765 286.91 57.5898 287.09 57.5898 287.299C57.5898 287.419 57.5075 287.599 57.3428 287.838C57.1781 288.078 57.0208 288.198 56.8711 288.198L55.9727 287.883C55.3438 287.651 54.8459 287.535 54.479 287.535C53.8875 287.535 53.4121 287.707 53.0527 288.052C52.6934 288.396 52.4201 289.006 52.2329 289.882C52.0457 290.758 51.9372 291.975 51.9072 293.532H54.9619V294.251L51.9072 294.273L51.8623 297.474C51.8623 298.762 51.8735 299.709 51.896 300.315C51.9185 300.922 51.9821 301.278 52.0869 301.382C52.1543 301.435 52.2666 301.468 52.4238 301.483C52.5811 301.498 53.0378 301.517 53.7939 301.54V301.978C53.3522 301.963 52.5998 301.951 51.5366 301.944C50.481 301.936 49.5975 301.933 48.8862 301.933V301.562C49.283 301.54 49.5788 301.491 49.7734 301.416C49.9756 301.334 50.1216 301.195 50.2114 301C50.3088 300.798 50.3687 300.514 50.3911 300.147C50.4211 299.773 50.436 299.249 50.436 298.575L50.4585 294.824C50.4585 294.554 50.4285 294.401 50.3687 294.363C50.2264 294.273 49.7585 294.229 48.9648 294.229ZM56.2422 294.229V293.555L57.7358 293.532C57.7433 292.229 57.8556 291.196 58.0728 290.433C58.2899 289.669 58.6043 289.048 59.0161 288.568C59.3455 288.187 59.7573 287.838 60.2515 287.524C60.7456 287.202 61.236 286.955 61.7227 286.783C62.2093 286.611 62.6136 286.524 62.9355 286.524C63.3698 286.524 63.8003 286.603 64.2271 286.76C64.6538 286.91 64.8672 287.09 64.8672 287.299C64.8672 287.419 64.7848 287.599 64.6201 287.838C64.4554 288.078 64.2982 288.198 64.1484 288.198L63.25 287.883C62.6211 287.651 62.1232 287.535 61.7563 287.535C61.1649 287.535 60.6895 287.707 60.3301 288.052C59.9707 288.396 59.6974 289.006 59.5103 289.882C59.3231 290.758 59.2145 291.975 59.1846 293.532H62.2393V294.251L59.1846 294.273L59.1396 297.474C59.1396 298.762 59.1509 299.709 59.1733 300.315C59.1958 300.922 59.2594 301.278 59.3643 301.382C59.4316 301.435 59.5439 301.468 59.7012 301.483C59.8584 301.498 60.3151 301.517 61.0713 301.54V301.978C60.6296 301.963 59.8771 301.951 58.814 301.944C57.7583 301.936 56.8748 301.933 56.1636 301.933V301.562C56.5604 301.54 56.8561 301.491 57.0508 301.416C57.2529 301.334 57.3989 301.195 57.4888 301C57.5861 300.798 57.646 300.514 57.6685 300.147C57.6984 299.773 57.7134 299.249 57.7134 298.575L57.7358 294.824C57.7358 294.554 57.7059 294.401 57.646 294.363C57.5037 294.273 57.0358 294.229 56.2422 294.229ZM69.8423 296.16L64.2271 297.373C64.2645 298.077 64.3319 298.623 64.4292 299.013C64.534 299.395 64.7362 299.784 65.0356 300.181C65.6121 300.937 66.3084 301.315 67.1245 301.315C67.4614 301.315 67.8208 301.251 68.2026 301.124C68.5845 300.997 69.0075 300.768 69.4717 300.439L69.6738 300.708C68.3711 301.644 67.2144 302.112 66.2036 302.112C65.133 302.112 64.2982 301.708 63.6992 300.899C63.1003 300.091 62.8008 299.162 62.8008 298.114C62.8008 297.044 63.0291 296.156 63.4858 295.453C63.9425 294.741 64.4554 294.225 65.0244 293.903C65.5934 293.581 66.0239 293.42 66.3159 293.42C66.6528 293.42 67.001 293.476 67.3604 293.588C67.7272 293.693 68.0828 293.899 68.4272 294.206C68.7791 294.513 69.0711 294.932 69.3032 295.464C69.3706 295.576 69.4342 295.651 69.4941 295.688C69.554 295.726 69.6626 295.745 69.8198 295.745L69.8423 296.16ZM64.2495 296.935L65.7207 296.621C65.7806 296.591 66.0052 296.531 66.3945 296.441C66.7913 296.351 67.0571 296.295 67.1919 296.272C67.5812 296.183 67.8283 296.119 67.9331 296.082C68.0379 296.044 68.0903 295.984 68.0903 295.902C68.0903 295.782 68.0005 295.58 67.8208 295.295C67.6411 295.003 67.3828 294.738 67.0459 294.498C66.7165 294.258 66.3271 294.139 65.8779 294.139C65.3164 294.139 64.9159 294.434 64.6763 295.026C64.4442 295.617 64.3019 296.254 64.2495 296.935ZM78.2427 296.16L72.6274 297.373C72.6649 298.077 72.7323 298.623 72.8296 299.013C72.9344 299.395 73.1366 299.784 73.436 300.181C74.0125 300.937 74.7088 301.315 75.5249 301.315C75.8618 301.315 76.2212 301.251 76.603 301.124C76.9849 300.997 77.4079 300.768 77.8721 300.439L78.0742 300.708C76.7715 301.644 75.6147 302.112 74.604 302.112C73.5334 302.112 72.6986 301.708 72.0996 300.899C71.5007 300.091 71.2012 299.162 71.2012 298.114C71.2012 297.044 71.4295 296.156 71.8862 295.453C72.3429 294.741 72.8558 294.225 73.4248 293.903C73.9938 293.581 74.4243 293.42 74.7163 293.42C75.0532 293.42 75.4014 293.476 75.7607 293.588C76.1276 293.693 76.4832 293.899 76.8276 294.206C77.1795 294.513 77.4715 294.932 77.7036 295.464C77.771 295.576 77.8346 295.651 77.8945 295.688C77.9544 295.726 78.063 295.745 78.2202 295.745L78.2427 296.16ZM72.6499 296.935L74.1211 296.621C74.181 296.591 74.4056 296.531 74.7949 296.441C75.1917 296.351 75.4575 296.295 75.5923 296.272C75.9816 296.183 76.2287 296.119 76.3335 296.082C76.4383 296.044 76.4907 295.984 76.4907 295.902C76.4907 295.782 76.4009 295.58 76.2212 295.295C76.0415 295.003 75.7832 294.738 75.4463 294.498C75.1169 294.258 74.7275 294.139 74.2783 294.139C73.7168 294.139 73.3162 294.434 73.0767 295.026C72.8446 295.617 72.7023 296.254 72.6499 296.935ZM84.6216 287.85V287.513L86.0703 287.49C86.2051 287.49 86.8864 287.505 88.1143 287.535C88.7282 287.55 89.2261 287.565 89.6079 287.58C89.9897 287.595 90.2106 287.603 90.2705 287.603C92.3669 287.603 94.0701 287.55 95.3804 287.445C95.3429 287.865 95.3205 288.355 95.313 288.917C95.3055 289.471 95.3055 289.924 95.313 290.275H94.8525C94.8151 289.684 94.7215 289.25 94.5718 288.973C94.422 288.696 94.0627 288.482 93.4937 288.333C92.9246 288.183 92.0037 288.108 90.731 288.108C89.4432 288.108 88.5934 288.16 88.1816 288.265C88.1217 289.081 88.0918 290.455 88.0918 292.387V294.161C88.9902 294.236 89.84 294.273 90.6411 294.273C91.6818 294.273 92.423 294.236 92.8647 294.161C93.3065 294.086 93.576 293.959 93.6733 293.779C93.7707 293.6 93.8193 293.289 93.8193 292.847C93.984 292.847 94.13 292.832 94.2573 292.802C94.2873 293.296 94.3022 293.749 94.3022 294.161C94.3022 294.94 94.2873 295.722 94.2573 296.508H93.7969C93.7969 295.752 93.7332 295.337 93.606 295.262C93.4412 295.142 93.0332 295.033 92.3818 294.936C91.738 294.831 90.9818 294.779 90.1133 294.779C89.2223 294.779 88.556 294.801 88.1143 294.846C88.0843 296.254 88.0693 297.519 88.0693 298.642C88.0693 299.361 88.0843 299.874 88.1143 300.181C88.1517 300.48 88.2415 300.723 88.3838 300.911C88.5335 301.098 88.7507 301.233 89.0352 301.315C89.3197 301.39 89.8026 301.472 90.4839 301.562V302C89.5181 301.955 88.7057 301.933 88.0469 301.933H86.9351C86.3361 301.933 85.6473 301.963 84.8687 302.022L84.8911 301.652C85.3778 301.569 85.7072 301.453 85.8794 301.304C86.0591 301.154 86.1751 300.941 86.2275 300.664C86.3923 299.773 86.4746 297.725 86.4746 294.521C86.4746 294.094 86.4709 293.674 86.4634 293.263C86.4634 292.843 86.4559 292.282 86.4409 291.578C86.4334 290.874 86.4072 290.245 86.3623 289.691C86.3174 289.137 86.2575 288.763 86.1826 288.568C86.0928 288.314 85.9281 288.145 85.6885 288.063C85.4489 287.973 85.0933 287.902 84.6216 287.85ZM96.29 297.789C96.29 297.13 96.4098 296.535 96.6494 296.003C96.8965 295.464 97.2334 295 97.6602 294.61C98.0869 294.221 98.5848 293.922 99.1538 293.712C99.7228 293.502 100.333 293.397 100.984 293.397C101.576 293.397 102.134 293.506 102.658 293.723C103.189 293.94 103.653 294.24 104.05 294.622C104.447 295.003 104.758 295.456 104.982 295.98C105.215 296.497 105.331 297.055 105.331 297.654C105.331 298.432 105.143 299.162 104.769 299.844C104.402 300.525 103.878 301.075 103.197 301.495C102.523 301.906 101.744 302.112 100.861 302.112C100.194 302.112 99.5057 301.966 98.7944 301.674C98.0907 301.382 97.4954 300.914 97.0088 300.271C96.5296 299.619 96.29 298.792 96.29 297.789ZM97.7612 297.171C97.7612 297.867 97.8997 298.56 98.1768 299.249C98.4538 299.937 98.8394 300.503 99.3335 300.944C99.8351 301.386 100.385 301.607 100.984 301.607C101.508 301.607 101.984 301.465 102.411 301.18C102.837 300.888 103.178 300.476 103.433 299.945C103.687 299.413 103.814 298.811 103.814 298.137C103.814 297.455 103.665 296.793 103.365 296.149C103.073 295.498 102.665 294.97 102.141 294.565C101.625 294.154 101.052 293.948 100.423 293.948C99.9137 293.948 99.457 294.086 99.0527 294.363C98.6484 294.64 98.3302 295.026 98.0981 295.52C97.8735 296.014 97.7612 296.564 97.7612 297.171ZM106.768 302.022L106.791 301.697C107.165 301.622 107.423 301.547 107.565 301.472C107.708 301.397 107.831 301.221 107.936 300.944C108.041 300.667 108.108 300.252 108.138 299.698C108.176 299.144 108.194 298.294 108.194 297.148C108.194 296.243 108.146 295.64 108.048 295.34C107.951 295.041 107.708 294.891 107.318 294.891C107.086 294.891 106.85 294.921 106.611 294.981L106.656 294.622L109.553 292.937C109.583 293.401 109.598 294.038 109.598 294.846L110.8 294.161C110.86 294.124 110.912 294.09 110.957 294.06C111.039 294.015 111.133 293.963 111.238 293.903C111.343 293.835 111.522 293.727 111.777 293.577C112.031 293.42 112.234 293.293 112.383 293.195L112.473 293.24C112.518 293.285 112.57 293.323 112.63 293.353C112.855 293.457 113.031 293.577 113.158 293.712C113.285 293.847 113.349 294.041 113.349 294.296C113.349 294.588 113.229 294.827 112.99 295.015C112.75 295.202 112.462 295.314 112.125 295.352C112.125 295.097 112.065 294.902 111.945 294.768C111.826 294.633 111.657 294.565 111.44 294.565C111.215 294.565 110.95 294.648 110.643 294.812C110.336 294.97 110.104 295.119 109.946 295.262C109.759 295.426 109.647 295.565 109.609 295.677C109.579 295.782 109.561 296.048 109.553 296.475C109.508 297.74 109.486 298.41 109.486 298.485C109.486 299.945 109.561 300.847 109.71 301.191C109.778 301.311 109.853 301.386 109.935 301.416C110.017 301.438 110.16 301.45 110.362 301.45L110.654 301.427L111.99 301.405L111.968 301.865C111.93 301.865 111.694 301.873 111.26 301.888C110.826 301.903 110.534 301.91 110.384 301.91L106.768 302.022ZM115.865 298.777L115.921 294.408C115.576 294.363 115.176 294.341 114.719 294.341C114.734 294.281 114.742 294.187 114.742 294.06C115.393 293.663 115.902 293.285 116.269 292.926C116.636 292.566 117.07 292.057 117.572 291.398L117.459 293.42C118.103 293.48 118.807 293.51 119.571 293.51C119.938 293.51 120.338 293.502 120.772 293.487L120.75 294.184C120.361 294.229 119.96 294.251 119.548 294.251C119.511 294.251 119.365 294.247 119.11 294.24C118.856 294.225 118.459 294.206 117.92 294.184C117.778 294.184 117.669 294.199 117.594 294.229C117.527 294.251 117.478 294.3 117.448 294.375C117.426 294.449 117.407 294.592 117.392 294.801C117.385 295.011 117.377 295.232 117.37 295.464L117.313 298.968C117.299 299.642 117.373 300.199 117.538 300.641C117.71 301.075 118.118 301.292 118.762 301.292C119.009 301.292 119.312 301.24 119.672 301.135C120.039 301.023 120.458 300.858 120.93 300.641C120.945 300.701 120.952 300.746 120.952 300.776C120.96 300.806 120.967 300.84 120.975 300.877C120.713 301.161 120.23 301.442 119.526 301.719C118.83 301.996 118.201 302.135 117.639 302.135C117.153 302.135 116.733 301.97 116.381 301.641C116.037 301.304 115.865 300.727 115.865 299.911V298.777ZM121.177 295.194V294.734L123.67 293.353L123.895 293.263C123.999 293.263 124.052 293.33 124.052 293.465L123.917 295.396C123.827 296.924 123.782 297.867 123.782 298.227C123.782 299.073 123.895 299.776 124.119 300.338C124.344 300.892 124.868 301.169 125.691 301.169C125.953 301.169 126.223 301.128 126.5 301.045C126.785 300.956 127.11 300.825 127.477 300.652C127.851 300.473 128.143 300.33 128.353 300.226C128.353 299.664 128.364 299.297 128.387 299.125L128.454 296.823C128.477 296.126 128.454 295.636 128.387 295.352C128.319 295.06 128.188 294.872 127.994 294.79C127.806 294.708 127.492 294.659 127.05 294.644L127.028 294.229L130.015 293.532C129.978 294.206 129.937 294.85 129.892 295.464C129.854 296.07 129.817 296.722 129.779 297.418C129.749 298.114 129.734 298.631 129.734 298.968C129.734 300.061 129.806 300.825 129.948 301.259C130.337 301.244 130.756 301.154 131.206 300.989V301.495C130.36 301.727 129.502 302.004 128.634 302.326C128.507 301.906 128.405 301.375 128.331 300.731C126.496 301.667 125.223 302.135 124.512 302.135C124.033 302.135 123.554 301.906 123.075 301.45C122.596 300.993 122.378 300.11 122.423 298.799L122.513 296.272C122.528 295.823 122.509 295.483 122.457 295.25C122.412 295.011 122.27 294.891 122.03 294.891C121.896 294.891 121.611 294.992 121.177 295.194ZM131.902 301.843L131.879 301.517C132.284 301.442 132.579 301.364 132.767 301.281C132.954 301.199 133.077 301.105 133.137 301C133.197 300.896 133.238 300.753 133.261 300.574C133.321 300.162 133.362 299.657 133.384 299.058C133.407 298.459 133.418 297.852 133.418 297.238C133.418 296.385 133.388 295.805 133.328 295.498C133.276 295.183 133.156 294.985 132.969 294.902C132.789 294.812 132.448 294.741 131.947 294.689C131.947 294.592 131.939 294.521 131.924 294.476C132.246 294.393 132.673 294.236 133.205 294.004C133.744 293.764 134.028 293.63 134.058 293.6C134.343 293.45 134.511 293.375 134.563 293.375C134.676 293.375 134.747 293.484 134.777 293.701C134.807 293.918 134.822 294.277 134.822 294.779C135.645 294.315 136.323 293.985 136.854 293.791C137.386 293.588 137.895 293.487 138.382 293.487C139.108 293.487 139.636 293.648 139.965 293.97C140.302 294.285 140.508 294.67 140.583 295.127C140.665 295.576 140.707 296.171 140.707 296.913V299.585C140.707 300.641 140.755 301.218 140.853 301.315C140.905 301.367 141.096 301.431 141.425 301.506C141.755 301.581 141.946 301.629 141.998 301.652L142.021 302C141.459 301.91 140.808 301.865 140.066 301.865C139.438 301.865 138.685 301.91 137.809 302V301.674C138.49 301.54 138.913 301.326 139.078 301.034C139.19 300.787 139.265 300.267 139.303 299.473C139.348 298.672 139.37 298.051 139.37 297.609C139.37 296.95 139.34 296.411 139.28 295.992C139.228 295.565 139.074 295.202 138.82 294.902C138.565 294.603 138.168 294.453 137.629 294.453C137.39 294.453 137.027 294.502 136.54 294.599C136.053 294.696 135.481 294.917 134.822 295.262L134.754 298.249C134.739 299.522 134.754 300.364 134.799 300.776C134.814 300.956 134.848 301.09 134.9 301.18C134.96 301.27 135.088 301.352 135.282 301.427C135.477 301.495 135.806 301.555 136.271 301.607L136.248 301.955C136.083 301.94 135.847 301.921 135.541 301.899C135.234 301.876 134.84 301.858 134.361 301.843H131.902ZM150.23 296.16L144.615 297.373C144.652 298.077 144.72 298.623 144.817 299.013C144.922 299.395 145.124 299.784 145.423 300.181C146 300.937 146.696 301.315 147.512 301.315C147.849 301.315 148.208 301.251 148.59 301.124C148.972 300.997 149.395 300.768 149.859 300.439L150.062 300.708C148.759 301.644 147.602 302.112 146.591 302.112C145.521 302.112 144.686 301.708 144.087 300.899C143.488 300.091 143.188 299.162 143.188 298.114C143.188 297.044 143.417 296.156 143.874 295.453C144.33 294.741 144.843 294.225 145.412 293.903C145.981 293.581 146.412 293.42 146.704 293.42C147.041 293.42 147.389 293.476 147.748 293.588C148.115 293.693 148.471 293.899 148.815 294.206C149.167 294.513 149.459 294.932 149.691 295.464C149.758 295.576 149.822 295.651 149.882 295.688C149.942 295.726 150.05 295.745 150.208 295.745L150.23 296.16ZM144.637 296.935L146.108 296.621C146.168 296.591 146.393 296.531 146.782 296.441C147.179 296.351 147.445 296.295 147.58 296.272C147.969 296.183 148.216 296.119 148.321 296.082C148.426 296.044 148.478 295.984 148.478 295.902C148.478 295.782 148.388 295.58 148.208 295.295C148.029 295.003 147.771 294.738 147.434 294.498C147.104 294.258 146.715 294.139 146.266 294.139C145.704 294.139 145.304 294.434 145.064 295.026C144.832 295.617 144.69 296.254 144.637 296.935Z" fill="white"/>
<line x1="16.5" y1="2.38074" x2="16.5" y2="394.993" stroke="#524747"/>
<line x1="38.0089" y1="394.993" x2="38.0089" y2="2.37844" stroke="#524747"/>
<line x1="62.5" y1="0.00134277" x2="62.5" y2="394.993" stroke="#524747"/>
<line x1="86.5" y1="0.00134277" x2="86.5" y2="394.993" stroke="#524747"/>
<line x1="111.5" y1="0.00134277" x2="111.5" y2="394.993" stroke="#524747"/>
<line x1="134.5" y1="394.992" x2="134.5" y2="-0.000244141" stroke="#524747"/>
<line x1="155.994" y1="394.993" x2="155.994" y2="-0.0010376" stroke="#524747"/>
<line x1="178.982" y1="395" x2="178.982" y2="-0.00805664" stroke="#524747"/>
<line x1="200.5" y1="394.992" x2="200.5" y2="-0.000244141" stroke="#524747"/>
<line x1="223.5" y1="394.992" x2="223.5" y2="-0.000244141" stroke="#524747"/>
<line x1="246.754" y1="393.802" x2="246.754" y2="-0.00131226" stroke="#524747"/>
<line x1="270.5" y1="394.992" x2="270.5" y2="-0.000244141" stroke="#524747"/>
<line y1="42.3316" x2="287" y2="42.3316" stroke="#524747"/>
<line y1="72.0748" x2="287" y2="72.0748" stroke="#524747"/>
<line y1="105.387" x2="287" y2="105.387" stroke="#524747"/>
<line y1="105.387" x2="287" y2="105.387" stroke="#524747"/>
<line y1="136.32" x2="287" y2="136.32" stroke="#524747"/>
<line y1="167.253" x2="287" y2="167.253" stroke="#524747"/>
<line y1="195.807" x2="287" y2="195.807" stroke="#524747"/>
<line y1="224.36" x2="287" y2="224.36" stroke="#524747"/>
<line y1="254.104" x2="287" y2="254.104" stroke="#524747"/>
<line y1="282.657" x2="287" y2="282.657" stroke="#524747"/>
<line y1="310.021" x2="287" y2="310.021" stroke="#524747"/>
<line y1="338.574" x2="287" y2="338.574" stroke="#524747"/>
<line y1="364.749" x2="287" y2="364.749" stroke="#524747"/>
<line y1="394.492" x2="287" y2="394.492" stroke="#524747"/>
<path d="M88 125C108.167 132.604 129.543 136.5 151.096 136.5H158H163.996C186.496 136.5 208.826 132.609 230 125V177.556C230 205.022 210.34 228.55 183.311 233.43C166.576 236.451 149.432 236.409 132.712 233.304L88 225V125Z" fill="#B26B42"/>
<mask id="path-32-inside-1_36_2" fill="white">
<path d="M89.9999 225.086C83.4338 225.075 76.9343 223.771 70.8724 221.247C64.8105 218.724 59.3049 215.032 54.67 210.381C50.0351 205.73 46.3617 200.211 43.8595 194.141C41.3573 188.07 40.0753 181.566 40.0867 175C40.098 168.434 41.4026 161.934 43.9258 155.872C46.4491 149.81 50.1416 144.305 54.7926 139.67C59.4435 135.035 64.9619 131.362 71.0325 128.859C77.1031 126.357 83.6072 125.075 90.1733 125.087L90.0866 175.087L89.9999 225.086Z"/>
</mask>
<path d="M89.9999 225.086C83.4338 225.075 76.9343 223.771 70.8724 221.247C64.8105 218.724 59.3049 215.032 54.67 210.381C50.0351 205.73 46.3617 200.211 43.8595 194.141C41.3573 188.07 40.0753 181.566 40.0867 175C40.098 168.434 41.4026 161.934 43.9258 155.872C46.4491 149.81 50.1416 144.305 54.7926 139.67C59.4435 135.035 64.9619 131.362 71.0325 128.859C77.1031 126.357 83.6072 125.075 90.1733 125.087L90.0866 175.087L89.9999 225.086Z" stroke="#B26B42" stroke-width="14" mask="url(#path-32-inside-1_36_2)"/>
<path d="M227 125.5C227 125.501 227 125.502 227 125.505C226.999 125.508 226.998 125.514 226.996 125.523C226.991 125.542 226.979 125.583 226.947 125.647C226.881 125.78 226.737 126.001 226.438 126.299C225.822 126.913 224.756 127.65 223.116 128.442C219.849 130.02 214.928 131.522 208.604 132.814C196.007 135.386 178.467 137 159 137C139.533 137 121.993 135.386 109.396 132.814C103.072 131.522 98.1513 130.02 94.884 128.442C93.2436 127.65 92.1775 126.913 91.5617 126.299C91.2635 126.001 91.1188 125.78 91.0528 125.647C91.021 125.583 91.0087 125.542 91.0041 125.523C91.0016 125.514 91.0007 125.508 91.0004 125.505C91 125.502 91 125.501 91 125.5C91 125.499 91 125.498 91.0004 125.495C91.0007 125.492 91.0016 125.486 91.0041 125.476C91.0087 125.458 91.021 125.417 91.0528 125.353C91.1188 125.22 91.2635 124.999 91.5617 124.701C92.1775 124.086 93.2436 123.35 94.884 122.557C98.1513 120.98 103.072 119.478 109.396 118.186C121.993 115.613 139.533 114 159 114C178.467 114 196.007 115.613 208.604 118.186C214.928 119.478 219.849 120.98 223.116 122.557C224.756 123.35 225.822 124.086 226.438 124.701C226.737 124.999 226.881 125.22 226.947 125.353C226.979 125.417 226.991 125.458 226.996 125.476C226.998 125.486 226.999 125.492 227 125.495C227 125.498 227 125.499 227 125.5Z" stroke="#B26B42" stroke-width="6"/>
<g filter="url(#filter0_dd_36_2)">
<circle cx="169.249" cy="183.76" r="17.2708" transform="rotate(-25.8726 169.249 183.76)" stroke="#141212" stroke-width="2" shape-rendering="crispEdges"/>
</g>
<g filter="url(#filter1_dd_36_2)">
<circle cx="170.534" cy="184.206" r="7.11619" transform="rotate(-25.8726 170.534 184.206)" stroke="#141212" stroke-width="5" shape-rendering="crispEdges"/>
</g>
<g filter="url(#filter2_dd_36_2)">
<circle cx="167.125" cy="181.584" r="37.4648" transform="rotate(-25.8726 167.125 181.584)" stroke="#141212" stroke-width="2" shape-rendering="crispEdges"/>
</g>
<g filter="url(#filter3_dd_36_2)">
<path d="M163.083 162.839C173.378 161.007 185.303 164.417 201.861 172.785C192.575 191.93 182.676 202.711 171.721 204.988C160.796 207.259 148.288 201.162 133.526 185.097C143.91 171.761 152.812 164.666 163.083 162.839Z" stroke="#141212" stroke-width="2" shape-rendering="crispEdges"/>
</g>
<defs>
<filter id="filter0_dd_36_2" x="146.974" y="165.485" width="44.5499" height="44.5499" filterUnits="userSpaceOnUse" color-interpolation-filters="sRGB">
<feFlood flood-opacity="0" result="BackgroundImageFix"/>
<feColorMatrix in="SourceAlpha" type="matrix" values="0 0 0 0 0 0 0 0 0 0 0 0 0 0 0 0 0 0 127 0" result="hardAlpha"/>
<feOffset dy="4"/>
<feGaussianBlur stdDeviation="2"/>
<feComposite in2="hardAlpha" operator="out"/>
<feColorMatrix type="matrix" values="0 0 0 0 0 0 0 0 0 0 0 0 0 0 0 0 0 0 0.25 0"/>
<feBlend mode="normal" in2="BackgroundImageFix" result="effect1_dropShadow_36_2"/>
<feColorMatrix in="SourceAlpha" type="matrix" values="0 0 0 0 0 0 0 0 0 0 0 0 0 0 0 0 0 0 127 0" result="hardAlpha"/>
<feOffset dy="4"/>
<feGaussianBlur stdDeviation="2"/>
<feComposite in2="hardAlpha" operator="out"/>
<feColorMatrix type="matrix" values="0 0 0 0 0 0 0 0 0 0 0 0 0 0 0 0 0 0 0.25 0"/>
<feBlend mode="normal" in2="effect1_dropShadow_36_2" result="effect2_dropShadow_36_2"/>
<feBlend mode="normal" in="SourceGraphic" in2="effect2_dropShadow_36_2" result="shape"/>
</filter>
<filter id="filter1_dd_36_2" x="156.915" y="174.587" width="27.2368" height="27.2368" filterUnits="userSpaceOnUse" color-interpolation-filters="sRGB">
<feFlood flood-opacity="0" result="BackgroundImageFix"/>
<feColorMatrix in="SourceAlpha" type="matrix" values="0 0 0 0 0 0 0 0 0 0 0 0 0 0 0 0 0 0 127 0" result="hardAlpha"/>
<feOffset dy="4"/>
<feGaussianBlur stdDeviation="2"/>
<feComposite in2="hardAlpha" operator="out"/>
<feColorMatrix type="matrix" values="0 0 0 0 0 0 0 0 0 0 0 0 0 0 0 0 0 0 0.25 0"/>
<feBlend mode="normal" in2="BackgroundImageFix" result="effect1_dropShadow_36_2"/>
<feColorMatrix in="SourceAlpha" type="matrix" values="0 0 0 0 0 0 0 0 0 0 0 0 0 0 0 0 0 0 127 0" result="hardAlpha"/>
<feOffset dy="4"/>
<feGaussianBlur stdDeviation="2"/>
<feComposite in2="hardAlpha" operator="out"/>
<feColorMatrix type="matrix" values="0 0 0 0 0 0 0 0 0 0 0 0 0 0 0 0 0 0 0.25 0"/>
<feBlend mode="normal" in2="effect1_dropShadow_36_2" result="effect2_dropShadow_36_2"/>
<feBlend mode="normal" in="SourceGraphic" in2="effect2_dropShadow_36_2" result="shape"/>
</filter>
<filter id="filter2_dd_36_2" x="124.651" y="143.111" width="84.9471" height="84.9471" filterUnits="userSpaceOnUse" color-interpolation-filters="sRGB">
<feFlood flood-opacity="0" result="BackgroundImageFix"/>
<feColorMatrix in="SourceAlpha" type="matrix" values="0 0 0 0 0 0 0 0 0 0 0 0 0 0 0 0 0 0 127 0" result="hardAlpha"/>
<feOffset dy="4"/>
<feGaussianBlur stdDeviation="2"/>
<feComposite in2="hardAlpha" operator="out"/>
<feColorMatrix type="matrix" values="0 0 0 0 0 0 0 0 0 0 0 0 0 0 0 0 0 0 0.25 0"/>
<feBlend mode="normal" in2="BackgroundImageFix" result="effect1_dropShadow_36_2"/>
<feColorMatrix in="SourceAlpha" type="matrix" values="0 0 0 0 0 0 0 0 0 0 0 0 0 0 0 0 0 0 127 0" result="hardAlpha"/>
<feOffset dy="4"/>
<feGaussianBlur stdDeviation="2"/>
<feComposite in2="hardAlpha" operator="out"/>
<feColorMatrix type="matrix" values="0 0 0 0 0 0 0 0 0 0 0 0 0 0 0 0 0 0 0.25 0"/>
<feBlend mode="normal" in2="effect1_dropShadow_36_2" result="effect2_dropShadow_36_2"/>
<feBlend mode="normal" in="SourceGraphic" in2="effect2_dropShadow_36_2" result="shape"/>
</filter>
<filter id="filter3_dd_36_2" x="128.22" y="161.358" width="78.966" height="53.0901" filterUnits="userSpaceOnUse" color-interpolation-filters="sRGB">
<feFlood flood-opacity="0" result="BackgroundImageFix"/>
<feColorMatrix in="SourceAlpha" type="matrix" values="0 0 0 0 0 0 0 0 0 0 0 0 0 0 0 0 0 0 127 0" result="hardAlpha"/>
<feOffset dy="4"/>
<feGaussianBlur stdDeviation="2"/>
<feComposite in2="hardAlpha" operator="out"/>
<feColorMatrix type="matrix" values="0 0 0 0 0 0 0 0 0 0 0 0 0 0 0 0 0 0 0.25 0"/>
<feBlend mode="normal" in2="BackgroundImageFix" result="effect1_dropShadow_36_2"/>
<feColorMatrix in="SourceAlpha" type="matrix" values="0 0 0 0 0 0 0 0 0 0 0 0 0 0 0 0 0 0 127 0" result="hardAlpha"/>
<feOffset dy="4"/>
<feGaussianBlur stdDeviation="2"/>
<feComposite in2="hardAlpha" operator="out"/>
<feColorMatrix type="matrix" values="0 0 0 0 0 0 0 0 0 0 0 0 0 0 0 0 0 0 0.25 0"/>
<feBlend mode="normal" in2="effect1_dropShadow_36_2" result="effect2_dropShadow_36_2"/>
<feBlend mode="normal" in="SourceGraphic" in2="effect2_dropShadow_36_2" result="shape"/>
</filter>
<radialGradient id="paint0_radial_36_2" cx="0" cy="0" r="1" gradientUnits="userSpaceOnUse" gradientTransform="translate(136.5 202) rotate(90) scale(186 134.5)">
<stop stop-color="#B26B42"/>
<stop offset="0.0001" stop-color="#B26B42" stop-opacity="0.395"/>
<stop offset="0.675" stop-color="#B26B42" stop-opacity="0.325"/>
<stop offset="1" stop-color="#B26B42" stop-opacity="0"/>
</radialGradient>
</defs>
</svg>
